<?xml version="1.0" encoding="UTF-8"?>
<svg id="Layer_1" data-name="Layer 1" xmlns="http://www.w3.org/2000/svg" viewBox="0 0 1947.06 2162.57">
  <defs>
    <style>
      .cls-1 {
        fill: #2fb563;
      }

      .cls-2 {
        fill: none;
      }

      .cls-2, .cls-3 {
        stroke: #231f20;
        stroke-miterlimit: 10;
        stroke-width: 5px;
      }

      .cls-4 {
        fill: #fcd409;
      }

      .cls-5 {
        fill: #a62f7d;
      }

      .cls-3 {
        fill: #fff;
      }

      .cls-6 {
        fill: #580e0e;
      }

      .cls-7 {
        fill: #302540;
      }

      .cls-8 {
        fill: #42438d;
      }

      .cls-9 {
        fill: #36a7df;
      }

      .cls-10 {
        fill: #a45d40;
      }

      .cls-11 {
        fill: #c098c6;
      }

      .cls-12 {
        fill: #098975;
      }

      .cls-13 {
        fill: #350e43;
      }

      .cls-14 {
        fill: #41489e;
      }

      .cls-15 {
        fill: #f89841;
      }

      .cls-16 {
        fill: #f15f6a;
      }

      .cls-17 {
        fill: #075f7b;
      }

      .cls-18 {
        fill: #3b4b3e;
      }

      .cls-19 {
        fill: #914320;
      }

      .cls-20 {
        fill: #231f20;
      }
    </style>
  </defs>
  <g id="Philippine_Regions_Map" data-name="Philippine Regions Map">
    <g id="R-BARMM">
      <path id="PH-TAW" class="cls-19" d="m449.33,2146.64l-3.48,12.71-1.49-4.48,2.48-3.4-3.48-2.15,5.96-5.73v3.04Zm73.27-7.7l7.45,3.58-9.44-.36-1.24-2.51,3.23-.72h0Zm-66.82-11.81l6.95,10.2,2.24,9.85-4.47,11.99-4.22,3.4,1.24-19.33-3.73-14.5,1.99-1.61h0Zm62.35-1.43l8.94,3.4v4.65l-8.94.9-2.48-7.7,2.48-1.25Zm39-11.1l-2.24,6.27-3.48.54.5-6.27,5.22-.54h0Zm-43.47-2.69l-.99,2.51-6.46-.36.75-2.51,6.71.36h0Zm62.1.18l2.73,1.25-.5,2.15-6.46-3.58,4.22.18h0Zm18.38.54l-1.74,1.25-5.22-1.07,4.47-2.86,3.48,1.43-.99,1.25h0Zm-74.52-12.17l1.24,7.88-2.73.9-1.99-1.79-.99,3.04-7.95.9,4.72-8.23,7.7-2.69h0Zm89.92-.72l1.49,2.69-2.98,1.43-6.46-.18,7.95-3.94h0Zm6.71-3.04l-1.49,3.58-2.73-.72.25-3.94,2.73-.9,1.24,1.97h0Zm-6.46-6.27l-6.46,2.69-.99-1.79-3.97.72,4.22-9.49,6.95,4.3.25,3.58h0Zm9.19-8.06l-3.73,9.67-1.74-5.19,5.46-4.48Zm-27.32-11.99l.75,6.09,6.95,3.4-4.22,5.55,1.49,6.62-3.73,4.48.75,3.04-10.43-2.69,4.97-5.01-4.22-1.25-2.24,3.94-6.46-3.04-4.47,4.65-1.99-1.25-2.24-.9-2.73.72-.5-2.33-2.98-.18-7.95,3.4.75,3.04-1.74,1.07-5.46,5.91-5.46-1.43-7.45,3.04-1.49.54-3.73,1.61-7.2-1.07.99-7.16-2.48-1.79,3.48-3.22,4.97.36,15.15-5.55,6.95-6.27,8.94.72,7.2-5.01,1.49-1.25,17.14-8.23,7.2-.54h0Zm19.37-4.83l3.23.54-4.22,2.15-4.22-.9,5.22-1.79Zm49.93-1.97l-4.47-1.61,1.74-3.22,4.72,3.04-1.99,1.79Zm-376.56-214.99l3.73,2.69-3.23,4.65,4.72,3.76-18.88-3.22v-2.33l-3.97-1.79,8.2-2.15,4.22,1.07s5.22-2.68,5.22-2.68Z"/>
      <path id="PH-LAS" class="cls-19" d="m1364.4,1706.11l6.71,5.91,4.47,14.14,7.45,10.38,4.72,1.79-1.24,2.69,2.48,3.22,5.22,1.43,8.69,10.74,3.48,1.25.25,5.55,4.47,2.86v3.58l8.69,3.94.75,2.51h0l-19.13-4.83-9.44,3.58-7.2-1.25-7.2-6.62-5.46-1.07-7.45.36-9.94,3.58h0l-13.66,11.1-20.86,7.7-9.94,8.95.75,2.69h0l-3.48.9-9.44-4.12,3.23-1.97-5.22-6.8-18.63-17.54-5.22.54-2.24-2.86-10.43-3.76-17.88-.9h0l4.22-3.58-.25-2.33,29.56,6.62,2.48-3.76-.99-3.94,6.46-9.49-3.97-9.67,15.9-.72,4.72-7.88-1.99-4.83,15.65-1.79,11.67-8.77-.5-6.44,3.97-10.02,5.96-.54,2.48,2.15,21.61,4.65,5.71,2.68h0Z"/>
      <path id="PH_MG" data-name="PH MG" class="cls-19" d="m1278.95,1816.19l-.5-4.65,10.43-5.91-6.21,5.73.75,2.51-4.47,2.33Zm157.97,67.13l-9.94,1.97-5.22-1.61-1.24-28.64h-3.23v-1.43l.5-6.27,4.97.18.5-3.4-5.22-.18v-3.22l-15.4-10.56.75,1.43-3.97.9.25,3.58,6.46,2.33,2.73,3.22-3.23-.18,1.24,3.4-3.48-2.51-1.99,3.94-.5-1.97-2.48.36-1.24,2.51,3.73,1.43,2.48,4.3-1.74,1.43,2.48,1.07-5.96,3.4.75,2.51-2.24.9-9.19-3.58-7.2.54-9.69-8.95-5.71,1.25-13.16-7.7,14.41-18.97-6.95-1.43-9.94,2.15-7.45,7.88-7.95-.9,14.16-17.18,2.48.9,11.67-19.33-9.44-10.02,1.24-17.18-13.66,11.1-20.86,7.7-9.94,8.95.75,2.69,1.49,1.79,6.46-.72.99,4.65,2.24.54-.75,3.4-7.7.36.99,5.91-1.99,5.55,1.99,1.61-5.22-.72-.5,3.94-2.98-.54-1.99,2.86,9.44,1.07,4.47,2.86h-1.74l-2.98-2.69-7.7-.18-9.69,5.73-8.94.72-11.67,13.43-7.95,17.18,3.48,5.73-3.23,1.61.75,3.58-3.48,1.25,3.23.72-.25,3.22,2.73-.72-.99,3.22,7.2-3.22,5.46,5.73,10.68.18,29.81-.54,2.98,3.94,41.23.18,12.42-9.49-4.22-8.59,18.38-2.86-.5,1.61,7.2.36-5.22,11.1,14.41.18,5.71,14.32,3.73,3.04,15.65-.9,21.36-8.41-18.13-8.77h0Z"/>
      <path id="PH-SLU" class="cls-19" d="m701.7,2048.54l3.23,4.48-4.97,3.22-1.24-3.04,2.98-4.65h0Zm-3.48,5.37l-4.72-1.07,5.96-4.83-1.24,5.91h0Zm-.99-12.17l2.98,1.79-1.99,4.48-7.2,3.04-2.24-4.12,3.48-4.48,4.97-.72h0Zm9.94-2.33l9.94,6.09-4.22,5.19-4.47,1.43-7.45-4.83-.5-2.51,1.74-3.76,4.97-1.61h0Zm39.99-12.53l-5.96,3.22-4.97-3.22,10.18-1.61.75,1.61h0Zm-37.01-2.51l3.97,1.25-4.97,3.4h-11.43l2.24-4.65h10.18Zm24.59-4.48l2.48.72-1.24,2.15-2.73-1.07,1.49-1.79Zm-15.4-2.69l2.48,5.19-7.7,2.86-.5-6.27,5.71-1.79Zm41.23-11.99l7.95,1.97,2.73,4.3-7.95,2.86-3.97-1.07-1.49-3.4,2.73-4.65h0Zm-217.84-4.83l4.22,3.04-7.45-1.25,3.23-1.79Zm5.71,2.33l8.94-2.15-2.24,2.33-6.46.9-.25-1.07Zm4.97-9.13l-.25,2.33-.25,1.61-3.48-1.25,1.24-2.51,2.73-.18h0Zm286.39-4.83l1.99,3.22-4.72,2.69-2.24-3.22,1.99-1.61.75-.72,2.24-.36h0Zm-263.79,2.51l-2.48.36-3.73-2.86,1.74-1.97,3.23,1.25,1.24,3.22h0Zm258.32-9.31v1.79l-6.21,2.33,3.73-5.55h2.98l-.5,1.43h0Zm-24.84-3.4l2.98,2.51-1.24,2.51-7.2-.18-1.24-2.51,4.22-2.69,2.48.36h0Zm46.45,0l2.73,2.33,6.71.72-10.93,5.55-2.73-1.25,5.96-4.12-2.98-1.43,1.24-1.79h0Zm-39.99-2.86l1.24,1.79-2.73,1.61-.75-2.86,2.24-.54h0Zm-61.85-1.97l7.7,1.79,9.44,10.74,13.16-3.04,6.71,2.33,8.45-.54,1.24-.18,4.22-.54,4.47,1.97,1.24,4.65-6.71,2.51-.5,4.83-5.71-1.79-12.17,8.06-2.73-1.61,1.99-1.07-7.95-2.15,1.74-3.58-1.49-2.15-7.45-2.15-2.48,2.51-1.99-1.07-1.74,2.51-4.47.18v1.61l-9.69,2.51-1.74,1.79-9.19-6.8-15.15,5.19-10.93-4.12-.99-4.48,8.45-9.31,14.16-3.76,3.73-4.3,16.39-.54h0Zm118.48-.36l8.69,6.8,8.2,2.69,15.65-4.3-6.95,4.48-9.94,2.69-14.41-7.16-3.73-3.22,2.48-1.97h0Zm-221.81-6.8l3.48,2.33-2.48,1.97-2.48-1.79,1.49-2.51h0Zm234.73-.36l1.99,3.58-5.96.18-.5-1.79,4.47-1.97h0Zm-249.13-3.22l1.49,1.43-2.48,3.94-6.71-2.51,7.7-2.86Zm245.16-.54l2.48,3.58-4.72,2.51-1.99-3.04,4.22-3.04h0Zm-153.5-3.76l4.72,1.79-.99,2.15-4.22.72.5-4.65Zm-56.14-15.04l2.24,1.97-.75,3.58-5.46,3.76-2.24-2.15,2.98-3.04,3.23-4.12Zm37.51-2.86l2.48,3.04-5.96,1.43.75-3.58,2.73-.9h0Zm-48.19-6.8l-3.23,18.8-8.2,1.61-9.94-1.97.25-2.33,6.95.9,6.46-14.14,7.7-2.86h0Zm20.86-5.55v5.37l-7.45-1.07-.25-1.61,7.7-2.69h0Z"/>
      <path id="PH-BAS" class="cls-19" d="m912.58,1945.44l.25,2.86-1.74.36-3.97-1.25.99-2.69,4.47.72Zm-76.75-51.73l-.99,1.43,5.46,2.15,1.99,6.8,3.97,3.04.5-4.65,1.24-2.15-7.95-4.12-4.22-2.51Zm81.72,48.87l4.22.18-2.24-2.86-1.99,2.69h0Zm-5.71-1.25l-1.74-3.04-4.72,1.43,1.49,1.97,4.97-.36h0Zm57.87-39.92l-7.45.36-5.46-3.04-16.39-.54-1.24-6.09-7.2.54-6.21-5.01-4.97,1.25-2.98-.54-4.97,1.25-12.17,8.41-7.2,1.97-9.44-3.04-5.46,3.94-1.74,5.73,5.46,3.04,4.72-.72,5.22,3.76-2.73,2.15.99,5.01,5.96,2.69,2.98,4.83,6.95,2.15-.25,3.04,14.9-.72,25.83-5.37,2.48-1.79-.75-7.16,3.73-7.7,4.72-1.97,11.92.54,4.22-4.48-3.48-2.51h0Zm-56.88-13.25l-2.24-1.25-5.22,1.61-1.74,4.12,3.97-.54,5.22-3.94h0Z"/>
    </g>
    <g id="R-CARAGA">
      <path id="PH-SUR" class="cls-18" d="m1620.73,1530.5l5.71,2.86,1.74.54-2.24,1.43-4.22-.72-4.72,1.97-.25,1.97,4.22,3.04,2.48-.72,2.98,4.12,4.97-1.79-.75-2.15,2.73-1.25v3.04l-3.23,1.61,2.98,3.94,6.21,9.13-2.48.18,7.7,4.3,12.67-2.86,8.94-6.8,6.95.18-2.98,2.51,1.24,2.33-4.22,8.95.99,5.55-3.73,7.52,5.71,3.76,1.24-1.97,7.2,9.13,6.95,5.19,2.48.54,3.23,2.69.5,2.86-3.48,1.25,6.21,1.07-3.23,5.01,4.97,5.37-3.73.54,2.24,1.61-4.97,2.51.5,2.86-8.94,1.43-2.98,1.43-.25,2.86-4.47,1.07v2.69l5.96,2.15-10.43-.36-14.9,6.27-3.97,5.19,7.7,3.76-1.99,2.15,5.46,4.65,3.73-.18-.75-1.43,10.68,2.33.99-1.25-6.95-2.33,3.97-1.07,9.69,1.07,4.97,2.69,4.47-1.25,4.22,1.07,2.98-2.51,1.74,1.43-1.99,2.33,7.2.36.99,3.04-2.48,1.25,2.48,1.97-6.21-.54-2.73,5.73,4.47-.36,1.24,2.86-4.22,5.37-6.71,1.61,3.23,2.86-1.99.54.5,2.15,8.2.54,2.48,2.33-13.41,8.41,5.22,5.73,8.45-2.51,8.94-5.73,2.98.36-4.97,17.18,4.22,1.97-6.71,5.73,1.24,5.37-2.98.54,1.74,3.22,6.21-.54-7.7,4.48h-3.48l-4.72,5.73h0l-1.74-11.99h0l-.99-6.62-8.2-1.79,10.68-7.7-11.92.9-10.93-7.52-4.72-.54,2.48-6.8,9.19-7.52h3.48v-3.04l-4.22-3.76,2.24-8.41-3.73,3.76-14.41.72-14.65-1.25-6.95-4.83,8.69-6.98-11.92.9-2.98-13.6-4.47-.18-.5-1.97-.99-8.41,4.22-2.15-.75-1.43-7.7-8.41-3.97-10.2-8.94-7.34-3.73-25.6-7.95-9.85-14.41-11.99h0l-1.24-11.81h0l30.55-22.38h0l.5,2.69h0Z"/>
      <path id="PH-AGN" class="cls-18" d="m1537.03,1535.16l6.71-2.15,12.92-.36,22.6,3.04,9.69,5.91,1.24,8.77h0l1.24,11.81h0l2.24,9.31-3.73,11.99-9.19,11.46-4.72,10.02.25,5.73-5.71,7.34,6.21,14.5-32.04-.36-10.68,5.37-35.27.18h0l-1.99-25.78,4.22-2.51-6.46-6.44,2.98-4.48-5.46-17.72h0l2.48.72,3.23,7.34,7.45,5.01,9.44.18v2.86l1.49-2.69,15.65,1.97,16.64-5.37-1.49-1.61,4.22-5.73-2.98-9.13,1.99-6.8-4.47-6.62v-6.62l-7.95-11.64-.75-7.52Z"/>
      <path id="PH-AGS" class="cls-18" d="m1591.42,1562.01l14.41,11.99,7.95,9.85,3.73,25.6,8.94,7.34,3.97,10.2,7.7,8.41.75,1.43-4.22,2.15.99,8.41.5,1.97,4.47.18,2.98,13.6,11.92-.9-8.69,6.98,6.95,4.83,14.65,1.25,14.41-.72,3.73-3.76-2.24,8.41,4.22,3.76v3.04h-3.48l-9.19,7.52-2.48,6.8,4.72.54,10.93,7.52,11.92-.9-10.68,7.7,8.2,1.79.99,6.62h0l-34.03.18h0l-16.89,5.37-4.22,3.22-8.69-3.58-2.98-4.65h-55.14l-52.91,1.61h0l-1.24-5.19,2.24-6.8-3.48-2.86.75-6.98-3.48-5.55,1.99-5.55-3.48-1.79-2.48-6.44-9.44-4.83-2.98-4.48-2.98-27.75h0l-.25-10.2h0l35.27-.18,10.68-5.37,32.04.36-6.21-14.5,5.71-7.34-.25-5.73,4.72-10.02,9.19-11.46,3.73-11.99-3.23-9.13Z"/>
      <path id="PH-DIN" class="cls-18" d="m1540.26,1400.36l5.46,2.33-.75,3.04-3.73-.54-2.48-3.94,1.49-.9h0Zm30.8-1.25l6.95,10.56-6.21,11.46.99,7.34-5.71-2.33.75,3.04,3.97.72,2.73,5.73-2.48,1.61.99,2.69,3.97-.36-3.23,2.51.5,3.76,6.71,8.23-4.72,8.59,1.24,4.12-3.97,1.79,9.19,7.52-1.24,3.4-4.22-.18-1.99,1.97-4.47-3.94-.25-7.34-8.94-2.15,4.47-.72-4.47-2.15h-2.48l-3.23-1.97,3.73-1.07-1.24-3.94.25-1.97,2.73-1.07-.25-3.4-3.23-1.43.75,3.04-5.22-2.51-6.95,2.86-6.71-9.49,2.48-1.25,1.99-5.37h4.72v-1.07l2.98-1.61-5.46-5.19,1.49-4.48-.5-1.25-.75-4.83,7.95.18-1.49-8.06,5.71,3.04,2.73-.9,2.98-10.02,6.46-4.12h0Z"/>
      <path id="PH-SUN" class="cls-18" d="m1568.57,1497.21l6.46.72-2.48,1.61,1.49,6.09-2.73-.72-1.24-5.55-3.48.9,1.99-3.04h0Zm72.53-.72l7.45.54v2.51l-6.46-.54-4.47,3.94v-2.69l-6.46,1.79-1.24-3.22,2.73-.9-.25-2.15,4.72,3.76,3.97-3.04h0Zm-15.9-3.4l-.5,3.22h3.73l.25-1.61,1.74,2.33-1.99.9.5,4.48,4.22.54.99,2.86-4.22,5.19-.75,7.34-4.22,1.07v-1.97l-6.21-3.04-2.73-1.97,3.23-1.43.75-.36-.5-3.58,3.48-.18-1.99-5.37,1.74-1.07-3.48-2.33,2.73-.9-1.24-3.58,4.47-.54h0Zm-54.15-4.3l4.47,5.01-6.21-1.97h-1.49l3.23-3.04h0Zm13.66-.18l4.22,1.43-2.48,3.76-4.47-1.61-.99-3.58,3.23-.54.5.54h0Zm-39.99-.18l1.74,3.76,7.2-.54,2.24,2.33,3.23-.9-1.74,2.33,4.22,2.86-.75,2.33,3.73,3.4-1.74,1.97,1.74,2.86.5,1.25,8.2,4.12,5.96-.54,4.47,2.33,4.97-.9.25,3.4,18.88,3.22,5.22,2.86v2.69l7.7.54h0l-30.55,22.38h0l-1.24-8.77-9.69-5.91-22.6-3.04-12.92.36-6.71,2.15h0l-11.18-28.46,1.74-14.68,6.95-3.4-.5-4.12,3.97,1.79-1.49,2.69,3.73-.36h4.47Zm26.33-15.93l.25,7.16,2.73,1.61,5.46-.18-17.64,6.09.99-3.58-2.98,1.43-.25-2.51,7.7-9.13,3.73-.9Zm-22.85.54l6.71,6.44-7.95-3.22,1.24-3.22h0Zm81.97-6.62l1.99,2.33-1.74,3.4-4.47,3.58-3.23.9-1.74,1.43-2.24-.72-.5-1.61,1.24.9,8.2-5.91-1.24-.9,3.97-.54-.25-2.86Zm16.64-13.43l10.68,24.52-1.74,1.79-2.48.9.25.54,4.22,2.33,3.23-1.07,1.24,5.01h3.73l-.99,2.86-8.94,5.01-11.43-.9-4.72-2.15-9.69-5.37-4.22-3.04,1.99-2.69,6.21-.18-6.21-3.22,2.98-3.04,1.24-3.04,6.95-6.62,2.73-3.94-1.24-3.04,6.21-4.65Z"/>
    </g>
    <g id="R-XII">
      <path id="PH-NCO" class="cls-14" d="m1354.46,1769.65l9.94-3.4,7.45-.36,5.46,1.07,7.2,6.62,7.45,1.25,9.44-3.58,19.13,4.83h0l3.23,8.06-4.47,3.22-1.99,4.83,5.22-1.97,3.97,2.15v3.76l6.95,2.33.25,2.15,8.69-2.15,7.95,4.12,13.66-.72,3.23-6.09,15.9-1.79,1.99-7.52,4.97-6.44,4.22.18.5-2.86,5.71,1.61h0l.5,1.97h0l1.99,8.06-4.22,5.19.99,11.1-3.73,4.48,3.48,12.17-3.48,7.88,2.73,4.3,7.7,4.65.99,8.23,4.47,4.65-6.71.54-3.97,8.41-16.15,9.85-.75,5.55-2.98,2.33-3.48-1.61-4.47,1.97,3.73,8.23h0l-21.11,4.65h0l-19.13-8.23-9.94,1.97-5.22-1.61-1.24-28.64h-3.23v-1.43l.5-6.27,4.97.18.5-3.4-5.22-.18v-3.22l-15.4-10.56.75,1.43-3.97.9.25,3.58,6.46,2.33,2.73,3.22-3.23-.18,1.24,3.4-3.48-2.51-1.99,3.94-.5-1.97-2.48.36-1.24,2.51,3.97,1.43,2.48,4.3-1.74,1.43,2.48,1.07-5.96,3.4.75,2.51-2.24.9-9.19-3.58-6.95.54-9.69-8.95-5.71,1.25-13.16-7.7h0l14.41-18.97-6.95-1.43-9.94,2.33-7.45,7.88-7.95-.9,14.16-17.18,2.48.9,11.67-19.33-9.44-10.02,1.24-17.36Z"/>
      <path id="PH-SAR" class="cls-14" d="m1527.09,2059.11l5.46,1.97-1.49,6.98-2.48-1.43-10.18,1.25-.5-2.51-3.48-.36,7.45-5.19,5.22-.72Zm14.41-7.7l3.73,3.58-1.24,6.09-3.97,4.3-3.73-6.09,3.97-2.69-3.23-1.43,4.72-.18-2.73-1.61,2.48-1.97h0Zm-194.98-93.62l26.83,8.41,6.95,5.37,14.41,3.4,23.6,9.13,40.24,1.07,6.46-7.16v12.71l9.19.72h0l-.75,5.37-3.97,2.69,2.24,2.69-2.48,1.97h-27.07l-18.13-3.94-32.79-12.35-6.71-.18-4.47-3.94-10.68-1.07-16.64-8.41-13.41-4.12h0l7.2-12.35h0Zm139.84-33.47l14.16,5.37,12.67-4.12,5.71-6.27,12.92,2.69,11.18,11.81,1.24,7.16-5.96,4.83,8.45,9.31.99,12.53,4.97,4.12-.5,6.44-9.69,19.51,1.24,7.52-3.23,1.61-.25,3.58-13.41,20.41-15.65,8.41,2.48,2.51h0l-4.97-1.79,2.73-6.27-3.97-8.06-8.69-3.4-3.73-6.44-6.21-.9,1.24-1.79-2.98-1.97,1.24-4.83,4.72,1.61,2.48-4.65-1.24-3.22,10.43-3.94-1.24-2.33,4.72-5.55-3.23-13.78-5.71-1.79h0l-.99-9.85,6.95-8.77-.25-4.3-35.27-9.13,6.95-10.38h4.97l2.73-5.37,1.99-.54h0Z"/>
      <path id="PH-SCO" class="cls-14" d="m1346.51,1957.79l-14.16-3.58-6.71-11.28,47.44-.9,9.19,2.33,8.94-10.92-.75-5.91-3.73-1.61.25-4.12-2.24.18-1.24-3.4,6.95-13.96,2.48-.9,3.23,3.76,13.91-9.31,15.15,18.08,65.33-.54h0l.25,3.4-4.97,5.37h0l-2.73.72-2.73,5.37h-4.97l-6.95,10.38,35.27,9.13.25,4.3-6.95,8.77.99,9.85h0l-13.66-1.07-3.97,11.1-7.2,8.59h0l-9.19-.54v-12.71l-6.46,7.16-40.24-1.07-23.6-9.13-14.41-3.4-6.95-5.37-25.83-8.77Z"/>
      <path id="PH-SUK" class="cls-14" d="m1293.11,1887.62l29.81-.54,2.98,3.94,41.23.18,12.42-9.49-4.22-8.59,18.38-2.86-.5,1.61,7.2.36-5.22,11.1,14.41.18,5.71,14.32,3.73,3.04,15.4-.9,21.36-8.41h0l21.11-4.65h0l5.71,3.04-3.73,1.25.25,5.55,8.69,7.7,2.73,11.28h0l-65.33.54-15.15-18.08-13.91,9.31-3.23-3.76-2.48.9-6.95,13.96,1.24,3.4,2.24-.18-.25,4.12,3.73,1.61.75,5.91-8.94,10.92-9.19-2.33-47.44.9,6.71,11.28,14.16,3.58h0l-7.95,12.35h0l-4.97.72-25.34-12.53-3.23-8.06-10.93-6.09-4.97-8.77-2.24-1.25-2.24,2.33-3.73-6.09,1.24-2.51v-1.25l-3.23-7.16,1.49-1.25-2.24-.72.75-1.97,3.23,1.07,3.73-1.97-4.97-1.25,2.98-9.67-6.71-11.81,4.72-4.3h11.18Z"/>
    </g>
    <g id="R-XI">
      <path id="PH-COM" class="cls-13" d="m1664.95,1724.19l-2.73,3.76,17.88,42.78,7.7,26.13.99,22.91-61.85,22.91-1.74,2.69h0l-10.43-6.62,1.49-5.19-9.94-11.46,3.23-12.35-.99-1.79h-3.23l1.99-5.91-2.98-3.4,1.24-3.76,9.44-3.4-5.96-5.37,12.17-1.97,3.48-13.6-6.21-5.73,7.45-8.95-4.47-8.77-9.44,7.88-11.92,14.68-4.22-.18.75-4.48-2.48-4.65-5.46-1.79-1.99-4.3-4.47-1.07-4.97-28.28h55.14l2.98,4.65,8.69,3.58,4.22-3.04,16.64-5.91h0Z"/>
      <path id="PH-DAV" class="cls-13" d="m1578.76,1860.05l3.73.36,2.73,2.86-1.24,5.19-4.72-1.25-3.23-5.19,2.73-1.97h0Zm3.97-30.97l4.72,3.76,5.22.72,6.46,5.91-3.97,11.1,2.98,12.17-4.97,6.09-7.7-9.49-1.99-13.6-2.98-.9-2.98,1.79-2.73-3.94,7.95-13.6Zm-5.71-104.72l4.97,28.28,4.47,1.07,1.99,4.3,5.46,1.79,2.48,4.65-.75,4.48,4.22.18,11.92-14.68,9.44-7.88,4.47,8.77-7.45,8.95,6.21,5.73-3.48,13.6-12.17,1.97,5.96,5.37-9.44,3.4-1.24,3.76,2.98,3.4-1.99,5.91h0l-3.73-.36-17.39,8.41h-7.95l-9.94,7.34-18.88.72-.75-41.71-45.46-.9h0l-.5-1.97h0l.25-8.41,8.69-.72,3.73,2.86,8.2-1.43,5.22,2.15,6.21-4.48,2.24-14.32-4.47-6.8.5-12.35-6.95-9.67h0l52.91-1.43h0Z"/>
      <path id="PH-DAS" class="cls-13" d="m1501.01,1781.11l45.46.9.75,41.71,18.88-.72,9.94-7.34h7.95l-6.21,3.94v2.33l-5.46,1.97,2.98,14.68-2.73,3.94-7.95,6.44-4.47.9-.75,2.15-3.23-2.86-6.21,2.51-6.71,6.09.5,7.88-5.71,3.04-.75,3.4-5.96,2.86-4.97,5.91v1.25l-.25,5.01-3.23,3.76,2.24,11.81-4.72,4.48,4.97.18,9.94,2.86.75-2.33-4.97-3.4,1.74-1.61,6.21,5.19,3.73-.54-.5,3.58,6.71,2.15-.25,4.65,5.96-1.97,5.46,2.51-3.23,1.25,1.49,1.25,3.97-.54-2.48,9.49,4.72,1.07,1.99,1.07,9.69,19.69,5.71,5.91,1.74,5.73-1.74,6.27,1.99,2.51-2.48,10.2-7.2,13.6-26.83,22.2-2.73,6.09-15.15,17.01-14.65,2.33-1.99-1.97h0l-2.48-2.51,15.65-8.41,13.41-20.41.25-3.58,3.23-1.61-1.24-7.52,9.69-19.51.5-6.44-4.97-4.12-.99-12.53-8.45-9.31,5.96-4.83-1.24-7.16-11.18-11.81-12.92-2.69-5.71,6.27-12.67,4.12-14.16-5.37h0l4.97-5.37-.25-3.4h0l-2.73-11.28-8.69-7.7-.25-5.55,3.73-1.25-5.71-3.04h0l-3.73-8.23,4.47-1.97,3.48,1.61,2.98-2.33.75-5.55,16.15-9.85,3.97-8.41,6.71-.54-4.47-4.65-.99-8.23-7.7-4.65-2.73-4.3,3.48-7.88-3.48-12.17,3.97-4.48-.99-11.1,4.22-5.19-1.74-7.52h0Z"/>
      <path id="PH-DAO" class="cls-13" d="m1698.98,1724.01l1.74,11.99h0v3.4l4.47,2.15-1.99,1.97,1.74,2.86,7.45.18-.25,2.33,4.97.72,1.24,2.15,7.7,6.62,5.71-.36,6.71,3.04-3.48,2.86,1.74,3.04-1.49,4.83,4.47,3.94h-2.73l-.75,3.76,4.47,1.25,2.98,11.1-.75,4.48-6.71.18-1.24,1.61.5,4.3,4.72.9-3.97,2.86,2.48,6.27-3.48,1.97,2.73,3.22,6.95-.18-7.2,7.16-.75,4.12-4.97-.54.5,2.86-2.48,1.97,1.49,2.86-2.98.54v2.51l-5.22.9-3.97,4.12,1.24,2.86-3.97,1.07-.99,4.83,2.24,3.22-7.95-1.25-2.73,1.79-5.96-.18-4.72-1.79-4.22,3.76-1.24,5.01-4.97,1.43,1.49,3.04,9.94,6.09.75,7.34-6.71-.18-4.47-2.51-.5-3.04,2.73-2.33-4.22-2.86-2.48-3.58-3.73-3.04-8.2-2.15-3.48,6.8,3.23,1.97-2.24,1.07,14.16,15.93-7.45,15.57,2.24,10.92-3.48,4.83v4.65l2.48,6.27-2.73.54-2.73,4.65,1.74,8.95-2.73,6.8-.99-8.77-3.73-4.48-5.46-2.15,2.48-4.12-7.2-6.09-4.97-8.59,1.74-8.77-4.47-7.52,4.47-3.58-1.74-1.97,2.48-5.01-3.97-3.22.75-10.74-10.18-4.12-8.45-6.98,2.48-10.92-7.2-4.48,1.49-1.97-2.98-1.61h0l1.74-2.69,61.85-22.91-.99-22.91-7.7-26.13-17.88-42.78,2.73-3.76h0l35.02-.18Z"/>
    </g>
    <g id="R-X">
      <path id="PH-BUK" class="cls-7" d="m1376.82,1693.22l2.98-3.94-.75-4.3,2.24.72,2.48-1.97-.99-4.83,2.98-3.22.5-7.52,35.77.36-.5-6.8,9.69-15.75,29.06,1.97,38.75-.36h0l2.98,27.75,2.98,4.48,9.44,4.83,2.48,6.44,3.48,1.79-1.99,5.55,3.48,5.55-.75,6.98,3.48,2.86-2.24,6.8,1.24,5.19h0l6.95,9.67-.5,12.35,4.47,6.8-2.24,14.32-6.21,4.48-5.22-2.15-8.2,1.43-3.73-2.86-8.69.72-.25,8.41h0l-5.71-1.61-.5,2.86-4.22-.18-4.97,6.44-1.99,7.52-15.9,1.79-3.23,6.09-13.66.72-7.95-4.12-8.69,2.15-.25-2.15-6.95-2.33v-3.76l-3.97-2.15-5.22,1.97,1.99-4.83,4.47-3.22-3.23-8.06h0l-.75-2.51-8.69-3.94v-3.58l-4.47-2.86-.25-5.55-3.48-1.25-8.69-10.74-5.22-1.43-2.48-3.22,1.24-2.69-4.72-1.97-7.45-10.38-4.47-14.14-6.71-5.91h0l11.67-2.69,2.73-3.58-2.48-3.04.99-3.4Z"/>
      <path id="PH-CAM" class="cls-7" d="m1402.9,1559.14l12.42,6.98,3.48,7.52-1.24,1.97,2.73,1.43-5.46,5.37-5.96-3.04-11.92-2.15-7.45-6.62,1.49-8.23,11.92-3.22Z"/>
      <path id="PH-LAN" class="cls-7" d="m1319.19,1681.22l13.91-1.79,27.07,1.25,11.18,5.19,5.71,7.52h0l-.75,3.4,2.48,3.04-2.73,3.58-11.67,2.69h0l-5.22-2.86-21.61-4.65-2.48-2.15-5.96.54-3.97,10.02.5,6.44-11.67,8.77-15.65,1.79,1.99,4.83-4.97,7.88-15.9.72,3.97,9.67-6.46,9.49.99,3.94-2.48,3.76-29.56-6.62.25,2.33-4.22,3.58h0l-7.45-.54-1.99-3.76h-4.97l.5-4.3-3.23-3.4-5.22-.9v-1.97l-12.67-2.15h0l8.69-16.29h0l4.47-3.58,9.44-2.51,6.95-7.7,8.45-3.76,2.48-3.4,3.73,1.07,5.46-1.43,5.96-5.01,15.4-5.91,24.84,1.61,11.92-3.4,7.7-8.77-3.23-6.27Z"/>
      <path id="PH-MSC" class="cls-7" d="m1204.93,1636.29l1.99,1.07-1.24,1.43,4.22,1.07h8.69l10.18,8.06,7.2,5.91-.5,3.94,6.71,3.76-.25,2.86,3.97,3.58,1.49,10.38,2.98,3.04-2.73,1.61-.25,3.94,3.23,16.29-13.91,7.52-4.97,6.62-8.69-.54-13.66,5.37h0l-.25-2.33-5.96.9-6.95-2.69-2.48-22.38h0l.99-53.16h0l1.99.72,2.24-2.15,1.49.72,2.98-3.22-4.22-.9,5.71-1.43h0Z"/>
      <path id="PH-MSR" class="cls-7" d="m1492.32,1580.8l5.46,17.72-2.98,4.48,6.46,6.44-4.47,2.51,1.99,25.6h0l.25,10.2h0l-38.75.36-29.06-1.97-9.69,15.75.5,6.8-35.77-.36-.5,7.52-2.98,3.22.99,4.83-2.48,1.97-2.24-.72.75,4.3-2.98,3.94h0l-5.71-7.52-11.18-5.19-27.07-1.25-13.91,1.79h0l2.98-6.62,3.73-2.33.25-8.77,5.71-10.56,24.09-10.74,5.22.36-1.24,3.94,7.45,2.15,5.71,4.3,4.72.36,1.49,2.51,13.66,1.25-2.24,2.69,3.73-2.33.99,3.04,6.21,1.43,6.95-2.69,2.24-2.69-1.99-5.91,5.22-4.83-1.74-6.27-3.73-1.25-.25-5.55,3.23-3.22h3.48l-2.48-6.44,4.47-7.52-1.99-19.87,6.95-3.76,9.19-.54,28.07,11.81,9.69,11.81,15.4-2.33,4.47-10.74-2.98-10.92,2.48-2.33.5-6.62,3.73-1.25h0Z"/>
    </g>
    <g id="R-IX">
      <path id="PH-ZAN" class="cls-11" d="m1165.44,1628.78l7.95,1.43,2.73,4.3,8.94-2.33,1.24,2.51-3.97,3.22.5,1.97,4.47,2.69,3.97-1.43.25,1.61,3.48-.18h0l-.99,53.16h-30.06l-6.21-2.15-26.58-1.07-1.24,17.54-4.72,7.16v7.34l-16.15-.36-20.86,11.1-8.45-.54h0l-29.31-3.22-16.39,1.79-20.12,6.8-18.13,10.92-16.89,5.91-14.65,15.75-8.45,12.89-1.99,8.95h0l-8.94,12.53-.5,11.81-3.73,7.16-13.41,9.13-30.8.54h0l12.92-13.43,5.96-1.79.99-2.33,9.19-1.97.25-2.51-4.97-1.79-1.24-4.12,4.97-5.55-.25-6.09,6.46-6.44-2.98-3.58,5.22-.18,7.45-6.44-1.49-1.97-2.24,1.07-3.23-1.97,5.22-5.73v-3.58l-3.23-7.16-5.71-1.79,3.23-3.4,1.49,1.79,2.24-1.07-.75-2.69.25-3.22,3.73-.72,3.48-6.8,11.92-6.44v-6.8l21.36-10.2,21.11-4.48,8.69.9,13.16-2.33,8.2-3.94,5.96-6.44,4.47,5.37,6.21,1.25,16.89-1.25,8.45-3.4h9.69l14.9-8.77-.25-4.65-4.97-1.43-5.46-6.09,8.45-2.69-.5-11.28,5.22-1.97,3.97-8.06,5.96-3.22,21.36-2.33,15.65,2.69,5.46-.9,5.46-5.73,3.48-9.49,3.73-1.07,3.97,2.51,3.97-1.07.99-3.94-3.97-1.61-.75-1.07-2.73-2.69v-2.86h1.99Z"/>
      <path id="PH-ZSI" class="cls-11" d="m963.25,1855.04l1.49,1.25-1.24,4.12-7.7-.9,1.24,1.97-6.71,4.12,2.73-5.01-1.49-1.25,2.98-2.69,3.48,1.07,5.22-2.69h0Zm120.22-52.45l1.74-.9-2.98-2.51-5.46-1.97-2.24,1.79.75,6.27-2.24,1.25-7.45-8.59-6.21,1.61-2.73,10.02,3.97,1.07-.75,5.37,4.72,2.51,2.98-4.12,9.44-1.61,3.48-3.76,5.46,1.25-4.47-4.3,9.19,1.07-7.2-4.48h0Zm26.58-53.7l-30.55-2.86v-11.28l-29.31-3.22-16.39,1.79-20.12,6.8-18.13,10.92-16.89,5.91-14.65,15.75-8.45,12.89-1.99,8.95-8.94,12.53-.5,11.81-3.73,7.16-13.41,9.13-30.8.54-.75,8.95,7.2,14.68,30.8,10.02,7.7-2.51.99-2.15,5.22-3.94,4.97-10.92.25-1.61-1.49-2.69,9.44-5.55-.25-2.33-2.73-.18,3.48-3.76-2.48-3.94,3.23-.72-.5-1.25.75-3.04,2.48-.54,1.99-11.81,4.97-1.97,1.99.9-.5,2.86,2.73-.9,9.44-10.02-8.69-.9,2.24-8.59-.25-.18,8.45-3.22,3.48-1.79,4.72-3.94,3.48-.54h3.23l.5-3.22,3.48-2.33-9.94,1.61-3.23-.54-.5-1.97,10.68-5.73-1.24-2.69,4.97-5.01,2.98-.36,3.23-5.55,13.66-3.22.75-2.33,2.73.72,3.23-2.33,2.48,3.04,3.73-2.86,4.72.54,4.72,4.48,3.97-1.61,7.95,2.33,1.24,4.12-3.73-1.61-.5,2.69-2.73,3.94,2.48,4.83-1.74,3.04.5,3.04,4.22,1.61,1.99,5.19-1.99,2.33-2.48-3.04-1.74.9-1.74,6.8.25,2.15,3.48-2.51,3.23,1.43-.75,5.91,3.23-1.61,1.74,1.43,5.96-3.76v-2.86l-3.48-1.07,5.22-1.79.75-4.12,2.48-.54,2.98.9,5.46,7.52,3.97-1.07,3.48,3.94,2.24-2.86-1.24-2.69,6.95-10.2-1.49-6.27h5.71l-.75-3.4,1.24-1.07.25-2.51,3.97.36,2.48-3.76-1.74-13.61h0Z"/>
      <path id="PH-ZAS" class="cls-11" d="m1079.5,1734.75l8.45.54,20.86-11.1,16.15.36v-7.34l4.72-7.16,1.24-17.54,26.58,1.07,6.21,2.15h30.06l2.48,22.38,6.95,2.69,5.96-.9.25,2.33h0l.75,1.25.5,1.43.25,2.15,4.47,2.86h0l-8.69,16.29h0l-10.18-3.04-18.88,5.19-6.71-.54,1.24,4.48-1.74,1.61,4.47.72-.5,2.15,6.95,2.51-.75,7.88-2.73,5.19-14.16,3.04.75,6.62-5.96-3.04-3.48,3.4,7.95,2.51-.25,5.73,2.73,4.3,2.98-1.07,6.95,4.3-2.48,3.22,2.73,4.83-5.46.18-1.24,1.79-6.21-2.15-1.24-3.04-7.95-2.15-1.74-3.4-6.71-3.4,2.98-8.23-13.91-1.07-7.7,4.48,2.98,2.51-3.97,2.51-2.73-2.15,1.49-1.79-9.69-2.51-2.24-5.91,4.72-.72.25-1.79-5.96-2.86,4.47-.36,2.73,3.58,6.95.18,3.73-2.15-3.48-6.44-6.71-.36.75-1.61-2.98-1.07,3.23-3.4-1.24-3.22-4.22-2.86-3.23,3.76h0l-2.24-13.78-30.55-2.86.99-11.1h0Z"/>
    </g>
    <g id="R-VIII">
      <path id="PH-BIL" class="cls-6" d="m1351.73,1235.86l7.2.18,12.67,3.94,8.2,14.14,6.21,3.4-1.99,7.34-4.97,2.15-11.92.54-1.49-1.43-4.22,2.15-6.71-3.22-3.73-6.98-2.98.54-2.73-3.04.75-4.65-6.95-6.44.75-1.79-2.73-1.61,5.22-3.04,9.44-2.15Zm-18.63-14.14l4.97,1.43-.5,3.94-4.22,1.79-5.96-3.76,5.71-3.4h0Z"/>
      <path id="PH-EAS" class="cls-6" d="m1627.94,1359.01l1.74,3.94-5.71-3.58,3.97-.36h0Zm-47.44-6.44l5.96,3.4-2.98,4.48,1.24,2.33,16.89,2.15,1.49,1.79-1.99,2.86-10.43.9-4.97-3.94-4.72-.72.5-1.61-5.71-1.25-1.99-5.37,6.71-5.01h0Zm-8.94-23.99l1.24,3.4-2.24.9-3.97-1.79.25-2.15,4.72-.36Zm22.11-3.58l12.92,12.35-2.48.18-10.93-9.85.5-2.69Zm-110.78-166.12l2.73-7.34,4.97-3.94,17.64,14.5,5.22-2.33h0l-.75,1.07,3.48.36,3.23-4.83,4.47.54-4.47,3.04,1.74,1.07,2.98.72,2.48-2.15,1.24,1.61,1.24-2.15,4.72,1.61,4.72,3.94-1.49,2.15,3.97-.54.25,2.51,2.73,1.25v-1.97l3.73,3.4-.25,2.86-2.24-1.61-.25,1.79-7.45.72,3.48,1.79-1.24,1.97-3.97.18v4.3l6.46-.36,1.49,1.43-3.73.54,5.22,3.94h3.23l-10.93,8.95-5.22,4.83-.99,8.23,4.22,3.22-1.24,6.09,4.72.9,1.99,3.4-2.24,2.69-3.97-1.25-4.97,3.04h3.48l-.99,1.25,2.48,1.25,3.97-2.51,3.73,8.41-1.99,1.25,3.73,1.61-1.99,1.43-5.22-.9-.99,1.79,2.98,1.61-4.47,3.94,1.74,3.04,4.47-.18-.75,6.09,8.2,6.8.5,2.69-4.47,3.4,5.22-.9,3.97,2.15,1.49,4.3,1.99,1.61,3.73-.72,3.48,4.48,5.46,1.25-3.48,7.34-12.17,5.55-2.48,8.06,11.43,2.69-1.74-1.25h4.72l.75-1.43-5.71-3.4,2.24-1.07,11.92,4.65,17.64,21.84-1.99,2.51-6.21-1.97-2.98-5.01-5.46-2.33,5.46-4.12-6.46-.36-.99-3.22-13.91,3.76-1.24-.54-2.98-1.25,2.24-2.86-7.2-.18-3.23,8.95-3.73-2.51-2.48-.9-2.48-2.51-2.24,1.07.99,2.51-3.48-1.61-.5,2.51-4.47,1.25-.5-2.51-5.71.18-2.48-2.69-7.7.36-3.48-3.58-5.71.9-2.24,2.51h0l-.75-26.31,10.43-10.74-3.73-3.58-9.94-2.51-4.47-20.41,2.48-4.65,10.93-5.73-2.24-23.45-11.43-18.62h-16.64l-.5-22.73,5.96-2.86,1.24-13.07h0Z"/>
      <path id="PH-LEY" class="cls-6" d="m1331.86,1254.83l22.11,16.11,5.71,6.98,1.99-2.33-3.23-5.19,2.98-1.25,10.43,3.94,2.73,11.28,5.96,4.65,4.22-.9,7.45,2.51,10.93-1.79,16.39-8.95,2.48-7.52,8.45.9,2.98,2.15,4.47-1.79,1.99,1.79,4.97-2.51,2.48,4.48,4.22-.72-1.99,2.69,1.99,1.25-2.98,2.33v9.49l2.73,3.58,5.46.18-.5,4.12,2.48,1.43-2.24,6.98,5.71,11.81-.99,17.54-5.71,11.99,4.22,13.96,2.73,2.69,13.41,2.86-1.99,2.86,7.95,6.8h0l-17.39,13.07h-20.37l-8.45,15.75,1.24,18.44-9.44,1.43-12.92,8.95-2.98-.9h0l5.46-16.65-4.47-5.19-5.96-2.51-2.24-14.32,8.2-6.98.75-11.1,5.96-5.01-3.73-15.39-13.66-13.78-4.22-7.7-5.46-1.79-10.43-8.23-4.47.54-5.96,4.3,2.24,6.27-6.21,8.23-6.95.18-4.97-4.12-2.98,1.07.99-3.94-3.23-3.94-.75,4.65-7.2-1.43,6.21-7.88-.75-6.62-6.46-4.12,5.71-6.09-3.23-12.17.25-3.04.5-2.15-1.99-4.12-1.74-1.97.75-2.15-5.22-1.25v-6.27l3.48-.54-5.46-1.61-.99-2.33,4.22-1.43-5.71-1.07-4.97-10.38v-5.91l4.97-3.22Z"/>
      <path id="PH-NSA" class="cls-6" d="m1292.86,1158.35l2.48,1.97-2.73,2.51-2.48-3.22,2.73-1.25Zm32.04-9.49l-4.97-5.55-.75-7.34,6.21,6.09-.5,6.8h0Zm-24.09-15.57l8.94,8.95-1.99,4.12-7.7-6.8.75-6.27Zm51.17-13.43l.75,2.33,4.22,1.07-2.48,1.61-5.22-1.79,2.73-3.22h0Zm11.67-.18l5.22,5.19-3.73.36-5.22-5.19,3.73-.36h0Zm-23.35-1.07l3.97.72-.5,2.33-3.73.54-1.24-3.4,1.49-.18h0Zm-.75-5.19l6.21,3.4.5,3.22-5.96-1.97,1.24-2.33-1.99-2.33Zm114.01-1.97l3.73,2.33.99,3.94,9.44,2.86-2.48,2.51-1.49,1.79,4.72.9-.25-5.73,4.22-.54,2.73,2.51,5.96-2.86,21.86,12.35-1.24,2.51,5.71.54.75,5.37,7.7,3.04-6.95,1.07,2.98,1.43-3.23.36,1.24,2.69-3.48,1.07.75,3.4,5.46.36-6.21,2.86,1.24,2.15,8.2-3.4-1.74,2.15,1.99,1.97-3.23.54h0l-5.22,2.33-17.64-14.5-4.97,3.94-2.73,7.34h0l-8.69.72-23.6,6.98-12.17-3.22-8.94,15.22-4.72-4.83,2.24-5.73-23.1-9.49-13.16,6.44-28.56-12.35-9.94,6.8-12.92.18h0l-4.22-8.59,1.99-5.19-1.49-.72-1.24,2.15-3.48-8.41-.25-.54-3.73-3.22-.5-6.8-3.73-4.12,3.48-4.48,7.95,3.76.75,2.69,1.99-1.43,2.73,1.07-.25-2.33,6.71,2.33v-3.76l5.22,2.86v1.97l3.97-.54,4.22-1.61-2.24,2.33,1.24,2.15,2.48-.18-.25-3.22,6.71,2.33h8.45l1.49-1.43,17.14,1.61,13.16.54,11.43-3.76,7.45,2.33,4.97-.9,2.73-4.3-4.47-2.51,5.22.9.75.72,7.2.54,4.47-2.33,1.24,2.69-2.24.9,6.95.72,4.22-1.79-3.48-10.38h0Zm13.41-5.19l4.22,10.74-9.94-2.51,3.48-.18,1.24-2.15-5.46-1.61.25-2.69,1.49-1.61h4.72Zm-126.93-1.61l4.97,1.43.75,5.91-4.97-2.15-.75-5.19h0Z"/>
      <path id="PH-WSA" class="cls-6" d="m1425,1237.47l4.97.18,1.74,2.33,3.73-.72.75,1.97-4.22,2.15,1.74,3.4-8.2-1.07.75-5.01-3.48-1.97.25-3.22,1.99,1.97h0Zm-17.88-4.3l1.24,3.22,3.23.9-.25,2.33,4.97-1.79-2.48,2.86,7.2,3.22-3.48,3.4,1.49,2.51,1.99-1.25,7.95,1.25-3.48,2.86,1.49,4.3-2.98,2.33-5.71-2.51,2.48-2.33-7.2-1.07-.75-4.48,3.73,1.61,1.24-1.43-7.2-5.73-2.24,1.25-.99-4.65-1.99.9.75-3.58-1.49-1.43,2.48-1.25-2.48-1.61,2.48.18h0Zm3.48-1.79l4.97,1.79-2.48,3.58-3.23-1.79.75-3.58h0Zm-19.87-23.81l.25,1.61,3.73-.18-1.24,2.69-4.22-2.51,1.49-1.61h0Zm-34.77-1.07l2.98,5.19-2.98,1.25-5.96-1.61.99-3.94,4.97-.9Zm-21.11-4.3l1.24,2.86-4.97,4.83-5.71.54.25-4.12,9.19-4.12Zm16.39-3.94l2.48,1.61-1.74,2.86-4.22-1.43v-2.51l3.48-.54h0Zm-35.77-12.17h2.48v3.22l-3.97-1.25-6.95,4.83-5.46-1.97,4.22-4.12,9.69-.72h0Zm23.85-26.67l12.92-.18,9.94-6.8,28.56,12.35,13.16-6.44,23.1,9.49-2.24,5.73,4.72,4.83,8.94-15.22,12.17,3.22,23.6-6.98,8.69-.72h0l-1.24,13.25-5.96,2.86.5,22.73h16.64l11.18,18.8,2.24,23.45-10.93,5.73-2.48,4.65,4.47,20.41,9.94,2.51,3.73,3.58-10.43,10.74.75,26.31h0l-3.23,4.3-4.72-1.61-2.48-11.1-7.95-12.35-14.41-1.43-11.67,2.51-4.97-2.15-.99-5.19,4.22-4.12-2.24-9.13-3.73-1.43-.75-2.86-3.23.54-6.95-2.86.5-2.51v-1.07l-3.23-1.43.25,6.09-1.99-1.43-6.95,1.07-3.48-3.4,1.99-.9v-1.61l4.72-5.91,2.48,2.86,3.97-.72.99-1.79-3.97-.72.75-2.51,11.92.72,3.23-1.61-1.49-1.79,5.22-2.69-1.99-7.16,9.94-5.55,1.99-2.86-.5-3.04-7.45-2.69-15.9,5.19-4.22-1.79-.99-3.22-4.22-1.79v-2.86l-15.15-6.62.5-1.97,3.97-1.25-1.74-2.15-4.97-.54.99,1.43-5.46.18,2.24-2.33-1.24-1.79,4.72-1.25-9.94-1.43-2.24-3.58,1.74-.54-3.48-2.86-.5-1.07-8.94-5.73-7.45-1.79-12.17.36-13.66-9.67-.5-2.51-10.68-5.37-6.46-11.81h0Z"/>
      <path id="PH-SLE" class="cls-6" d="m1482.13,1379.24l7.7,5.91-4.97,5.73,4.97,7.88-2.24,5.91,6.46,5.73,4.47-1.25,3.23,3.04,1.74,9.49-2.48,5.19-6.21,1.61-15.9-3.94,1.24,13.6-1.99,1.43,6.21,3.76,8.69.72,5.71,11.46,6.46,6.27-1.74,3.22,4.72,4.65-.99,2.51-6.46.18-1.49-4.48-4.47-1.97-6.71-9.85-9.19-3.22-3.23-6.62.99-8.59-6.95-5.19-10.43-19.87-2.98-1.61-7.2.9,3.23,15.57-1.74,5.37,8.45,16.47.75,10.92-16.64-10.02-5.71-1.07-2.73-4.12-20.12-1.61-3.73-3.22.5-4.48h0l2.98.9,12.92-8.95,9.44-1.43-1.24-18.44,8.45-15.75h20.37l17.88-12.71h0Z"/>
    </g>
    <g id="R-VII">
      <path id="PH-BOH" class="cls-17" d="m1245.67,1508.13l6.21,2.33-.5,2.86-12.67,6.98-8.45.72-.99-3.94-5.22-1.61,21.61-7.34h0Zm-11.18-32.22l2.98.54-4.97,3.22-1.24-3.76h3.23Zm8.69-2.86l6.95.54-4.72,2.86-4.97-2.86,2.73-.54Zm143.07-31.86l-4.97,5.55,2.48-.36.25,3.4-7.95-.54-1.49,4.83h-3.23l-1.49-3.4,2.24-2.69-2.48.54v-2.69l4.97.54.5-2.51,3.73,2.86.99-3.76,1.99-.9,4.47-.89h0Zm-58.87-2.69l8.94,4.48.25,3.22,4.97-5.19,4.22,3.04.5,3.22,3.97.54,11.67,6.09,4.47-2.69,7.7,4.65,2.73,5.91-2.98.72,1.74,7.88-3.23.9,6.95,1.43-2.98,5.19-8.2,3.04,14.9,5.91-1.24,6.8-3.48,2.86-9.19,1.43-4.22-5.19-2.24.18-6.71,5.19-6.95,1.61-1.74,7.52-25.58,7.16-12.92-1.61-23.1,2.69-37.01-6.27-1.74-4.12,4.72-6.62-1.24-.9-4.47-2.33-9.19.36-.5-7.16,3.73-5.19-3.48-1.79.25-2.15,4.97,1.07-.99,1.79,4.72-2.69.75-3.04,5.71-1.61-.99-1.97,2.48-2.33,1.99,2.15,12.42-5.91,11.92-1.43,2.98-2.86,3.48-10.56,6.71.18,9.69-11.46,22.6-.18,2.24-1.97h0Zm-19.13-.54l1.49.9-2.48,2.33-3.48-1.25,4.47-1.97h0Zm13.66-3.94l-4.47,3.76h-5.22l-1.49-1.25,11.18-2.51Zm-16.15-.54l2.73,1.97-6.21.9,3.48-2.86Z"/>
      <path id="PH-CEB" class="cls-17" d="m1288.14,1423.46l-3.23,6.62-2.24-.54-1.49-1.61,6.95-4.48Zm-15.15-6.27l3.48,2.86,6.95-2.69-11.18,9.85-2.73-.18-4.47,2.15-1.74-1.79,4.47-2.33-.75-1.07-1.74-.18-2.48,1.07,1.24-3.94,8.94-3.76h0Zm81.22-50.48l12.67,5.01.99,3.22-12.92,3.76-7.45-.18-2.98-2.15-.5,2.69-12.42,5.01-6.71-.54,5.22-7.16,1.99-8.59,10.43,2.51,1.74,5.37,4.97-7.52,4.97-1.43h0Zm22.6-12.89l-3.23,7.34-8.2,3.94-.5-3.94,6.21-5.37,5.71-1.97h0Zm-90.66-61.4l-.99,2.51,2.48.72-5.96,6.44-.5,7.7-9.44,9.85,2.48.36.25,2.51,7.95-.36.5,10.38-2.48,6.27,4.47,6.27-4.22,5.73-.5,7.52-4.47,3.4,5.22,23.09-2.73-.72,1.24,4.48,1.49-1.25.5,1.43-.75,7.16-6.21,11.1,4.22,3.94-8.45,5.01-1.49,2.33-14.65,5.19-3.73,5.37-17.64,3.04-1.74,3.94-12.67,9.13-.75,5.55-7.2.18-4.72,11.64,1.74,6.09-3.23,5.01.25,4.65-6.21,2.15-2.48,5.37-4.22,1.79.25,5.91-4.97,3.58v4.65l-7.7,16.47-20.62,19.51-9.19.9-.75-11.1,8.45-37.59,4.97-4.12v-6.8l3.73.18,1.99-4.83-1.49-4.12-4.97-1.43.5-5.55,2.48-1.25,1.24,3.94,2.48-1.07,2.24-9.85,5.96-1.61.5-2.33,12.17-9.31,1.74-5.55,9.94-9.13-.25-8.59,15.65-11.1,1.49-5.55,6.95-5.55-1.74-6.09,7.2-8.23-.5-3.58,10.68-11.64,5.71-1.79,6.21-12.71,2.48-6.09,9.44-15.39v-2.33l-1.99,1.07-3.73-4.12,5.71-4.12.25-5.55,5.71,3.04-3.97-13.6,8.45-5.73,1.49-5.55,10.43-1.25Zm-59.86-2.86l3.73,2.15,3.23,9.85,7.2,5.73-.25,1.97-15.65,1.79,1.99-3.58h-2.73l-5.22-8.41,7.7-9.49h0Z"/>
      <path id="PH-NER" class="cls-17" d="m1025.1,1537.66l6.21-10.56,16.15-11.64,45.95-42.25,5.22-13.25,16.89-20.23,15.65-13.6-12.92-18.8,22.11-.36,15.15,4.12h0l-.75,13.78-8.2,12.35-.75,7.34-9.69,16.47-8.2,6.62-.99,4.12-4.72,2.51v6.62l-3.48,1.97,5.22,17.36-.99,9.67-5.71-2.86-3.23,3.4,2.98,3.94,6.21.54,1.24,2.51-2.48,1.97.25-2.15-2.73-.9-3.23,4.83,6.21.18,5.46,8.95,7.95,1.97,5.71,11.1,6.95,3.76,2.48,4.3-4.97,14.5-14.9,15.22-9.19,2.51-4.47,3.94-2.73-1.07-6.71-1.61-10.68,3.76-13.41-4.83-11.43-19.69-2.48-13.6-12.67-4.48-21.61-2.15-10.68-6.27h0Z"/>
      <path id="PH-SIG" class="cls-17" d="m1203.69,1553.41l5.22.72,4.97,7.7,4.47,1.79-5.46,4.3,8.2,5.91-3.73,3.22-7.2-.72-3.23,3.04-6.21,1.07-5.22-.9-19.37-12.17,3.23-4.12,5.46,1.43,10.68-1.61,5.96-3.22,2.24-6.44Z"/>
    </g>
    <g id="R-VI">
      <path id="PH-AKL" class="cls-10" d="m906.87,1205.25l21.86,13.25,14.9,1.61,6.21,2.51,4.47-.9,2.98,3.58,3.48-1.07,9.19,8.06,5.71-.18,4.22-.18-1.49,3.58,4.97-1.97,6.21,7.7,13.91,8.23-2.48,1.43-12.17-8.77-4.97,1.43,5.71,3.58.25,4.12,3.97.54.99-2.69,2.24,3.76-3.23.18,1.49,3.04,5.22.18,2.73-5.37,7.7,2.15,4.97,1.61-4.97,1.25,6.71.9h0v2.15l-11.67,7.16-20.86.18-4.47,5.91-3.73-.72-3.48,7.34-5.22,4.12-4.97,2.86-13.41,2.69h0l-3.23-3.94,1.49-5.73-3.97-1.61-.5-5.55-5.46-4.3,3.48-7.88-2.48-3.22,1.74-5.01-1.49-6.44,6.71-9.85-2.98-5.19-31.55-9.31-9.69.9-7.95,5.55-8.2,2.33h0l6.71-6.98.75-11.1,10.93-2.33,2.73-3.58h0Zm-6.46-8.23l1.24,4.48,3.48,1.43-1.24,1.97-6.46-6.44,2.98-1.43h0Z"/>
      <path id="PH-ANT" class="cls-10" d="m886.25,1228.52l8.2-2.33,7.95-5.55,9.69-.9,31.55,9.31,2.98,5.19-6.71,9.85,1.49,6.44-1.74,5.01,2.48,3.22-3.48,7.88,5.46,4.3.5,5.55,3.97,1.61-1.49,5.73,3.23,3.94h0l.25,12.89,1.49-.72.99,6.27,4.22,4.3h0l14.65,14.68-1.24,9.31,1.99,3.04-5.22.9-2.73,4.65-3.23-.36-10.93,8.06-4.72,10.38-18.38,8.77-7.2,8.77-2.24,6.44-1.99,10.56.5,2.51,2.98.9h0l-12.42,8.06-8.94-5.37.5-7.7,7.95-6.09,3.73-15.39-2.24-6.44-7.7-6.27,4.97-6.09,6.21-15.93,12.67-13.43-3.73-20.94,3.48-4.65-.25-5.01-4.47-5.01,5.71-5.55-.99-16.47,3.97-1.43,1.99-3.04-1.24-5.37,4.22-13.78-.5-7.88-6.46-4.83-3.48,1.43-22.85-4.65-5.96,1.43-7.45-.18h0Zm-73.77-13.96l14.16.72,3.23,2.15-2.73,2.51-14.16-2.15-3.97,1.07,3.48-4.3h0Zm21.61-12.35l4.22,3.22.99,3.94-5.46,1.97-2.48-1.61-.5-6.09,3.23-1.43h0Zm-36.26-20.76l5.96.72,4.22,9.49,3.23,1.43-6.95,6.27-5.96-9.31,4.72-2.15-6.71-2.33,1.49-4.12Z"/>
      <path id="PH-CAP" class="cls-10" d="m1043.48,1248.39l13.91.54.25,1.79,5.96-1.97.5,1.97,4.97,3.76,1.49,1.61-1.74,2.86,1.99-.72,1.99-.72,9.44,3.76-2.73,1.79-1.24.54-4.72,1.43,1.49,2.69-5.22,1.79,6.21,4.12,1.49-1.61,1.99-2.33.75-4.12,2.98.9,1.24-.54,8.45-.54,19.37-8.06h0l-8.69,12.53v6.98l-6.21,2.15-6.95-.36-7.45,3.04,1.99,7.16-10.43,3.58v5.37l-2.73-.54-3.97,6.44-12.67,1.25.25-5.01-3.73-1.25-20.12,2.15-4.47-3.22,3.97-3.76-2.73-.36-7.45,5.91-2.98-1.25.25-2.33-3.23,1.61-2.24,4.65-9.69,3.22-7.45-1.97-11.18.36-12.42-4.65-14.9,11.46h0l-4.22-4.3-.99-6.27-1.49.72-.25-12.89h0l13.41-2.69,4.97-2.86,5.22-4.12,3.48-7.34,3.73.72,4.47-5.91,20.86-.18,11.67-7.16v-2.15l2.48,2.33v1.97h6.71l5.22-2.51-3.97-1.25,2.73-3.58,1.74,4.3,1.99-.18,2.48-.54-.99-2.51,7.95-1.97-1.49-2.33-1.49-1.43h2.24Z"/>
      <path id="PH-GUI" class="cls-10" d="m1041.74,1398.75l3.97,2.86-7.95,1.25.5-3.22,3.48-.9Zm-8.2-36.88l9.69,5.01,1.49,3.04.99,10.02-7.7,11.28-.5,4.12-3.23,3.76h-3.48l.25,2.69-3.48,2.15-8.45.72-6.95,2.86-4.97.18-.99-5.91-6.21-3.94,1.49-3.4,7.2-1.25v-3.22l-2.24-5.37,9.44-8.06-.25-3.04,3.48.72,5.22-2.15.99-5.55,8.2-4.65h0Z"/>
      <path id="PH-ILI" class="cls-10" d="m1120.98,1308.89l1.24,1.61-6.71,5.55-1.49-4.83,6.95-2.33Zm3.97-8.77l3.97.18-3.23,3.58-2.73-2.33,1.99-1.43Zm-.5-11.99l5.22,2.51-7.95,5.91.5-7.34,2.24-1.07Zm16.89-19.69l3.23,1.97-4.72,3.04-1.49-4.3.99-1.43,1.99.72h0Zm-4.22-.54l-5.22.54-2.73-2.15,1.49-3.4,3.48-.9,1.49,1.79,1.49,4.12h0Zm-6.95-10.02l-.99,3.76-6.46,2.69,1.74-4.3,5.71-2.15h0Zm-8.69-7.7l2.48,4.83-4.47,7.16-2.98-2.69-1.24,1.61-3.23-.54,2.98,3.22,4.97.54-2.24,1.97,4.47-1.43,2.24,2.33-6.71,7.16,4.22,3.04-1.74,3.58-2.73.54,1.24,2.33-6.21,1.79,1.74,4.3-2.73,9.13,5.71,3.94-.75,4.48-2.98,1.25-7.45-4.12.99,2.33h-6.71l-3.73,9.85-5.96,4.48-.5-1.43-3.97.54,2.24,2.15-1.99,2.15-2.98.18,1.24-3.22-3.48-1.25-3.23,6.09-6.21-1.43-3.73,1.79v3.58l-3.73-1.43-8.69,1.97-3.97,5.37,5.46,6.8-1.99.54.99,4.65-4.47,1.25.75,3.04-6.46,5.37-10.18-1.79-1.24,2.33-9.69.54-3.73,3.76,2.24,2.51-3.48,5.19-22.35-.18-33.04,3.94-5.22,3.04-6.71-.54-11.67,7.16-9.44,1.61-3.23,6.44-8.69,7.7h0l-2.98-.9-.5-2.51,1.99-10.56,2.24-6.44,7.2-8.77,18.38-8.77,4.72-10.38,10.93-8.06,3.23.36,2.73-4.65,5.22-.9-1.99-3.04,1.24-9.31-14.65-14.68h0l14.9-11.46,12.42,4.65,11.18-.36,7.45,1.97,9.69-3.22,2.24-4.65,3.23-1.61-.25,2.33,2.98,1.25,7.45-5.91,2.73.36-3.97,3.76,4.47,3.22,20.12-2.15,3.73,1.25-.25,5.01,12.67-1.25,3.97-6.44,2.73.54v-5.37l10.43-3.58-1.99-7.16,7.45-3.04,6.95.36,6.21-2.15v-6.98l8.69-12.53h0l8.94-7.7h0Zm37.51.54l-3.97,2.86-2.48-1.43,1.49-1.79,4.97.36Zm.5-5.73l-1.99,4.12-1.24-3.58,3.23-.54Z"/>
      <path id="PH-NEC" class="cls-10" d="m1129.92,1328.94l8.94.72,3.73,1.61,9.19,4.83,16.39-.54,10.93,4.48,4.22-2.33,3.97,2.33-3.48,1.43,4.72.9,2.24,8.59,5.96-.9-1.74,3.4,2.24,3.22-4.72,5.91-2.73-1.43.75,2.69-3.97,4.65-3.73,14.32-2.98,6.8-2.48.72.99,2.15-7.45,6.09-11.67,4.48-3.97,7.88h0l-15.15-4.12-22.11.36,12.92,18.8-15.65,13.6-16.89,20.23-5.22,13.25-45.95,42.25-16.15,11.64-6.21,10.56h0l-13.66-9.49-3.48-6.8-6.95-2.86-2.73-7.88-3.97.54,2.48-5.19-4.97-1.43-4.22,1.61-1.74-1.79,4.22-3.58-4.47,1.07-2.98-2.15,3.23-4.83-1.99-5.91,2.24-3.4-4.47-2.69,10.18-8.23,3.48-10.2,9.94-1.43,28.32,1.25,20.62-11.81,8.2.54,7.7-4.3-4.97-17.18.25-9.49,4.22-9.67-12.42-20.05,5.71-3.94,4.97.54,4.72-2.15.25-2.15,6.46-3.76,4.47-9.49.5-5.73,2.98-.9.99-8.23-3.23-1.97-1.24-6.27,2.48-1.97-.75-3.4,15.65-3.76,3.97,2.33,12.17-8.59,4.97-.36,7.95-3.4h0Z"/>
    </g>
    <g id="R-V">
      <path id="PH-ALB" class="cls-8" d="m1298.33,1032.51l13.41,3.22,2.48,4.83-20.12-1.61-8.45-2.69,12.67-3.76Zm-27.57-5.91l1.49,2.69,3.23-3.58,4.72,3.76,2.73-2.69,9.94,2.86-5.96.9.99,1.97-8.69,2.86-5.46-1.25-.25-1.61-7.45.54-6.46-4.12,1.24-1.97-2.48-1.07,11.18.9,1.24-.18h0Zm-22.11-9.85l13.66,3.58-8.2,6.27,4.47,5.55-4.72,1.97-2.24.18-.5-4.12-1.74-.18-3.73-2.51,4.22-5.55-3.97-2.69,2.73-2.51h0Zm-15.9-7.16l7.45,1.79,3.73,3.4h4.47l-2.98,3.4-6.21-2.69-6.46-5.91h0Zm-29.06-14.32l3.48,3.22,9.44,1.79,12.42,20.76,12.17,4.48,3.23,2.86,6.21,3.58-.99,2.15-10.93-1.79-4.97,1.25-3.73,7.88.5,3.22,5.22,4.12-1.74,3.22h-4.47l2.48,1.97-2.24,1.25,9.19,2.33,5.96-4.65.5-3.58,3.23.18,1.24-3.58,2.98-1.07,10.93,3.4h0l-6.46,10.38h-8.45l-16.15,7.34-6.21-5.01-11.43-.36-7.45,2.15-9.94-2.69-16.89,5.55h0l-5.22-4.83-8.2-2.86-15.4,5.37-4.22-6.44-2.73-.18,2.48-3.76-1.24-8.59,3.97-2.51-.99-2.69,4.22-1.25-9.19-8.59h0l20.12-10.56,2.98,1.25v-1.97l5.46-2.15,4.72-1.07,5.22,1.25,16.89-5.01.75-5.91-7.7-8.59,1.99-1.97,8.45-.54h0l.5,1.25h0Z"/>
      <path id="PH-CAN" class="cls-8" d="m1008.71,884.29l15.9,4.12-2.48,1.43,4.22,1.97,1.99.54,2.98,1.07-1.99-1.79,1.99-3.22,2.73,1.97,4.97,2.33-4.47-7.34,3.48-.9,4.97.72,1.49,3.76,4.97-2.15,7.2,2.33-.99,3.4,3.73.36,3.48-.36,6.71,1.97,8.94,6.8-.25.72.25,2.86,4.22.36,9.19,8.95,4.72,1.61,1.74-.18,3.48,1.97.99,4.12-2.48.18-.25,4.12,4.72,5.55,4.97,1.43,2.24,11.99-2.48,2.69-2.73-.36-1.49,5.01h0l-21.11-12.35-26.83-11.28h0l-62.84-17.9-13.91,11.1-11.67-.36-.25-1.97h0l1.74-2.86,5.46-1.61,1.49-.9-.25-2.33-1.99-1.97-.75-5.73,2.48-1.61.5-2.15,5.96,1.43-4.22-4.48,3.73-1.25.99-3.94,4.47.36,1.24-3.94,2.48,1.97,6.95-5.37,2.73,1.61,2.48-1.25,2.24-.9,2.24-.36h0Zm76.01-12.17l6.21,4.12-4.47-.36-5.46-3.4,3.73-.36Zm1.24-7.7l1.74.18-2.48,1.79,1.74,1.25-3.23.54.75,1.97-7.7.54,9.19-6.27h0Z"/>
      <path id="PH-CAS" class="cls-8" d="m1242.69,933.87l3.48.72-1.49,10.74-4.47-7.34,2.48-4.12Zm-31.55-.36l2.98,2.33,1.49-.72,1.24,3.04-9.44,4.83-4.47-.9.5-6.27,2.73,2.86,2.73-3.4,4.22,2.69-1.99-4.48h0Zm-54.65-17.01l3.23,3.76-.75,3.04,3.48,1.79-3.97.36-1.74,3.4,3.73.54,4.22-3.4-.99,3.58,2.73-.36,1.24,1.79-1.99,1.43,3.97.36-1.49,5.37,3.97,2.51,2.48,1.07,2.24-1.97-1.99-.9.5-4.12,9.69,3.94-2.24,3.76,4.97-2.33.75,2.15,3.97.72.25-3.22,5.22,2.15,1.49.36,3.48,2.86,7.45,1.43,3.73-1.43,2.98,2.15,6.21-.72-2.24-1.07,2.73-4.12-1.74-2.86,4.22,3.04,2.24,3.58,3.23,3.94,3.97.54-1.24.89,4.97.54,7.95,4.83,3.73-1.97,5.71,3.94,7.7.18,1.24,5.55,3.73-.18v6.27l-.99-2.33-4.97-1.25-.75,2.15-10.68-2.51-6.71,5.37-6.21,1.25-9.44-3.04-13.66-1.43-2.98,1.97-17.39-3.94,1.74,2.51,2.48-.9-5.96,6.44-2.73,7.34,1.99,2.33,1.24.36-3.73,4.65,2.98,1.97,3.48-1.43,2.98,1.07,2.98,4.12h0l-8.45.54-1.99,1.97,7.7,8.59-.75,5.91-16.89,5.01-5.22-1.25-4.72,1.07-5.46,2.15v1.97l-2.98-1.25-20.12,10.56h0l-6.71-3.76-5.22-7.52-.5-6.62-3.23-5.01-25.34-9.85-2.24.9-5.96-2.86-4.72.18-4.97-3.76-11.18-3.58-9.94-8.41-6.21-1.43h4.72l6.71-5.37-4.72-5.91-11.43-5.55-3.97-1.97-4.22-3.94-4.72.72-3.73-1.79v2.69l-4.72-1.79-2.98-2.51,2.48-1.61-1.99-4.12-11.18-3.04,1.49-2.69-5.46.54,2.48-1.61-3.73-2.15h0l43.96-8.77h0l26.83,11.28,21.11,12.35h0l-2.48,8.06,13.91,6.62,19.87-.54,7.7-2.69,8.2-6.8.75-3.4-7.45-9.31,8.69-5.73,1.49-4.3-2.73,2.51-2.24,3.04-3.23.54-6.21-2.86.99-1.97-5.96-.72-.99-4.12,6.71-1.79-5.71-1.97,9.94-.72-5.71-5.55h3.73l7.45,5.01-1.74-4.48,6.95-.18-3.23-3.04,2.73-1.79h0Zm-7.7-3.22l4.97,2.33-1.74,2.86-4.97-4.48,1.74-.72h0Z"/>
      <path id="PH-CAT" class="cls-8" d="m1335.34,934.41l3.73,3.22-5.46.54-3.23-5.19,2.98.9-.5,1.61.75-3.4,1.74,2.33Zm-22.85-17.18l11.67,11.1,2.48,9.85,5.22,1.25-.99,5.37,2.48-.72.99-4.48,4.47-.9.5,4.48,4.97,1.79.75,2.86,1.24-3.76.5,3.04.99-1.43,1.99,2.69-2.73.9,3.97,1.79-3.97,1.43h2.73l-.99,2.86,2.98,2.33-1.24,1.79-4.47.36,2.98,3.76-2.73.36-1.74,4.48,5.71,6.98-6.95,2.69v-2.51l-2.24.36-4.22,2.51,1.49,5.91-4.47,5.19,3.48,1.07-4.97-.36-.5-4.48-4.97-1.07,1.49-1.61-14.41,5.37-1.24,6.44-6.71-1.97-11.43-8.06-10.93-1.25,2.98-1.97-7.45-6.27,12.92-5.55,7.45-12.17-1.49-11.81,3.73-5.73-3.73-6.8-.5-3.4,2.48-1.61-2.48-6.09,7.95,1.25,6.95-6.27h0Z"/>
      <path id="PH-MAS" class="cls-8" d="m1118.74,1215.27l1.49,1.25-3.73,2.33-.75-2.51,2.98-1.07h0Zm18.63-98.27l25.58,7.88-7.2.36,3.73,7.34-6.71,2.15,1.74,2.51,2.48,1.25,2.48-4.3,4.22.72-3.23-3.58,1.24-1.97,5.46-1.97,7.2.9,16.39,9.13,3.48-1.61,2.73,6.62,7.2,3.76-6.46,3.76,8.45-.9,1.99.18,3.48,2.33,3.48-.9,4.47,2.15,15.9,18.26,1.99-.72-2.24-3.4,3.48-2.33,3.97,1.07,5.71,5.55,3.23-3.76,3.97,1.79,4.22,7.52,24.09,24.52-.75,2.69-6.46-8.06-2.73-.36-.99,3.04,3.73,4.83,2.24-.18,8.2,13.07-2.73,7.7,2.73,9.67-3.73-.72-6.46-7.88-16.89-10.56-2.48.36-7.95-4.83h-.25s-24.59-4.12-24.59-4.12l.99-1.97-2.98-1.25,3.48-3.22,3.48-.36-18.13-8.59-1.49-2.51-7.2-1.07,2.48-2.69-13.91-15.22-6.71-1.79-12.92,3.04-10.93,12.35-5.71,1.97-2.24,3.04-1.74-.72-3.23,6.98-24.84,15.39-3.23-3.4,9.69-11.64-.99-2.51,2.73-2.69,2.24-9.67,3.97-.72,7.45-3.22-2.24-4.65,2.73-2.15-3.97-4.3-5.96,3.76-2.24-2.69,3.23-.36-2.24-3.76,7.95-8.77-1.24-5.73,2.73-1.25,2.48-4.48-2.24-.9,2.48-1.61-6.95-2.33-2.24-19.33h0Zm70.05-12.17l5.46,5.91,9.94,3.4-2.24,1.07,1.24.54h3.97l1.74,3.76.25,1.79,2.24,4.3.5.9,3.23,4.83.75,10.56,3.23.9-1.24,4.83,2.73.18-2.24,4.3-11.18-8.59-7.7-8.06.25-2.51-9.44-8.06-4.22-8.41-2.24.9-3.73-4.12.5-2.86,1.74,2.69,1.99-1.61,2.24,1.25-3.23-5.37,5.46-2.51h0Zm-113.51-61.94l2.98,2.86,5.96.36,24.84,29.54,9.94.54,6.71,2.69,2.24,9.67,17.39,16.65-4.47-.36-4.47-3.4-13.16-14.68-11.43-1.25-5.22-5.73-5.71-1.07,1.49-1.79-7.2-2.51-3.23-5.19-2.48.9-2.48-5.55-14.16-1.07-3.73-4.3-3.48,1.79v-5.37l2.48-2.51-5.71-3.94,7.2-2.15,5.71-4.12h0Z"/>
      <path id="PH-SOR" class="cls-8" d="m1265.79,1049.87l4.22-.36,8.94,7.52,7.7,2.51,3.48,4.12,4.22-7.7,4.47-1.97,9.94,1.07,1.74,1.61-.25,2.51-1.24.72,1.74,1.61-4.47,1.97-1.24-3.04-1.74,1.07-2.73,11.28-4.72,3.22,1.74,2.33,3.73-.54,1.49,11.46-4.47,10.38.75,8.23-7.45,4.65,2.73,5.55-4.47,1.61,2.48,2.15-3.23,3.94-16.39-1.07-9.44-7.34-.25-3.58-3.23,1.25-1.49-2.86-6.21-2.15-8.2-22.91.99-1.25,4.97-3.04-.99-1.97,13.66,4.12,2.48-4.12,6.71-.54,1.74,2.15,3.97-1.79,4.47-6.98-3.48-5.73-9.94,2.33-4.97-.36-3.48-2.86-5.71-.18-.5,3.76v1.43l-3.97,2.15-.75,3.04-3.23-.9-1.49,3.76-2.24-1.97-3.73,3.76-5.96-3.22-.25,3.04-4.97,2.51-.99-3.4,2.98-1.43-1.99-1.97-4.72,1.79-.25.72-2.48,1.79-3.73-5.91,1.74.72.75-1.61-.75-.9-6.21,3.4,2.48,1.07-1.74,2.51-11.43-4.48-5.71-5.37-3.48-.54-1.49,1.61-8.69-6.8h0l16.89-5.55,9.94,2.69,7.45-2.15,11.43.36,6.21,5.01,16.15-7.34h8.45l6.46-10.38h0l1.24,1.79h0Z"/>
    </g>
    <path id="PH-NCR" class="cls-5" d="m719.08,837.75l1.99-1.43,3.23,2.86,2.24-.9-3.97-5.73,2.24-.72,3.48,1.07.75,2.51,3.48-.36,2.48-4.3h0l.75-.54h0l5.96-1.07.75-2.86,2.73-.54,2.48,2.33,7.2.54h0v2.51l2.98.18-4.97,8.41,4.97,2.33-.75,3.04-4.72,1.07,1.49,4.83-2.98,3.04,2.24,5.01h0l-7.95,4.83-.99,15.57-7.7,3.76h0v-4.12l-7.95-8.77.25-3.76h0l3.48-3.58-2.73-.9,1.99-1.07v-5.91l-7.45-4.65.99-2.51,1.99,1.61.5-5.01-1.99.36-6.46-7.16h0Z"/>
    <g id="R-MIMAROPA">
      <path id="PH-MAD" class="cls-12" d="m890.97,987.93l.75,2.33,2.73-.72.99,2.86,3.73,1.43,2.48-2.33,6.71,1.61,5.71,1.25,1.99-3.58,4.22,2.69-1.74,2.15,4.47.18,1.74,3.58-2.48.36,5.71,1.07,1.99-1.79,7.45,4.65-1.74,3.94-2.73-1.25-.25,1.61,8.94,6.8-18.63,12.53,1.24,4.83-4.47,5.55-8.45-1.07-5.71-5.37-15.4-4.83-8.2-8.06.75-7.7-2.48-5.91,9.19-11.28-1.49-1.25,1.99-1.25-1.49-1.97,2.48-1.07h0Z"/>
      <path id="PH-MDC" class="cls-12" d="m736.72,1165.69l3.97,5.01-5.22-.54-.99-2.51,2.24-1.97Zm9.94-8.41l6.21,8.41-1.24,5.73,3.23-1.07,3.73,4.48-2.98,1.79-5.96-2.86-2.24-5.19-6.71-1.61.99-8.59,4.97-1.07h0Zm-116.25-163.43l9.44,2.86,14.9-.54,10.18,2.69,9.94-.54,14.65,3.76,25.09-4.65h0l-1.49,11.64-15.65,17.72,33.53,11.64,25.34,11.64,21.36,5.73.75,54.78-2.73,33.47,1.99,25.24h0l-6.21-3.94-9.19-.72h-8.45l.25-2.86-3.48-3.04,2.73-1.43,3.73,1.79-.99-3.4-2.73-5.91-3.48-.9-2.98,2.15-5.71-1.79-20.86-19.33-.99-4.83,3.48-5.01-1.74-4.3-11.43-10.2-1.49-3.58-11.92-2.15-1.24-11.81-4.22-2.33,5.71-8.95-3.23-3.4-1.49-4.83-.25-1.43-5.46-10.56-15.15-17.54-7.95-1.43-6.71-3.94-8.69.72.25-5.55h-3.48l-3.97-3.58.99-3.4-3.73-7.52,1.24-3.04-2.24-2.33-4.72-1.61-7.95,2.15.75,3.22-2.48,1.43-6.71-.9-6.46-5.19-1.99-3.4,4.97-5.91,6.71-3.22,11.67-1.61h0Zm-21.36-20.76l13.66,3.76,5.22-.18,1.99,3.76-6.46-.72-14.41-6.62h0Zm-2.73-20.59l8.2,3.94-.5,2.33-3.97,1.97-9.19-4.3,3.97-.9,1.49-3.04h0Zm-35.77-3.94l8.2,1.25,11.67,6.09,3.73-1.43,11.92,11.64-4.72-.18-1.99,2.15,3.73,2.15,2.98-.9,1.24,3.22-3.23-.18-1.99,2.15-2.48-4.3-5.71-.9-3.48-3.22-5.22-.36-13.41-6.44-.99-6.8-3.23-1.79,2.98-2.15h0Zm-10.43-4.65l4.22,2.86-1.99,1.61-5.46-2.51,3.23-1.97h0Z"/>
      <path id="PH-MDR" class="cls-12" d="m729.76,1001.54l14.9,8.41,5.96-1.43,2.48-.36,5.96,1.07,8.2-.9,3.23-2.69,11.67,10.92.5-1.43,6.71,2.69,13.66,14.14,6.21-.36,4.97,1.97.25,11.1,4.72,1.25,7.2-2.15,8.69,4.3v4.12l-9.44,4.65-3.23,4.83,2.24,10.56-2.98,4.65,1.99,7.34-3.23,9.85,13.16,13.96-.5,1.79.25,3.22-3.73,4.83-.25.72-3.73,5.73-7.7,3.94-4.47.18,1.24,5.37-6.46,4.3.5,6.27,7.2,5.01-12.42-.36,2.48,10.02-2.48-1.07-2.73-.54-.25-3.76-3.73.18-2.24,4.12-10.18,1.25-6.21,10.02h0l-1.99-25.24,2.73-33.47-.75-54.78-21.36-5.73-25.34-11.64-33.53-11.64,15.65-17.72,1.49-11.64h0l3.97-1.79,5.22,1.25,1.99.18,3.48,4.48h0Z"/>
      <path id="PH-PLW" class="cls-12" d="m26.08,1714.34l.99,7.34v1.97l-.5,1.79,1.99,11.1-3.23,1.07,1.99,2.15-3.23,5.01-6.21,3.94-.25.72-2.48.54-3.48-1.43,1.24-4.65-2.98-.36-4.97-8.06-3.73-.18-1.24-2.86,2.98.9,3.97-2.69-2.98-6.27,2.98-7.34.25,5.01,6.46-3.4-1.24-2.86,13.66-1.43Zm-7.95-7.34l3.97,1.61,2.24,4.3-8.45,1.79-1.24-2.69-3.48-.9,6.95-4.12h0Zm20.12-6.44l8.69.18,2.98,3.22-10.18.36-2.98-2.86,1.49-.9Zm-9.19-8.95l4.47.9,2.24,3.4-7.7-.18.99-4.12h0Zm41.98-10.02l5.22,4.48-.99,10.56-9.44,4.12-5.46-3.94.99-12.35,1.99-2.51c-.25-.18,7.7-.36,7.7-.36Zm-16.64,1.79l4.97-.36-.25,3.4-6.71,3.4-7.95.9-2.48-3.94,5.46-.54,6.95-6.27v3.4Zm348.49-299.48l-.25,1.97,2.48-1.25-3.97,1.79-2.24,2.33-3.97.18,2.98-2.86-2.73-2.15h7.7Zm119.97-8.41l5.96,3.94,1.24-1.79,6.46,4.83,14.16-.18,3.73,4.65-3.23,1.97-1.49-2.51-1.49,3.04,2.24,1.97-6.46,1.61-.5-2.33-2.48,4.12-3.73-1.61-.99-3.94-3.48-.54,6.95,8.77-1.99,1.25-10.18-1.43,3.23,3.04-12.42,2.69-7.7-3.04.5-8.41-2.73,1.25.25-4.48,2.48-1.61,5.22,2.51,1.99-5.01,5.46-3.76-.99-5.01h0Zm224.05-34.01l1.74,1.79-3.48,2.33,3.73,2.69-3.97,2.15,1.24,4.12-7.7,1.25-4.22-4.12.99-3.4,7.45-2.15.99-4.12,3.23-.54h0Zm-320.67-15.22l2.48.9-2.98,4.3,1.99,3.22-1.49,1.43-5.46-4.48,1.24-4.83,2.73.9,1.49-1.43h0Zm75.01-4.65l2.98,3.76-4.47.18,1.49-3.94Zm-3.73-1.97l1.74,1.07-3.97,4.65-.75-3.4,2.98-2.33Zm-18.63-3.58l.99,1.61,6.46.36-1.24,3.22,4.47,4.65-1.74,3.94-.75-3.76-3.48,2.33-2.24-3.76-6.71-1.25,4.22-7.34h0Zm18.63-3.22l1.99,4.12-3.73,2.33,1.24-2.51-2.98-3.4,3.48-.54h0Zm233.24-6.44l1.24,2.51-3.97,2.69-3.73-.18-1.24-2.51,7.7-2.51Zm-248.14-2.51l4.22.72-.5,3.22-3.48,1.43-1.74-1.43-.25,2.69-5.71.36-1.24-4.65,5.96-.18.5-2.33,2.24.18h0Zm16.15-17.01l-3.23,7.7-3.97-4.83,7.2-2.86h0Zm-39-13.6l4.72,1.25.99,10.92,4.72,1.43,2.98-2.51,2.73,6.44-5.46,15.57-6.71,5.55,6.46,8.41,4.22-1.97-1.74,3.04,3.48,7.16-1.49,1.43-4.47-2.33-6.21.72-3.48,17.54,4.47,1.79.25,4.3,4.22,2.15,7.2-3.4,4.47,2.15-.25,1.79-3.48-.54,2.73,1.79-3.23,1.97,3.23,1.79-1.49,3.4,2.48,2.69-5.46,8.06h7.45l4.47-3.58,3.97,2.33-1.49,1.25,3.48,1.25-8.2-.36,2.98,3.22-2.48,1.79,5.22,1.79,2.73,8.41,5.96.18-1.99,1.97,2.73-.54,1.49,3.22-7.2,1.97-7.95,6.62-8.45,2.69-2.73,6.62-10.68,1.61-9.69-1.79-5.22,3.04-9.94.9-3.73,4.12-5.22.36-14.41,14.5-4.47,16.29-3.73,3.94-40.24,8.41-13.16,1.25.25-1.97-8.69,2.33-5.46,4.3h-8.94l-3.97,1.43-1.74,11.64,5.96,5.73-.75,9.85-6.95-1.25,1.24-3.04-2.48-4.48-1.74,2.33-3.23-.9-1.24,1.79.75,6.8,6.21.54.25,1.07.99,2.51,4.72-.9-.25,2.69-4.47,2.15-.75,1.79-9.44,9.13-4.97,1.97-2.48,6.09h-2.98l-10.18,10.92-.5.9-4.72,3.4.5,3.94-9.44,6.8v1.97l-3.97-1.07-4.22,3.4-1.99-.54-1.74,4.48-4.47.36-9.44,8.41-8.94-.54-13.16,3.22-2.24-1.61-10.93,4.48-4.47-1.43-3.48,5.55-.5,6.62-5.96.72,2.98,2.15-.75,2.15-3.97.72,1.49,1.79h-1.99l-7.2,11.81h-2.73l.5,3.22-20.86,6.8-8.45,7.7-5.71.54-4.97,6.8-6.95,3.58-8.94.18-12.42,3.76-10.43-2.15-5.46,4.12,1.99,6.09-8.45,12.53-2.48.9-5.46-3.58-2.98,2.69-1.24.9h-10.43l-.75,2.51-19.13,8.95-4.72,5.19-5.22.9,1.99,1.43-1.99,2.15-4.97.18-.5-4.83,6.71-8.06.5-11.99,3.97-2.33-.5-3.58,4.97-1.61-1.99-3.94,3.23.9,4.22-7.16,6.95-2.33,1.74-3.22-3.73.36,6.71-6.27,11.67-1.79-.99-3.58,6.71-3.4,1.99-5.73,2.98-.72,8.2-9.67h2.48l.99-3.4,6.46-.54,6.95-5.01,1.49-6.27,6.21-3.58,3.97.18.75-2.15,1.74,3.4,8.2-.54,2.24-7.34,3.73-2.51-.75-2.69,6.46-4.48,2.73,1.25,4.22-3.4,2.24.72,7.95-6.8,8.45,1.25,5.22-3.76.5,4.65,6.46.18.75-2.86,4.47-1.79.5-2.86,3.23.18,3.23-2.33v-2.33l6.95-1.25-1.99-4.12,1.99-3.04,10.43-1.79,2.24-8.06,7.2-2.86,10.93-9.31,5.46-2.33,1.99-8.95,2.98-1.07,3.23,1.61,5.71-2.33,2.48-5.55,16.39-7.34,10.43-11.1,6.71-3.4,1.74-2.86-1.74-3.04,7.2-2.51-.25-3.4,3.48-1.97-3.48-3.76,2.73.72,7.95-5.19,3.48.36.75-4.48,3.48-1.79,2.98-6.44,2.24,8.41.25,1.43v4.65l3.48.18,2.73-.9.25-5.19,5.22-4.83-5.71-1.43-.25-10.02,5.96.72,4.72-3.04,5.46,1.79,7.95-1.61,2.24-5.73-2.73-1.61,4.47-.72-5.22-2.51,1.99-1.43,3.97,1.97.99-3.4,3.23,1.25,2.73-1.43-1.74-1.25,2.24-2.86,3.73.54-1.99-4.65-7.2,3.94-1.74-3.22,4.72-2.69-.99-2.15,4.72.36,2.24-1.61,6.95,3.76,2.24-2.86-2.24-1.79,4.97.54,2.48-2.15-3.23-1.25-2.24-1.07.5-1.61.99-2.33,1.74,1.25.99-1.97h2.98l1.24,1.61-2.98,1.79,3.48,1.79-1.99,4.65,4.72,3.94.5-2.33,6.21-1.61,7.2-9.13,7.2-.36,2.24-3.94-7.7-4.65,6.71,1.25,9.44-6.98,4.47-19.15-6.71-5.19-5.71,1.25-2.24-8.77-9.69-2.33.5-1.61,6.21.18-.75-1.61.5-1.97,2.73.18-3.48-3.04-4.72.36,3.23-3.76-3.23-.72.99-1.97,3.97.54.25,5.37,2.48-.72-1.49-2.15,2.73-1.97,3.48,1.61-1.74,1.61,3.23,1.79-2.98,2.33,3.73.18-5.96,2.69h7.7l-4.47,3.04,5.22,2.33.99-2.33,2.73,4.83,2.24-2.15,2.24.72-1.99,2.86,7.45.9,3.23,2.69-1.24,2.33,3.48-1.43,2.73,6.27,5.71-.72-5.22-9.85-.25-4.12,3.23.36.5-1.97-6.71-1.61-.5-1.97-7.45,1.79-1.49-1.97-2.73.18v-3.04l-2.73.18,4.97-5.73-2.24-1.43-3.97,1.79-3.23-1.25.5-1.25-1.74-7.16,2.98-3.58,3.73,5.37,5.96-1.43-8.2-4.3,2.98-2.33h-3.73l.5-6.62,2.73,2.86,2.48-.54-1.24,1.97,4.47,3.94,7.95.9-.5-9.67,2.24-3.94-2.98-.9-1.74,1.79-.75-4.65,3.73-5.55-1.24-13.43,2.73-.72.99-3.76,3.48,1.79,3.97-4.12,1.49-8.59h0Zm60.61-12.71l8.69,1.25,1.49,2.33-.25,5.37-6.71,9.67-2.24.36-3.23-3.22,4.22-1.79-.25-1.97-3.23,1.61-3.48-1.25-2.24,4.12-2.98-3.58-5.46-1.43,1.24-2.69-3.97-1.43,2.98-1.97-.25,1.79,7.7,3.76-.5-2.69h3.48l-3.97-2.51,2.48-.36v-1.97l4.47,5.37,2.24-.36-.99-2.33,4.72,1.97-1.99-3.4,4.22-.36-6.21-4.3h0Zm59.36-32.4l5.96.18.5,2.33-7.2-.72.75-1.79Zm5.96-2.33l3.23,1.07.5,3.22-5.46-4.12,1.74-.18h0Zm-48.68-25.78l3.73,2.69,8.69,1.25-5.46.72,1.99,3.58-1.99.54,3.23.72-.25-3.04,2.98,1.25,2.73-2.15,5.46.54.75,2.15-7.2,2.33,6.46.54,3.23,3.94,1.24-1.61,4.72,1.79-9.69,2.51,5.46.36-3.97,1.97v2.51l2.24-1.07,5.46,3.4-6.95,4.12,4.22.18-1.49,5.01-12.42,6.8-1.99.18-2.24.9-2.48-.36,1.74-1.43-2.24-.72-.25-7.16,2.73-1.43,8.94-5.91-3.23.36-2.24-.72-1.74-1.25-.25,4.83-5.96.54-4.22-4.3-2.48-5.01,3.73-1.79-8.2-6.8.25-4.3-4.47-2.51,1.24-1.07,6.71,4.12.5-2.69-3.48-1.25-.25-2.33,6.71-.89h0Zm61.6-1.07l4.22,1.97.99,4.48-5.22,3.76,7.2.18.99,2.86-.25,1.79-6.46,1.97-1.74,1.07-10.18-11.81,10.43-6.26h0Zm-63.34-45.65l5.22,1.25-.5,2.69,2.73,1.97-1.74,1.61,15.15,2.15,5.96,3.58,2.73,5.01,6.71-1.43-.25,3.22,11.67,7.34,4.22.36.25-2.69,4.47.72-1.49-3.76,2.48-4.83-2.73-3.04,2.48-.9.99,3.76,3.48-.18.5,8.95,2.24.9,2.73-2.51,1.99,3.94,2.73-.54.99,2.69,4.47.9,1.49,4.83-2.98,2.33,2.73,3.22-.75,2.69-3.23-1.07-3.48,2.51-8.45-3.22-4.97,3.22-8.45-3.4-1.49-2.69-2.48,1.07-4.47-1.43-1.49,1.79,2.48,2.15-1.99,1.61-1.24,1.61-3.48,2.51-3.48-3.4,1.49-1.61-5.96-2.69-1.24,3.04-4.72.9-1.24-2.33-6.46-.36-.99-1.97-.75-5.37-2.98,1.07-2.73-2.33-.75-1.79-.25-6.44-5.46-3.58-.75-5.19-2.73-.18-4.97,7.34-.75-3.76,4.72-6.27-2.98-1.43v-2.33l1.49-2.15,2.24-2.69-2.73-2.69,6.71-2.69h0Z"/>
      <path id="PH-ROM" class="cls-12" d="m902.89,1183.95l4.47,4.12-1.24,4.65-7.95-4.12.75-2.86,3.97-1.79Zm110.04-54.24l19.62,2.86,7.95,10.92-2.98,9.67-8.69,6.09v2.15l-4.47-3.76-8.69-2.15-3.73-6.44-16.39-4.83-4.47-4.83.75-3.04,5.96-4.12,15.15-2.51h0Zm-47.19-15.93l2.24.9,1.74,7.88,3.73,2.51.25,4.65-4.72,3.76-5.46-1.61-3.97-5.37,2.24-1.61-3.23-3.94,4.22-.54,2.98-6.62h0Zm-30.3-6.44l6.95,1.97,1.49,3.76-5.96-.36-1.24,2.15,3.23,4.83v5.73l-4.97,5.37-4.22,24.7-8.45,11.28.5,4.83,2.24-.72,2.48,2.33-1.74,1.25-2.48-1.25-3.97,3.22-1.74,7.7-5.71-5.73,1.24-2.51-4.47.54-1.49-4.3,1.74-6.62,1.24,5.37,2.48,1.07,5.22-5.91-6.71-3.94-2.48.9v-2.51l-3.23-.18-.99-2.69-2.98,1.43-.99-4.12,2.98-2.15-1.99-1.43,2.48-6.27,8.2-2.15,3.23-4.65,1.74-6.62-4.22-10.2,1.74-3.58,6.95-3.22,6.46-.18,7.7-4.48-.25-2.68h0Zm-5.46-21.66l-4.47,7.16-5.46-.36v-2.15l9.94-4.65Zm-68.8-14.86l5.71,2.69-3.73,4.48-6.46-4.48,4.47-2.69Zm68.06-1.79l3.23.72-1.74,5.19-5.71,1.61-.99-4.3-3.48-1.79,8.69-1.43h0Z"/>
    </g>
    <g id="R-IV-A">
      <path id="PH-BTG" class="cls-9" d="m749.39,987.58l2.48,5.19-3.48,1.07-6.95-6.09,3.48,1.07,4.47-1.25Zm-45.95-15.39l5.22,3.22,12.42.9,3.48,2.51-7.45,1.97-5.71-1.25-5.71-2.15-2.24-5.19h0Zm-42.23-72.5l4.72,1.25h0l10.93,2.51-1.74,3.22,6.21,4.83,10.68.36,13.16,6.62,1.24,3.76,7.2-3.22,2.73,1.07,10.18-1.97,16.89-6.98-1.49-1.25h0l11.67-.36,15.65,3.22,3.97,13.96,4.72,5.19,3.23-.36v3.58h0l.75,3.4-3.73-.18-1.24,2.15,6.21,6.27,17.39.9,2.73,2.69,12.92,3.94h0l-4.47,7.88,2.98,5.55-1.24,3.22,2.98-.54,1.74,2.15-8.45,3.94-6.95-1.79-17.64,9.49h-4.47l-4.97-4.12h-5.46l-3.48-2.33-18.88,3.4-7.7-1.97,2.98-4.3,1.49-7.34-1.74-2.15-2.73-3.76-6.46-2.33-6.71,1.25-12.92,11.99-3.48-5.01,9.69-5.73-4.72-8.06,2.48-1.07-.5-6.27-5.46-3.22-16.39-3.58-8.69-1.07-6.21,1.97-1.74,3.76,4.47,4.65-.75,2.15-11.67-2.51-.25,4.12,4.47,5.55-3.48,2.69-6.46-5.73,1.74-1.61-2.48-1.61.25-15.75-2.98-2.86,4.97-.36-2.98-7.52,1.74-3.04-.75-8.23-9.44-2.86,3.73-.9,4.22-.18-6.71-3.4,7.2-.9-5.46-2.15,2.73-4.12h0Z"/>
      <path id="PH-CAV" class="cls-9" d="m718.34,863.52l-1.49,1.97-.75.9-1.74,3.58,2.98-1.07,1.49,1.25.75-1.79,9.19-1.79h0l-.25,3.76,7.95,8.77v4.12h0l-.75,5.19,11.18-2.33-6.46,10.92,3.23.72-3.48,4.83,2.48.54-.75,6.44h0l1.49,1.25-16.89,6.98-10.18,1.97-2.73-1.07-7.2,3.22-1.24-3.76-13.16-6.62-10.68-.36-6.21-4.83,1.74-3.22-10.93-2.51h0l.25-6.09,5.96-2.69,6.95.72,3.73-1.97,2.98-2.51,6.95-2.51,18.13-13.25,4.22-8.23,3.23-.54h0Z"/>
      <path id="PH-LAG" class="cls-9" d="m818.69,853.32l16.15,22.38,2.73-1.25,3.97,2.86,4.72.54,1.49,17.72-11.92,12.17-2.98-.18-4.72,3.4-5.46,9.67-11.18,1.25-18.38,10.56-12.42,2.86h0v-3.58l-3.23.36-4.72-5.19-3.97-13.96-15.65-3.22-11.67.36h0l.75-6.44-2.48-.54,3.48-4.83-3.23-.72,6.46-10.92-11.18,2.33.75-5.19h0l7.7-3.76.99-15.57,7.95-4.83h0l5.46-.36,4.97,2.69,9.44,13.6.5-8.41h2.73l3.23-5.91,4.72.54.5,3.58,3.97.18,4.22,3.04,2.24,6.8-6.21,11.28.5,5.01,14.41-7.34-3.73-3.04,1.24-4.12-2.73-7.88,2.73-8.23,7.7-5.37,10.18-2.33h0Zm-38,30.79l-2.98-.36-2.98-10.02-1.24,9.49,4.72,8.06-.25-5.01,3.23-.54-.5-1.61h0Zm.25-21.84h0l-.5.36.5-.36Zm.75.18h0l-.25.18.25-.18Zm-.99-1.07h0Z"/>
      <path id="PH-QUE" class="cls-9" d="m870.6,937.99l5.96.54-.75,3.58,2.98,1.79-1.99,2.51h-1.99l-4.72-.54-2.48-1.25-.25-3.4,3.23-3.22Zm37.51-34.73l29.31,15.39,11.18,10.56-5.96.9-18.38-8.23-3.48-3.58-9.44-2.86-13.16-11.1,2.98-5.73,6.95,4.65Zm-24.84-13.43l4.47.54-5.96,6.8-2.98-5.91,4.47-1.43Zm105.07-57.1l5.22,3.76-2.48,1.79-21.11,1.43,5.22-4.65,13.16-2.33h0Zm-49.93-13.43l8.94-2.15,2.73,1.97-1.24,3.04,7.7,2.86,4.22-.54v8.59l-2.73.9-2.48-4.12-22.11-7.34-2.48-5.01,4.47,1.43,2.98.36h0Zm-19.62-6.62l.5,1.43,6.46.18,3.97,3.58-3.97-1.79-3.48,1.97-3.48-.72-2.24-3.76,2.24-.9h0Zm-13.41-23.99l4.47,1.07-.75,1.61,3.97-1.07,4.97,1.97-1.74,3.04,7.2.18,1.24,5.91-.5,1.43-4.22-5.37-3.73.54-3.48,4.12,4.97-1.43.25,6.44-7.45,2.69-2.24-.9,2.48,8.95,4.97,1.07,2.48,3.04,2.48,12.89-6.21,6.44-11.67,5.37-4.22-1.79-2.24-4.83.25-6.44,2.48,2.33,3.48-.72-5.22-12.17-5.46-4.48-7.95-16.11-1.99-.18,1.24,3.76-1.74-1.07-1.99,1.79-1.49-1.79,3.23-8.77,2.98-.9.25-4.3h3.48l1.74,2.33,11.92-4.65,2.48,1.79,1.24-1.79h0Zm-109.54,8.06l1.74-2.86-1.74-3.4,10.18-11.1.25-3.94-3.23-2.33,4.22-.9-.5-2.86,3.23-1.97h0l4.97,2.51,2.48-.9,3.73,3.04,4.47,17.01,10.93,11.64,2.48,10.38,5.71,5.01-1.99,3.58,23.85,17.72-5.96-.9h-2.73l-9.19,4.65-2.73-2.51-2.73,4.48,10.18,34.19,12.17,9.31.25,7.16,5.46,3.76-.99,5.37-4.72,3.58.99,1.97,6.95,5.91-1.74-1.43,32.79,19.15,27.57,8.77,16.39,1.07,7.45,2.69,2.24-6.27-7.95-2.33-2.98-4.65,21.11,5.01,1.24-1.97-2.24-2.51,4.22-1.07,1.24-2.51-5.96.36-.5-2.86-17.14-7.34-4.97-6.27.25-2.51,3.97,2.69-.99-3.22,5.96-3.76,3.23-.54,2.24,2.33.75-8.77,4.22-.36.75,1.43-3.23,8.23,2.48,1.61-.99,5.01,3.23.54,4.47-2.33-1.74,7.34h0l.25,1.97,11.67.36,13.91-11.1,62.84,17.9h0l-43.96,8.77h0l-3.73-1.43-.75,5.01-13.41-.36-5.71-3.58,12.17,13.96,6.95,4.3-2.48.9-.25,5.19,2.73,5.01h-5.96l-1.99,2.69,3.97,6.44-.99,2.33,8.69,6.09v2.33l15.9,7.34.25,1.79-3.23.18-6.46-6.27h-3.23l15.4,15.39,4.72,8.95v13.96l2.48.9,2.24,5.91-8.2,1.97-10.68,6.27-6.21-2.15-10.68-8.59,3.48-5.01-2.48-1.97,2.24-2.15-1.24-5.01-4.97-8.06-13.66-10.2-1.99-5.19-12.67-4.83,1.24-2.15-2.98-1.79-5.71-.18-1.74,2.15-3.48-.9,2.98-1.61-2.24-1.61-10.43.54-.99-4.83-9.44-10.92-2.24-.18v-3.4l-7.2-5.37-4.72-.72-3.23,2.15-5.46-2.86.5-1.43-8.45.18-1.49-4.65-14.65-2.86-3.48-4.48-2.98,1.43-3.73-2.33-1.74,1.43-2.98-3.04,1.24-3.58-1.99-1.07-3.97,1.25-6.21-3.94-9.69.9-.99,1.61,2.98,3.58-14.9,1.97-1.49,2.51-2.48-1.79-19.62,6.8-6.71,4.3h0l-12.92-3.94-2.73-2.69-17.39-.9-6.21-6.27,1.24-2.15,3.73.18-.75-3.4h0l12.42-2.86,18.38-10.56,11.18-1.25,5.46-9.67,4.72-3.4,2.98.18,11.92-12.17-1.49-17.72-4.72-.54-3.97-2.86-2.73,1.25-16.15-22.38h0l-21.36-27.57-.99-15.04h0l-.25-14.5h0Z"/>
      <path id="PH-RIZ" class="cls-9" d="m777.7,886.26l.25,5.01-4.72-8.06,1.24-9.49,2.98,10.02,4.47,1.43-4.22,1.07h0Zm3.73-23.81h0Zm-.75.18h0l.5-.36h0l-.5.36h0Zm-.25-1.25h0Zm15.9-50.48l.99,15.04,21.36,27.57h0l-9.44,2.33-7.7,5.37-2.73,8.23,2.73,7.88-1.24,4.12,3.73,3.04-14.41,7.34-.5-5.01,6.21-11.28-2.24-6.8-4.22-3.04-3.97-.18-.5-3.58-4.72-.54-3.23,5.91h-2.73l-.5,8.41-9.44-13.6-4.97-2.69-5.46.36h0l-2.24-5.01,2.98-3.04-1.49-4.83,4.72-1.07.75-3.04-4.97-2.33,4.97-8.41-2.98-.18v-2.51h0l11.43-5.91.99-3.04,13.66-1.97,15.15-7.52h0Z"/>
    </g>
    <g id="R-III">
      <path id="PH-TAR" class="cls-1" d="m664.19,684.34l7.45,22.73,7.7,5.91,10.18,1.97-5.71,7.52,7.7,17.72-3.97,4.83-.5,5.91,7.7,4.3-1.74,5.19h0l-4.97.54-.5-2.33-7.7,3.04-7.45-1.97-3.48,1.61h-11.67l-33.28,12.71-3.23-.36h0l-5.96-8.77-9.44-7.7-22.11-9.67,3.97-19.69,6.46-9.31,7.45-3.22-1.74-2.51h0l12.67-4.3-1.24-2.51,6.46-3.94,1.24-4.3,6.21-4.83,15.9,4.83,12.17-5.55,7.2-15.93,4.22,8.06Z"/>
      <path id="PH-ZMB" class="cls-1" d="m533.79,687.74l4.47,1.61,6.46-2.15,1.74,2.51h5.71l6.95-7.16,10.18,4.65,11.43-1.79,6.71,13.07,12.17,14.68h0l1.74,2.51-7.45,3.22-6.46,9.31-3.97,19.69,22.11,9.67,9.44,7.7,5.96,8.77h0l-2.24,4.3,1.49,4.12,6.95,3.76,3.23,4.65-.25,7.16,5.46,3.76,1.74,4.48h0l-4.47,6.44-10.93-1.25-3.23,5.73-9.94,5.73-1.24.72.5-2.15-4.72-.54-.75-3.4-4.22-.18-3.48-4.12-3.97,1.61,2.24,6.62-6.46,10.02-11.43-2.86,3.48-.54-2.73-2.33-6.71-.54,4.72-4.65-5.46,1.07.99-5.37h-2.48l.25-3.4-3.48-2.33,2.48-16.11-2.24-11.46-7.7-17.9.75-4.3-4.97-4.48-4.22-3.58.25-2.86-6.71-5.19,1.49-.72-5.71-1.25.25-2.33-3.23-1.79,4.97-2.33-2.73-3.04.75-2.86,2.48,2.15,4.47-.18.5-2.51,3.97-1.43-5.71-6.44,2.24-2.33-3.73.18.25,2.15-2.24-.54,1.49-4.83-3.73-3.58,3.97-3.04,1.49-6.62-2.98-1.79-2.98.72-5.71-4.65,7.45-2.69-4.72-7.16h0Z"/>
      <path id="PH-AUR" class="cls-1" d="m961.26,591.79l-2.98,1.25-2.73,6.62-5.22,3.22,4.22,6.09,2.98-5.37.75,1.25-3.48,8.77-5.96,2.86-2.24,4.3,2.73,1.79,7.7-3.04-5.71,5.91-.25,3.76-24.34,16.29.5,3.94-7.45,5.55-7.7,2.86,6.95-10.2,11.92-8.59.25-4.83,6.21-2.86.5-4.83-6.71-.36-3.97,3.04-1.24,3.4,2.73,3.58-10.68,1.43-14.9,7.34-11.92.54-16.39,8.06-3.48-1.97-3.23,1.07-13.91,8.59-2.48,4.65-4.22.54v1.97l-12.92,7.16-.25,15.04,3.23,4.83,4.97-1.43,6.95,1.79.5,6.09-5.22-.36.25,3.04.25,1.79.5,3.04-5.96,2.15-9.69,11.81-6.71,2.86-3.23,14.32-3.73.9-3.97,6.27-4.97-2.86-3.48,2.69-1.99,7.16,8.2,13.07h0l-3.23,1.97.5,2.86-4.22.9,3.23,2.33-.25,3.94-10.18,11.1,1.74,3.4-1.74,2.86h0l-5.46-27.21h0l11.67-38.31-17.39-38.84h0l33.53-19.69h0l66.32-42.07,41.48-35.26,11.92-5.73h0l25.34.9h0l-2.24.9h0Z"/>
      <path id="PH-BAN" class="cls-1" d="m636.87,805.89l6.71,2.51.99,5.73,3.97,3.76,4.72,2.15,4.72-.9h0l.75,2.15h-4.47l.25,3.58-1.99-.18v8.59l6.46,10.02-.75,4.83,3.97,10.02,2.24.72-.75,7.34-8.2,7.52-13.41-1.61,1.99,3.94-5.46-1.07-4.22-4.3-3.97.72-.25-1.61-5.96-.72-2.73-8.77,2.73-1.61-1.74-1.61,2.24-5.19-4.72-5.19-3.48.9-2.98-2.33-3.48,1.43v-1.79l-1.99.72-9.44-7.88.99-5.73,4.47-.18-6.95-3.4,6.95-2.51-4.47-1.07,1.74-1.79,5.22.18h0l11.43-6.44,3.23-5.73,10.93,1.25,4.72-6.44h0Z"/>
      <path id="PH-BUL" class="cls-1" d="m726.04,767.04l11.92-4.65,22.11-2.69,17.64,9.13,12.67.72h0l5.46,27.21h0l.5,14.14h0l-15.65,6.8-13.66,1.97-.99,3.04-11.43,5.91h0l-7.2-.54-2.48-2.33-2.73.54-.75,2.86-5.96,1.07h0l-.75.54h0l-2.48,4.3-3.48.36-.75-2.51-3.48-1.07-2.24.72,3.97,5.73-2.24.9-3.23-2.86-1.99,1.43h0l-3.48-2.86-2.24.54-8.2-4.3.25-3.4-2.73-.72-1.24-.9-2.98,3.22-7.95-.18-3.23-.9-9.94-.9-.99-1.61,5.71-2.33-.75-2.51,7.95-9.31-.25-4.3,15.9-1.07,11.67-6.8-.5-3.58,3.73-.54.5,1.79,3.23-5.55,4.97.18.5-5.91,2.98-3.04-7.95-7.16,2.48-2.86-.25-5.73h0Z"/>
      <path id="PH-NUE" class="cls-1" d="m712.38,647.46l26.33-2.69,26.83,4.83,3.97,24.7,15.4,18.44h0l17.14,38.67-11.67,38.31h0l-12.67-.72-17.64-9.13-22.11,2.69-11.92,4.65h0l-9.94,1.43-5.96,5.73-3.73-5.37h-10.93l-2.73-8.41h0l1.74-5.19-7.7-4.3.5-5.91,3.97-4.83-7.7-17.72,5.71-7.52-10.18-1.97-7.7-5.91-7.45-22.73h0l23.6-2.69,14.16,8.06,6.46-3.76,11.67-21.3-7.45-17.36Z"/>
      <path id="PH-PAM" class="cls-1" d="m620.72,773.84l3.23.36,33.28-12.71h11.67l3.48-1.61,7.45,1.97,7.7-3.04.5,2.33,4.97-.54h0l2.73,8.41h10.93l3.73,5.37,5.96-5.73,9.94-1.43h0l.25,5.73-2.48,2.86,7.95,7.16-2.98,3.04-.5,5.91-4.97-.18-3.23,5.55-.5-1.79-3.73.54.5,3.58-11.67,6.8-15.9,1.07.25,4.3-7.95,9.31.75,2.51-8.45,3.4h0l-1.49.9-5.96-3.94-5.96-2.15,1.24-1.61-2.98-.72h0l-4.72.9-4.72-2.15-3.97-3.76-.99-5.73-6.71-2.51h0l-1.74-4.48-5.46-3.76.25-7.16-3.23-4.65-6.95-3.76-1.49-4.12,1.99-4.48h0Z"/>
    </g>
    <g id="R-II">
      <path id="PH-BTN" class="cls-16" d="m886.5,66.41l7.95,6.44-4.97,6.8-3.97-3.76.99-9.49Zm28.56-18.62l5.71,3.4-12.92,7.16,3.23,2.86-1.24,3.4-4.22,2.69h-6.21l1.99-8.77,7.2-5.01-1.74-3.22c-.25.36,8.2-2.51,8.2-2.51ZM889.73,0l3.48,3.4-2.48,3.76,1.49,3.4-3.48,1.07-1.99,5.19-8.2,3.58-3.48-4.48,5.96-5.55,3.97-8.95,4.72-1.43Z"/>
      <path id="PH-CAG" class="cls-16" d="m938.66,310.58l4.22.36-.5,7.88-6.95,3.04,1.99-6.27-2.73-.36.25-1.97,3.73-2.69h0Zm-182.07-6.27l13.16,2.69,19.13,11.1,16.15,5.55,3.23,1.07,1.49,2.69,6.71.72,27.57,11.28,51.42,13.78,1.49,1.25,19.87-3.76,14.41-9.31,1.74-3.58,5.22.18-.99-5.73,3.97-11.46,3.48-1.97,12.42.72,2.48,9.31,11.67,7.88,4.47,11.46-6.46,12.35-7.2,6.62-8.45,2.33-8.94,9.49.5,2.33,2.98.54-1.99,3.76,2.73,2.15-2.24,8.95,1.24,1.07.75,5.73-4.72,3.4.99,4.48-3.48,1.43,1.24,2.51-3.48,3.22,1.24,7.34,4.47,5.55-2.24,2.15,1.99,1.79-.75,7.88,4.97,8.59h0l-61.1,1.79-5.46,2.33-29.81,1.25h0l-31.79-22.38-7.2.9.5-3.22h0l-1.99-6.27-9.94-7.88-12.42-3.22,3.23-1.25,16.39-27.92,8.2-2.69,5.22-23.99-3.97-11.28-26.83-11.1-5.96-.18-6.71-5.55-28.81-7.52-.75-7.52-7.45,1.61-.75,3.22-6.46,5.37-7.7,2.69h0l2.24-18.44h0l11.18-5.19,4.47,1.79,5.71-1.07.99-1.61,4.72-.18h0Zm52.91-38.13l11.43,3.04v1.25l-5.22,2.69-19.13,1.79-9.69-.36-2.98-1.97,1.24-3.58,5.22.9,19.13-3.76h0Zm89.92-13.43l5.22.18,8.45,5.91-.5,2.51-5.22.9-1.24,4.3-10.68,4.48-2.98,6.09-3.97,1.97-3.23-1.25-1.74-7.52,7.45-1.61-3.23-4.65,3.73-3.58-.75-3.58,8.69-4.12h0Zm-125.93-22.91l5.46,9.13.25,12.53-9.69-7.52-.25-5.55,4.22-8.59h0Zm34.53-30.61l14.16,3.58,6.46-2.86-.5,9.13,3.73,6.62-5.71,1.97.25,2.15-19.62-5.37-2.48-6.44-7.95-3.76,5.96-1.07,1.99-3.4,3.73-.54h0Zm100.85-24.88l3.97,2.69.5,5.73-6.46,5.01-10.18-5.37-1.99-3.76c.25.36,14.16-4.3,14.16-4.3Z"/>
      <path id="PH-ISA" class="cls-16" d="m948.84,451.81v5.73l10.93,12.71-2.48,1.07,3.23,2.15-1.49,3.04,3.48,1.43,3.48-1.07.25,3.04,4.22,1.07,2.24-1.43,5.71,1.07,2.98-2.51,3.97,1.79,2.73.9,6.46,9.49-.5,3.04-1.74,3.76-3.23,4.12.99,6.09,3.48,2.15,1.99,1.07,6.46-.18,4.72-3.58,3.48,5.91-3.23,8.23-7.95,8.23,1.99,3.4-3.73,6.44,1.74,2.15-6.71,8.23,1.24,3.76-3.23,1.43-21.61,32.04-4.72,3.94h0l-25.34-.9h0l-8.94-.54-58.87,19.51-35.77-32.58-26.83-1.61h0l-1.49-6.27-11.92-8.06h0l1.99-2.33-1.74-1.79,3.23.18,2.24-3.04,6.95-.54,5.22-4.83,4.22,1.43,15.65-3.4,7.7-6.44-5.96-23.09h0l-.75-28.28h0l9.94-15.93,12.67-6.62-3.48-8.59h0l29.81-1.25,5.46-2.33,60.86-1.43h0Z"/>
      <path id="PH-NUV" class="cls-16" d="m794.59,560.65l11.92,8.06,1.49,6.27h0l-5.22,25.78,12.92,3.22-2.48,11.99-26.08,7.88,5.22,32.58,26.33,16.65h0l-33.78,19.69h0l-15.15-18.62-3.97-24.7-26.83-4.83-26.33,2.69h0l-6.95-8.95-13.16-4.12h0l-1.74-5.55,8.45-10.92,7.2.36,8.2-15.22-1.24-9.67,3.97-12.17h0l57.13-6.8h0l.99-.18h0l9.19-2.86,3.23.9-.99-3.76,4.72-1.25,2.98-6.44Z"/>
      <path id="PH-QUI" class="cls-16" d="m807.76,574.97l26.83,1.61,35.77,32.58,58.87-19.51,8.94.54h0l-11.92,5.73-41.48,35.09-66.32,42.07h0l-26.33-16.65-5.22-32.58,26.08-7.88,2.48-11.99-12.92-3.22,5.22-25.78Z"/>
    </g>
    <g id="R-I">
      <path id="PH-ILN" class="cls-15" d="m706.66,301.09l11.67,11.99,7.45.72,3.48-3.22h0l-2.24,18.44h0l-3.48,10.92,2.98,23.09,2.98,4.3-7.2,9.13.75,13.96-2.24,2.69h0l-3.23,3.76-13.66-1.25-8.94,6.62-9.94,2.51-6.71,7.88-19.62,4.83-8.45,13.07h0l-3.73-2.86-.75-3.94,3.73-17.72-15.9-2.51h0l-2.48-1.97,6.46-3.58,1.49-4.48,4.47-2.86-4.47-4.48.75-6.98-1.49-.72,7.45-6.44,1.24-6.98,1.99-.9-1.24-1.25,9.69-10.56,4.47-9.13-.99-9.13-5.96-11.1,11.18-7.34,16.15,2.33,10.43-1.97,2.73-3.76-.99-6.98,12.17-4.12h0Z"/>
      <path id="PH-ILS" class="cls-15" d="m633.89,403.48l15.9,2.51-3.73,17.72.75,3.94,3.73,2.86h0l-5.96,8.77-2.73,12.89-3.73,5.91,2.73,2.86,7.7-2.51,10.93,3.22-1.24,6.27-7.2,9.85,3.48,6.8,10.18-.36,12.42,7.52-.25,7.7-2.48.72,4.97,4.48,11.18.36,7.7-4.12h10.68l-13.91,10.56,1.24,18.8-1.99,5.01h0l-5.71,2.86-12.92.36-4.97,1.97-4.22,22.38-7.2,9.67h0l-8.69-7.7,3.23-7.34-2.73-1.43,1.49-1.79-3.73-.36,2.24-2.51-5.22-3.94,1.74-10.2-5.46,2.51-2.24-1.97-3.73,1.07-7.7-1.79h0l6.71-8.06-1.74-13.43-1.99-13.07-4.22-4.65,5.71-10.2-2.24-.18.75-6.44,3.23-.36,1.99-6.8,1.49-2.69-2.98-5.19-2.98-.72.75-3.76-2.24-2.51.25-1.43-3.48-.9-2.98-.72.5-1.79-6.71-2.15-1.24-3.76,4.97-12.89.99-1.79,10.68-6.8-1.24-2.86-4.22-.36,3.48-2.33-4.22-2.86,4.97-1.43.99-2.51,3.97-.18-3.23-5.55-.25-5.19h0Z"/>
      <path id="PH-LUN" class="cls-15" d="m627.68,537.2l7.7,1.79,3.73-1.07,2.24,1.97,5.46-2.51-1.74,10.2,5.22,3.94-2.24,2.51,3.73.36-1.49,1.79,2.73,1.43-3.23,7.34,8.69,7.7h0l-6.95,6.98,2.98,1.43-11.18,7.52-4.97,5.91,7.7,35.26h0l-2.48,3.4-15.15.36h0l-2.73-5.91-6.46-2.86-2.98-1.25-.5-8.77-3.97-5.91.25-.72.99-10.02-4.72-4.48.99-2.51,1.99-7.16-7.7-6.27,5.46.9v-4.3l5.46-5.37.75-6.62-3.23-9.13,1.99-4.65,11.43-5.91,2.24-5.37Z"/>
      <path id="PH-PAN" class="cls-15" d="m551.92,614.53l1.74,3.58,3.97,1.25-4.22,5.01,3.48,4.83-4.47,2.51-5.22-6.27-2.98.18.5-1.97-2.73-1.97-2.48,1.43-.99-1.79,4.72-1.43-.99-1.79,2.24-1.43-.5,2.86,2.73,1.07.5-5.37,4.72-.72h0Zm-13.91,75l-4.47-1.61h0l-.99-1.25,5.46-3.22-9.19-15.57-2.73-2.15-.5,1.61-5.71.36-1.49,4.48-3.48-1.25-2.24,2.33-3.97-6.8,1.74-6.27,2.73-1.61-3.23-3.4,1.24-7.88,3.48-3.58-1.99-4.12-3.23-.9,5.46-9.31-1.99-1.25,1.24-8.06,6.46-6.8h7.2l4.97-4.83,7.45,3.4-1.74,17.18,2.48-1.07,4.97,1.97,1.24.54,2.98.9-.75,2.51,5.22,1.79,2.98,3.4,1.74-3.04,2.48,1.07.75.72h4.47v2.15l2.73-1.07,4.22,3.4-.99,1.43v1.25l-2.98,2.51,4.47,3.94-2.73-.18-.5,1.61,8.45,3.94,14.41.54,18.38-4.48.5,1.25,17.14-13.96-1.49-6.27h0l15.15-.36,2.48-3.4h0l25.83,6.62,20.37-1.79h0l13.16,4.12,6.95,8.77h0l7.7,17.18-11.67,21.3-6.46,3.76-14.16-8.06-23.6,2.69h0l-4.47-7.7-7.2,15.93-12.17,5.55-15.9-4.83-6.21,4.48-1.24,4.3-6.46,3.94,1.24,2.51-12.67,4.3h0l-12.17-14.68-6.71-13.07-11.43,1.79-10.18-4.65-6.95,7.16h-5.46l-1.74-2.51-6.71,2.33h0Zm3.73-85.56l4.97,4.48v3.22l-9.19-2.15.25-5.01,3.97-.54Z"/>
    </g>
    <g id="R-CAR">
      <path id="PH-ABR" class="cls-4" d="m721.07,393.28l10.68,5.19,4.22,13.07,10.18-.54,5.96,3.22,4.22,19.15h0l-5.71,2.33,4.97,10.56-1.74,3.94-20.12,9.49-.75,11.28-14.41,21.84h0v4.65l-3.23,3.04-7.2.36h-10.68l-7.7,4.12-11.18-.36-4.97-4.48,2.48-.72.25-7.7-12.42-7.52-10.18.36-3.48-6.8,7.2-9.85,1.24-6.27-10.93-3.22-7.7,2.51-2.73-2.86,3.73-5.91,2.73-12.89,5.96-8.77h0l8.45-13.07,19.62-4.83,6.71-7.88,9.94-2.51,8.94-6.62,13.91,1.25,3.73-3.58Z"/>
      <path id="PH-APA" class="cls-4" d="m727.03,329.01l7.7-2.69,6.46-5.37.75-3.22,7.45-1.61.75,7.52,28.81,7.52,6.71,5.55,5.96.18,26.83,11.1,3.97,11.28-5.22,23.99-8.2,2.69-16.39,27.92-2.98,1.25,12.42,3.22,9.94,7.88,1.99,6.27h0l-7.95,3.4-1.74,3.22-24.34-4.12-4.72,6.27-18.88-8.06h0l-4.22-19.15-5.96-3.22-10.18.54-4.22-13.07-10.68-5.19h0l2.24-2.51-.75-14.14,7.2-9.13-2.98-4.3-2.98-23.09,3.23-10.92Z"/>
      <path id="PH-BEN" class="cls-4" d="m693.5,535.23l12.42,8.41,1.99,4.65,4.22,1.43h0l3.48,6.44,1.24,24.88h0l-3.97,12.17,1.24,9.67-8.2,15.22-7.2-.36-8.45,10.92,1.74,5.55h0l-20.37,1.79-25.83-6.62h0l-7.7-35.26,4.97-5.91,11.18-7.52-2.98-1.43,6.95-6.98h0l7.2-9.67,4.22-22.38,4.97-1.97,12.92-.36,5.96-2.69Z"/>
      <path id="PH-IFU" class="cls-4" d="m712.38,549.73h6.71l5.71-4.12,6.21-10.38-2.24-5.19,1.49-3.58,8.45.54,5.96-2.33,8.94-.36,21.36,1.07,22.35-8.23,15.9-1.79,20.86,1.25h0l5.96,23.09-7.7,6.44-15.65,3.4-4.22-1.43-5.22,4.83-6.95.54-2.24,3.04-3.23-.18,1.74,1.79-1.99,2.33h0l-3.48,6.62-4.72,1.25.99,3.76-3.23-.9-9.19,2.86h0l-.99.18h0l-57.13,6.8h0l-1.24-24.88-3.23-6.44Z"/>
      <path id="PH-KAL" class="cls-4" d="m813.97,432.48l-.5,3.22,7.2-.9,31.79,22.38h0l3.48,8.59-12.67,6.62-9.94,15.93h0l-25.09-3.4-12.42,3.22-16.39,12.89-15.9,2.51-13.66-3.4-5.46-5.55-25.58-1.79h0l14.41-21.84.75-11.28,20.12-9.49,1.74-3.94-4.97-10.56,5.71-2.33h0l18.88,8.06,4.72-6.27,24.34,4.12,1.74-3.22,7.7-3.58Z"/>
      <path id="PH-MOU" class="cls-4" d="m833.34,488.33l.75,28.28h0l-20.86-1.25-15.9,1.79-22.35,8.23-21.36-1.07-8.94.36-5.96,2.33-8.45-.54-1.49,3.58,2.24,5.19-6.21,10.38-5.71,4.12h-6.71l-4.22-1.43-1.99-4.65-12.42-8.41h0l1.99-5.01-1.24-18.8,13.91-10.56h0l7.2-.36,3.23-3.04v-4.65h0l25.58,1.79,5.46,5.55,13.66,3.4,15.9-2.51,16.39-12.89,12.42-3.22,25.09,3.4Z"/>
    </g>
  </g>
  <line class="cls-3" x1="911.83" y1="515.36" x2="1068.35" y2="515.36"/>
  <line class="cls-2" x1="751.87" y1="484.93" x2="521.37" y2="484.93"/>
  <circle class="cls-20" cx="756.34" cy="484.93" r="7.28"/>
  <line class="cls-2" x1="694.6" y1="749.73" x2="425" y2="749.73"/>
  <circle class="cls-20" cx="699.07" cy="749.73" r="7.28"/>
  <line class="cls-2" x1="688.63" y1="358.52" x2="499.76" y2="358.52"/>
  <circle class="cls-20" cx="693.11" cy="358.52" r="7.28"/>
  <line class="cls-2" x1="779.74" y1="899.68" x2="467.58" y2="899.68"/>
  <circle class="cls-20" cx="784.21" cy="899.68" r="7.28"/>
  <circle class="cls-20" cx="741.39" cy="851.35" r="7.28"/>
  <polyline class="cls-2" points="741.39 851.35 938.16 713.16 1015.78 713.16"/>
  <circle class="cls-20" cx="911.83" cy="515.36" r="7.28"/>
  <circle class="cls-20" cx="1000.01" cy="1307.28" r="7.28"/>
  <circle class="cls-20" cx="1475.68" cy="1189.49" r="7.28"/>
  <circle class="cls-20" cx="1162.78" cy="1001.3" r="7.28"/>
  <circle class="cls-20" cx="1234.37" cy="1407.7" r="7.28"/>
  <circle class="cls-20" cx="1452.25" cy="1700.68" r="7.28"/>
  <circle class="cls-20" cx="1410.1" cy="1932.55" r="7.28"/>
  <circle class="cls-20" cx="1632.16" cy="1781.11" r="7.28"/>
  <circle class="cls-20" cx="1600.94" cy="1638.68" r="7.28"/>
  <circle class="cls-20" cx="1112.28" cy="1724.36" r="7.28"/>
  <polyline class="cls-2" points="1162.78 1001.3 1248.4 815.37 1310.75 815.37"/>
  <polyline class="cls-2" points="1475.68 1189.49 1475.68 995.63 1588.44 995.63"/>
  <polyline class="cls-2" points="1000.01 1307.28 851.72 1501.41 796.33 1501.41"/>
  <line class="cls-2" x1="1234.37" y1="1407.7" x2="1801.52" y2="1407.7"/>
  <line class="cls-2" x1="1112.28" y1="1724.36" x2="796.33" y2="1724.36"/>
  <polyline class="cls-2" points="1452.25 1700.68 1206.92 1604.99 848 1604.99"/>
  <polyline class="cls-2" points="1410.1 1932.55 1410.1 2094.73 1325.65 2094.73"/>
  <line class="cls-2" x1="1600.94" y1="1638.68" x2="1947.06" y2="1638.68"/>
  <line class="cls-2" x1="1632.16" y1="1781.11" x2="1919.19" y2="1781.11"/>
</svg>