<?xml version="1.0" encoding="UTF-8"?>
<svg id="Layer_1" data-name="Layer 1" xmlns="http://www.w3.org/2000/svg" viewBox="0 0 869.61 1208.1">
  <defs>
    <style>
      .cls-1 {
        fill: #340744;
      }

      .cls-2 {
        letter-spacing: .02em;
      }

      .cls-3, .cls-4 {
        fill: none;
      }

      .cls-3, .cls-4, .cls-5 {
        stroke-miterlimit: 10;
      }

      .cls-3, .cls-5 {
        stroke: #231f20;
      }

      .cls-6 {
        fill: #3a4a3d;
      }

      .cls-7 {
        letter-spacing: -.04em;
      }

      .cls-4 {
        stroke: #000;
      }

      .cls-8 {
        fill: #fdd403;
      }

      .cls-9 {
        letter-spacing: 0em;
      }

      .cls-5 {
        fill: #fff;
      }

      .cls-10 {
        fill: #c197d2;
      }

      .cls-11 {
        letter-spacing: 0em;
      }

      .cls-12 {
        letter-spacing: 0em;
      }

      .cls-13 {
        font-family: Bahnschrift-Bold, Bahnschrift;
        font-size: 27px;
        font-variation-settings: 'wght' 700, 'wdth' 100;
        font-weight: 700;
      }

      .cls-14 {
        fill: #a45c40;
      }

      .cls-15 {
        fill: #fe983d;
      }

      .cls-16 {
        fill: #035e7a;
      }

      .cls-17 {
        letter-spacing: -.04em;
      }

      .cls-18 {
        fill: #2f24c6;
      }

      .cls-19 {
        fill: #ff5e69;
      }

      .cls-20 {
        letter-spacing: -.02em;
      }

      .cls-21 {
        letter-spacing: 0em;
      }

      .cls-22 {
        fill: #00abf3;
      }

      .cls-23 {
        letter-spacing: 0em;
      }

      .cls-24 {
        letter-spacing: -.02em;
      }

      .cls-25 {
        fill: #008874;
      }

      .cls-26 {
        fill: #43428d;
      }

      .cls-27 {
        letter-spacing: 0em;
      }

      .cls-28 {
        letter-spacing: 0em;
      }

      .cls-29 {
        fill: #a62e7d;
      }

      .cls-30 {
        letter-spacing: -.03em;
      }

      .cls-31 {
        letter-spacing: -.01em;
      }

      .cls-32 {
        fill: #2f2440;
      }

      .cls-33 {
        fill: #914110;
      }

      .cls-34 {
        fill: #01bf63;
      }

      .cls-35 {
        fill: #5b0000;
      }
    </style>
  </defs>
  <g id="Philippine_Regions_Map" data-name="Philippine Regions Map">
    <g id="R-BARMM">
      <path id="PH-TAW" class="cls-33" d="m180.9,1199.2l-1.4,7.1-.6-2.5,1-1.9-1.4-1.2,2.4-3.2v1.7Zm29.5-4.3l3,2-3.8-.2-.5-1.4,1.3-.4h0Zm-26.9-6.6l2.8,5.7.9,5.5-1.8,6.7-1.7,1.9.5-10.8-1.5-8.1.8-.9h0Zm25.1-.8l3.6,1.9v2.6l-3.6.5-1-4.3,1-.7Zm15.7-6.2l-.9,3.5-1.4.3.2-3.5,2.1-.3h0Zm-17.5-1.5l-.4,1.4-2.6-.2.3-1.4,2.7.2h0Zm25,.1l1.1.7-.2,1.2-2.6-2,1.7.1h0Zm7.4.3l-.7.7-2.1-.6,1.8-1.6,1.4.8-.4.7h0Zm-30-6.8l.5,4.4-1.1.5-.8-1-.4,1.7-3.2.5,1.9-4.6,3.1-1.5h0Zm36.2-.4l.6,1.5-1.2.8-2.6-.1,3.2-2.2h0Zm2.7-1.7l-.6,2-1.1-.4.1-2.2,1.1-.5.5,1.1h0Zm-2.6-3.5l-2.6,1.5-.4-1-1.6.4,1.7-5.3,2.8,2.4.1,2h0Zm3.7-4.5l-1.5,5.4-.7-2.9,2.2-2.5Zm-11-6.7l.3,3.4,2.8,1.9-1.7,3.1.6,3.7-1.5,2.5.3,1.7-4.2-1.5,2-2.8-1.7-.7-.9,2.2-2.6-1.7-1.8,2.6-.8-.7-.9-.5-1.1.4-.2-1.3-1.2-.1-3.2,1.9.3,1.7-.7.6-2.2,3.3-2.2-.8-3,1.7-.6.3-1.5.9-2.9-.6.4-4-1-1,1.4-1.8,2,.2,6.1-3.1,2.8-3.5,3.6.4,2.9-2.8.6-.7,6.9-4.6,2.9-.3h0Zm7.8-2.7l1.3.3-1.7,1.2-1.7-.5,2.1-1Zm20.1-1.1l-1.8-.9.7-1.8,1.9,1.7-.8,1Zm-151.6-120.1l1.5,1.5-1.3,2.6,1.9,2.1-7.6-1.8v-1.3l-1.6-1,3.3-1.2,1.7.6s2.1-1.5,2.1-1.5Z"/>
      <path id="PH-LAS" class="cls-33" d="m549.3,953.1l2.7,3.3,1.8,7.9,3,5.8,1.9,1-.5,1.5,1,1.8,2.1.8,3.5,6,1.4.7.1,3.1,1.8,1.6v2l3.5,2.2.3,1.4h0l-7.7-2.7-3.8,2-2.9-.7-2.9-3.7-2.2-.6-3,.2-4,2h0l-5.5,6.2-8.4,4.3-4,5,.3,1.5h0l-1.4.5-3.8-2.3,1.3-1.1-2.1-3.8-7.5-9.8-2.1.3-.9-1.6-4.2-2.1-7.2-.5h0l1.7-2-.1-1.3,11.9,3.7,1-2.1-.4-2.2,2.6-5.3-1.6-5.4,6.4-.4,1.9-4.4-.8-2.7,6.3-1,4.7-4.9-.2-3.6,1.6-5.6,2.4-.3,1,1.2,8.7,2.6,2.3,1.5h0Z"/>
      <path id="PH_MG" data-name="PH MG" class="cls-33" d="m514.9,1014.6l-.2-2.6,4.2-3.3-2.5,3.2.3,1.4-1.8,1.3Zm63.6,37.5l-4,1.1-2.1-.9-.5-16h-1.3v-.8l.2-3.5,2,.1.2-1.9-2.1-.1v-1.8l-6.2-5.9.3.8-1.6.5.1,2,2.6,1.3,1.1,1.8-1.3-.1.5,1.9-1.4-1.4-.8,2.2-.2-1.1-1,.2-.5,1.4,1.5.8,1,2.4-.7.8,1,.6-2.4,1.9.3,1.4-.9.5-3.7-2-2.9.3-3.9-5-2.3.7-5.3-4.3,5.8-10.6-2.8-.8-4,1.2-3,4.4-3.2-.5,5.7-9.6,1,.5,4.7-10.8-3.8-5.6.5-9.6-5.5,6.2-8.4,4.3-4,5,.3,1.5.6,1,2.6-.4.4,2.6.9.3-.3,1.9-3.1.2.4,3.3-.8,3.1.8.9-2.1-.4-.2,2.2-1.2-.3-.8,1.6,3.8.6,1.8,1.6h-.7l-1.2-1.5-3.1-.1-3.9,3.2-3.6.4-4.7,7.5-3.2,9.6,1.4,3.2-1.3.9.3,2-1.4.7,1.3.4-.1,1.8,1.1-.4-.4,1.8,2.9-1.8,2.2,3.2,4.3.1,12-.3,1.2,2.2,16.6.1,5-5.3-1.7-4.8,7.4-1.6-.2.9,2.9.2-2.1,6.2,5.8.1,2.3,8,1.5,1.7,6.3-.5,8.6-4.7-7.3-4.9h0Z"/>
      <path id="PH-SLU" class="cls-33" d="m282.5,1144.4l1.3,2.5-2,1.8-.5-1.7,1.2-2.6h0Zm-1.4,3l-1.9-.6,2.4-2.7-.5,3.3h0Zm-.4-6.8l1.2,1-.8,2.5-2.9,1.7-.9-2.3,1.4-2.5,2-.4h0Zm4-1.3l4,3.4-1.7,2.9-1.8.8-3-2.7-.2-1.4.7-2.1,2-.9h0Zm16.1-7l-2.4,1.8-2-1.8,4.1-.9.3.9h0Zm-14.9-1.4l1.6.7-2,1.9h-4.6l.9-2.6h4.1Zm9.9-2.5l1,.4-.5,1.2-1.1-.6.6-1Zm-6.2-1.5l1,2.9-3.1,1.6-.2-3.5,2.3-1Zm16.6-6.7l3.2,1.1,1.1,2.4-3.2,1.6-1.6-.6-.6-1.9,1.1-2.6h0Zm-87.7-2.7l1.7,1.7-3-.7,1.3-1Zm2.3,1.3l3.6-1.2-.9,1.3-2.6.5-.1-.6Zm2-5.1l-.1,1.3-.1.9-1.4-.7.5-1.4,1.1-.1h0Zm115.3-2.7l.8,1.8-1.9,1.5-.9-1.8.8-.9.3-.4.9-.2h0Zm-106.2,1.4l-1,.2-1.5-1.6.7-1.1,1.3.7.5,1.8h0Zm104-5.2v1l-2.5,1.3,1.5-3.1h1.2l-.2.8h0Zm-10-1.9l1.2,1.4-.5,1.4-2.9-.1-.5-1.4,1.7-1.5,1,.2h0Zm18.7,0l1.1,1.3,2.7.4-4.4,3.1-1.1-.7,2.4-2.3-1.2-.8.5-1h0Zm-16.1-1.6l.5,1-1.1.9-.3-1.6.9-.3h0Zm-24.9-1.1l3.1,1,3.8,6,5.3-1.7,2.7,1.3,3.4-.3.5-.1,1.7-.3,1.8,1.1.5,2.6-2.7,1.4-.2,2.7-2.3-1-4.9,4.5-1.1-.9.8-.6-3.2-1.2.7-2-.6-1.2-3-1.2-1,1.4-.8-.6-.7,1.4-1.8.1v.9l-3.9,1.4-.7,1-3.7-3.8-6.1,2.9-4.4-2.3-.4-2.5,3.4-5.2,5.7-2.1,1.5-2.4,6.6-.3h0Zm47.7-.2l3.5,3.8,3.3,1.5,6.3-2.4-2.8,2.5-4,1.5-5.8-4-1.5-1.8,1-1.1h0Zm-89.3-3.8l1.4,1.3-1,1.1-1-1,.6-1.4h0Zm94.5-.2l.8,2-2.4.1-.2-1,1.8-1.1h0Zm-100.3-1.8l.6.8-1,2.2-2.7-1.4,3.1-1.6Zm98.7-.3l1,2-1.9,1.4-.8-1.7,1.7-1.7h0Zm-61.8-2.1l1.9,1-.4,1.2-1.7.4.2-2.6Zm-22.6-8.4l.9,1.1-.3,2-2.2,2.1-.9-1.2,1.2-1.7,1.3-2.3Zm15.1-1.6l1,1.7-2.4.8.3-2,1.1-.5h0Zm-19.4-3.8l-1.3,10.5-3.3.9-4-1.1.1-1.3,2.8.5,2.6-7.9,3.1-1.6h0Zm8.4-3.1v3l-3-.6-.1-.9,3.1-1.5h0Z"/>
      <path id="PH-BAS" class="cls-33" d="m367.4,1086.8l.1,1.6-.7.2-1.6-.7.4-1.5,1.8.4Zm-30.9-28.9l-.4.8,2.2,1.2.8,3.8,1.6,1.7.2-2.6.5-1.2-3.2-2.3-1.7-1.4Zm32.9,27.3l1.7.1-.9-1.6-.8,1.5h0Zm-2.3-.7l-.7-1.7-1.9.8.6,1.1,2-.2h0Zm23.3-22.3l-3,.2-2.2-1.7-6.6-.3-.5-3.4-2.9.3-2.5-2.8-2,.7-1.2-.3-2,.7-4.9,4.7-2.9,1.1-3.8-1.7-2.2,2.2-.7,3.2,2.2,1.7,1.9-.4,2.1,2.1-1.1,1.2.4,2.8,2.4,1.5,1.2,2.7,2.8,1.2-.1,1.7,6-.4,10.4-3,1-1-.3-4,1.5-4.3,1.9-1.1,4.8.3,1.7-2.5-1.4-1.4h0Zm-22.9-7.4l-.9-.7-2.1.9-.7,2.3,1.6-.3,2.1-2.2h0Z"/>
    </g>
    <g id="R-CARAGA">
      <path id="PH-SUR" class="cls-6" d="m652.5,855l2.3,1.6.7.3-.9.8-1.7-.4-1.9,1.1-.1,1.1,1.7,1.7,1-.4,1.2,2.3,2-1-.3-1.2,1.1-.7v1.7l-1.3.9,1.2,2.2,2.5,5.1-1,.1,3.1,2.4,5.1-1.6,3.6-3.8,2.8.1-1.2,1.4.5,1.3-1.7,5,.4,3.1-1.5,4.2,2.3,2.1.5-1.1,2.9,5.1,2.8,2.9,1,.3,1.3,1.5.2,1.6-1.4.7,2.5.6-1.3,2.8,2,3-1.5.3.9.9-2,1.4.2,1.6-3.6.8-1.2.8-.1,1.6-1.8.6v1.5l2.4,1.2-4.2-.2-6,3.5-1.6,2.9,3.1,2.1-.8,1.2,2.2,2.6,1.5-.1-.3-.8,4.3,1.3.4-.7-2.8-1.3,1.6-.6,3.9.6,2,1.5,1.8-.7,1.7.6,1.2-1.4.7.8-.8,1.3,2.9.2.4,1.7-1,.7,1,1.1-2.5-.3-1.1,3.2,1.8-.2.5,1.6-1.7,3-2.7.9,1.3,1.6-.8.3.2,1.2,3.3.3,1,1.3-5.4,4.7,2.1,3.2,3.4-1.4,3.6-3.2,1.2.2-2,9.6,1.7,1.1-2.7,3.2.5,3-1.2.3.7,1.8,2.5-.3-3.1,2.5h-1.4l-1.9,3.2h0l-.7-6.7h0l-.4-3.7-3.3-1,4.3-4.3-4.8.5-4.4-4.2-1.9-.3,1-3.8,3.7-4.2h1.4v-1.7l-1.7-2.1.9-4.7-1.5,2.1-5.8.4-5.9-.7-2.8-2.7,3.5-3.9-4.8.5-1.2-7.6-1.8-.1-.2-1.1-.4-4.7,1.7-1.2-.3-.8-3.1-4.7-1.6-5.7-3.6-4.1-1.5-14.3-3.2-5.5-5.8-6.7h0l-.5-6.6h0l12.3-12.5h0l.2,1.5h0Z"/>
      <path id="PH-AGN" class="cls-6" d="m618.8,857.6l2.7-1.2,5.2-.2,9.1,1.7,3.9,3.3.5,4.9h0l.5,6.6h0l.9,5.2-1.5,6.7-3.7,6.4-1.9,5.6.1,3.2-2.3,4.1,2.5,8.1-12.9-.2-4.3,3-14.2.1h0l-.8-14.4,1.7-1.4-2.6-3.6,1.2-2.5-2.2-9.9h0l1,.4,1.3,4.1,3,2.8,3.8.1v1.6l.6-1.5,6.3,1.1,6.7-3-.6-.9,1.7-3.2-1.2-5.1.8-3.8-1.8-3.7v-3.7l-3.2-6.5-.3-4.2Z"/>
      <path id="PH-AGS" class="cls-6" d="m640.7,872.6l5.8,6.7,3.2,5.5,1.5,14.3,3.6,4.1,1.6,5.7,3.1,4.7.3.8-1.7,1.2.4,4.7.2,1.1,1.8.1,1.2,7.6,4.8-.5-3.5,3.9,2.8,2.7,5.9.7,5.8-.4,1.5-2.1-.9,4.7,1.7,2.1v1.7h-1.4l-3.7,4.2-1,3.8,1.9.3,4.4,4.2,4.8-.5-4.3,4.3,3.3,1,.4,3.7h0l-13.7.1h0l-6.8,3-1.7,1.8-3.5-2-1.2-2.6h-22.2l-21.3.9h0l-.5-2.9.9-3.8-1.4-1.6.3-3.9-1.4-3.1.8-3.1-1.4-1-1-3.6-3.8-2.7-1.2-2.5-1.2-15.5h0l-.1-5.7h0l14.2-.1,4.3-3,12.9.2-2.5-8.1,2.3-4.1-.1-3.2,1.9-5.6,3.7-6.4,1.5-6.7-1.3-5.1Z"/>
      <path id="PH-DIN" class="cls-6" d="m620.1,782.3l2.2,1.3-.3,1.7-1.5-.3-1-2.2.6-.5h0Zm12.4-.7l2.8,5.9-2.5,6.4.4,4.1-2.3-1.3.3,1.7,1.6.4,1.1,3.2-1,.9.4,1.5,1.6-.2-1.3,1.4.2,2.1,2.7,4.6-1.9,4.8.5,2.3-1.6,1,3.7,4.2-.5,1.9-1.7-.1-.8,1.1-1.8-2.2-.1-4.1-3.6-1.2,1.8-.4-1.8-1.2h-1l-1.3-1.1,1.5-.6-.5-2.2.1-1.1,1.1-.6-.1-1.9-1.3-.8.3,1.7-2.1-1.4-2.8,1.6-2.7-5.3,1-.7.8-3h1.9v-.6l1.2-.9-2.2-2.9.6-2.5-.2-.7-.3-2.7,3.2.1-.6-4.5,2.3,1.7,1.1-.5,1.2-5.6,2.6-2.3h0Z"/>
      <path id="PH-SUN" class="cls-6" d="m631.5,836.4l2.6.4-1,.9.6,3.4-1.1-.4-.5-3.1-1.4.5.8-1.7h0Zm29.2-.4l3,.3v1.4l-2.6-.3-1.8,2.2v-1.5l-2.6,1-.5-1.8,1.1-.5-.1-1.2,1.9,2.1,1.6-1.7h0Zm-6.4-1.9l-.2,1.8h1.5l.1-.9.7,1.3-.8.5.2,2.5,1.7.3.4,1.6-1.7,2.9-.3,4.1-1.7.6v-1.1l-2.5-1.7-1.1-1.1,1.3-.8.3-.2-.2-2,1.4-.1-.8-3,.7-.6-1.4-1.3,1.1-.5-.5-2,1.8-.3h0Zm-21.8-2.4l1.8,2.8-2.5-1.1h-.6l1.3-1.7h0Zm5.5-.1l1.7.8-1,2.1-1.8-.9-.4-2,1.3-.3.2.3h0Zm-16.1-.1l.7,2.1,2.9-.3.9,1.3,1.3-.5-.7,1.3,1.7,1.6-.3,1.3,1.5,1.9-.7,1.1.7,1.6.2.7,3.3,2.3,2.4-.3,1.8,1.3,2-.5.1,1.9,7.6,1.8,2.1,1.6v1.5l3.1.3h0l-12.3,12.5h0l-.5-4.9-3.9-3.3-9.1-1.7-5.2.2-2.7,1.2h0l-4.5-15.9.7-8.2,2.8-1.9-.2-2.3,1.6,1-.6,1.5,1.5-.2h1.8Zm10.6-8.9l.1,4,1.1.9,2.2-.1-7.1,3.4.4-2-1.2.8-.1-1.4,3.1-5.1,1.5-.5Zm-9.2.3l2.7,3.6-3.2-1.8.5-1.8h0Zm33-3.7l.8,1.3-.7,1.9-1.8,2-1.3.5-.7.8-.9-.4-.2-.9.5.5,3.3-3.3-.5-.5,1.6-.3-.1-1.6Zm6.7-7.5l4.3,13.7-.7,1-1,.5.1.3,1.7,1.3,1.3-.6.5,2.8h1.5l-.4,1.6-3.6,2.8-4.6-.5-1.9-1.2-3.9-3-1.7-1.7.8-1.5,2.5-.1-2.5-1.8,1.2-1.7.5-1.7,2.8-3.7,1.1-2.2-.5-1.7,2.5-2.6Z"/>
    </g>
    <g id="R-XII">
      <path id="PH-NCO" class="cls-18" d="m545.3,988.6l4-1.9,3-.2,2.2.6,2.9,3.7,3,.7,3.8-2,7.7,2.7h0l1.3,4.5-1.8,1.8-.8,2.7,2.1-1.1,1.6,1.2v2.1l2.8,1.3.1,1.2,3.5-1.2,3.2,2.3,5.5-.4,1.3-3.4,6.4-1,.8-4.2,2-3.6,1.7.1.2-1.6,2.3.9h0l.2,1.1h0l.8,4.5-1.7,2.9.4,6.2-1.5,2.5,1.4,6.8-1.4,4.4,1.1,2.4,3.1,2.6.4,4.6,1.8,2.6-2.7.3-1.6,4.7-6.5,5.5-.3,3.1-1.2,1.3-1.4-.9-1.8,1.1,1.5,4.6h0l-8.5,2.6h0l-7.7-4.6-4,1.1-2.1-.9-.5-16h-1.3v-.8l.2-3.5,2,.1.2-1.9-2.1-.1v-1.8l-6.2-5.9.3.8-1.6.5.1,2,2.6,1.3,1.1,1.8-1.3-.1.5,1.9-1.4-1.4-.8,2.2-.2-1.1-1,.2-.5,1.4,1.6.8,1,2.4-.7.8,1,.6-2.4,1.9.3,1.4-.9.5-3.7-2-2.8.3-3.9-5-2.3.7-5.3-4.3h0l5.8-10.6-2.8-.8-4,1.3-3,4.4-3.2-.5,5.7-9.6,1,.5,4.7-10.8-3.8-5.6.5-9.7Z"/>
      <path id="PH-SAR" class="cls-18" d="m614.8,1150.3l2.2,1.1-.6,3.9-1-.8-4.1.7-.2-1.4-1.4-.2,3-2.9,2.1-.4Zm5.8-4.3l1.5,2-.5,3.4-1.6,2.4-1.5-3.4,1.6-1.5-1.3-.8,1.9-.1-1.1-.9,1-1.1h0Zm-78.5-52.3l10.8,4.7,2.8,3,5.8,1.9,9.5,5.1,16.2.6,2.6-4v7.1l3.7.4h0l-.3,3-1.6,1.5.9,1.5-1,1.1h-10.9l-7.3-2.2-13.2-6.9-2.7-.1-1.8-2.2-4.3-.6-6.7-4.7-5.4-2.3h0l2.9-6.9h0Zm56.3-18.7l5.7,3,5.1-2.3,2.3-3.5,5.2,1.5,4.5,6.6.5,4-2.4,2.7,3.4,5.2.4,7,2,2.3-.2,3.6-3.9,10.9.5,4.2-1.3.9-.1,2-5.4,11.4-6.3,4.7,1,1.4h0l-2-1,1.1-3.5-1.6-4.5-3.5-1.9-1.5-3.6-2.5-.5.5-1-1.2-1.1.5-2.7,1.9.9,1-2.6-.5-1.8,4.2-2.2-.5-1.3,1.9-3.1-1.3-7.7-2.3-1h0l-.4-5.5,2.8-4.9-.1-2.4-14.2-5.1,2.8-5.8h2l1.1-3,.8-.3h0Z"/>
      <path id="PH-SCO" class="cls-18" d="m542.1,1093.7l-5.7-2-2.7-6.3,19.1-.5,3.7,1.3,3.6-6.1-.3-3.3-1.5-.9.1-2.3-.9.1-.5-1.9,2.8-7.8,1-.5,1.3,2.1,5.6-5.2,6.1,10.1,26.3-.3h0l.1,1.9-2,3h0l-1.1.4-1.1,3h-2l-2.8,5.8,14.2,5.1.1,2.4-2.8,4.9.4,5.5h0l-5.5-.6-1.6,6.2-2.9,4.8h0l-3.7-.3v-7.1l-2.6,4-16.2-.6-9.5-5.1-5.8-1.9-2.8-3-10.4-4.9Z"/>
      <path id="PH-SUK" class="cls-18" d="m520.6,1054.5l12-.3,1.2,2.2,16.6.1,5-5.3-1.7-4.8,7.4-1.6-.2.9,2.9.2-2.1,6.2,5.8.1,2.3,8,1.5,1.7,6.2-.5,8.6-4.7h0l8.5-2.6h0l2.3,1.7-1.5.7.1,3.1,3.5,4.3,1.1,6.3h0l-26.3.3-6.1-10.1-5.6,5.2-1.3-2.1-1,.5-2.8,7.8.5,1.9.9-.1-.1,2.3,1.5.9.3,3.3-3.6,6.1-3.7-1.3-19.1.5,2.7,6.3,5.7,2h0l-3.2,6.9h0l-2,.4-10.2-7-1.3-4.5-4.4-3.4-2-4.9-.9-.7-.9,1.3-1.5-3.4.5-1.4v-.7l-1.3-4,.6-.7-.9-.4.3-1.1,1.3.6,1.5-1.1-2-.7,1.2-5.4-2.7-6.6,1.9-2.4h4.5Z"/>
    </g>
    <g id="R-XI">
      <path id="PH-COM" class="cls-1" d="m670.3,963.2l-1.1,2.1,7.2,23.9,3.1,14.6.4,12.8-24.9,12.8-.7,1.5h0l-4.2-3.7.6-2.9-4-6.4,1.3-6.9-.4-1h-1.3l.8-3.3-1.2-1.9.5-2.1,3.8-1.9-2.4-3,4.9-1.1,1.4-7.6-2.5-3.2,3-5-1.8-4.9-3.8,4.4-4.8,8.2-1.7-.1.3-2.5-1-2.6-2.2-1-.8-2.4-1.8-.6-2-15.8h22.2l1.2,2.6,3.5,2,1.7-1.7,6.7-3.3h0Z"/>
      <path id="PH-DAV" class="cls-1" d="m635.6,1039.1l1.5.2,1.1,1.6-.5,2.9-1.9-.7-1.3-2.9,1.1-1.1h0Zm1.6-17.3l1.9,2.1,2.1.4,2.6,3.3-1.6,6.2,1.2,6.8-2,3.4-3.1-5.3-.8-7.6-1.2-.5-1.2,1-1.1-2.2,3.2-7.6Zm-2.3-58.5l2,15.8,1.8.6.8,2.4,2.2,1,1,2.6-.3,2.5,1.7.1,4.8-8.2,3.8-4.4,1.8,4.9-3,5,2.5,3.2-1.4,7.6-4.9,1.1,2.4,3-3.8,1.9-.5,2.1,1.2,1.9-.8,3.3h0l-1.5-.2-7,4.7h-3.2l-4,4.1-7.6.4-.3-23.3-18.3-.5h0l-.2-1.1h0l.1-4.7,3.5-.4,1.5,1.6,3.3-.8,2.1,1.2,2.5-2.5.9-8-1.8-3.8.2-6.9-2.8-5.4h0l21.3-.8h0Z"/>
      <path id="PH-DAS" class="cls-1" d="m604.3,995l18.3.5.3,23.3,7.6-.4,4-4.1h3.2l-2.5,2.2v1.3l-2.2,1.1,1.2,8.2-1.1,2.2-3.2,3.6-1.8.5-.3,1.2-1.3-1.6-2.5,1.4-2.7,3.4.2,4.4-2.3,1.7-.3,1.9-2.4,1.6-2,3.3v.7l-.1,2.8-1.3,2.1.9,6.6-1.9,2.5,2,.1,4,1.6.3-1.3-2-1.9.7-.9,2.5,2.9,1.5-.3-.2,2,2.7,1.2-.1,2.6,2.4-1.1,2.2,1.4-1.3.7.6.7,1.6-.3-1,5.3,1.9.6.8.6,3.9,11,2.3,3.3.7,3.2-.7,3.5.8,1.4-1,5.7-2.9,7.6-10.8,12.4-1.1,3.4-6.1,9.5-5.9,1.3-.8-1.1h0l-1-1.4,6.3-4.7,5.4-11.4.1-2,1.3-.9-.5-4.2,3.9-10.9.2-3.6-2-2.3-.4-7-3.4-5.2,2.4-2.7-.5-4-4.5-6.6-5.2-1.5-2.3,3.5-5.1,2.3-5.7-3h0l2-3-.1-1.9h0l-1.1-6.3-3.5-4.3-.1-3.1,1.5-.7-2.3-1.7h0l-1.5-4.6,1.8-1.1,1.4.9,1.2-1.3.3-3.1,6.5-5.5,1.6-4.7,2.7-.3-1.8-2.6-.4-4.6-3.1-2.6-1.1-2.4,1.4-4.4-1.4-6.8,1.6-2.5-.4-6.2,1.7-2.9-.7-4.2h0Z"/>
      <path id="PH-DAO" class="cls-1" d="m684,963.1l.7,6.7h0v1.9l1.8,1.2-.8,1.1.7,1.6,3,.1-.1,1.3,2,.4.5,1.2,3.1,3.7,2.3-.2,2.7,1.7-1.4,1.6.7,1.7-.6,2.7,1.8,2.2h-1.1l-.3,2.1,1.8.7,1.2,6.2-.3,2.5-2.7.1-.5.9.2,2.4,1.9.5-1.6,1.6,1,3.5-1.4,1.1,1.1,1.8,2.8-.1-2.9,4-.3,2.3-2-.3.2,1.6-1,1.1.6,1.6-1.2.3v1.4l-2.1.5-1.6,2.3.5,1.6-1.6.6-.4,2.7.9,1.8-3.2-.7-1.1,1-2.4-.1-1.9-1-1.7,2.1-.5,2.8-2,.8.6,1.7,4,3.4.3,4.1-2.7-.1-1.8-1.4-.2-1.7,1.1-1.3-1.7-1.6-1-2-1.5-1.7-3.3-1.2-1.4,3.8,1.3,1.1-.9.6,5.7,8.9-3,8.7.9,6.1-1.4,2.7v2.6l1,3.5-1.1.3-1.1,2.6.7,5-1.1,3.8-.4-4.9-1.5-2.5-2.2-1.2,1-2.3-2.9-3.4-2-4.8.7-4.9-1.8-4.2,1.8-2-.7-1.1,1-2.8-1.6-1.8.3-6-4.1-2.3-3.4-3.9,1-6.1-2.9-2.5.6-1.1-1.2-.9h0l.7-1.5,24.9-12.8-.4-12.8-3.1-14.6-7.2-23.9,1.1-2.1h0l14.1-.1Z"/>
    </g>
    <g id="R-X">
      <path id="PH-BUK" class="cls-32" d="m554.3,945.9l1.2-2.2-.3-2.4.9.4,1-1.1-.4-2.7,1.2-1.8.2-4.2,14.4.2-.2-3.8,3.9-8.8,11.7,1.1,15.6-.2h0l1.2,15.5,1.2,2.5,3.8,2.7,1,3.6,1.4,1-.8,3.1,1.4,3.1-.3,3.9,1.4,1.6-.9,3.8.5,2.9h0l2.8,5.4-.2,6.9,1.8,3.8-.9,8-2.5,2.5-2.1-1.2-3.3.8-1.5-1.6-3.5.4-.1,4.7h0l-2.3-.9-.2,1.6-1.7-.1-2,3.6-.8,4.2-6.4,1-1.3,3.4-5.5.4-3.2-2.3-3.5,1.2-.1-1.2-2.8-1.3v-2.1l-1.6-1.2-2.1,1.1.8-2.7,1.8-1.8-1.3-4.5h0l-.3-1.4-3.5-2.2v-2l-1.8-1.6-.1-3.1-1.4-.7-3.5-6-2.1-.8-1-1.8.5-1.5-1.9-1.1-3-5.8-1.8-7.9-2.7-3.3h0l4.7-1.5,1.1-2-1-1.7.4-1.9Z"/>
      <path id="PH-CAM" class="cls-32" d="m564.8,871l5,3.9,1.4,4.2-.5,1.1,1.1.8-2.2,3-2.4-1.7-4.8-1.2-3-3.7.6-4.6,4.8-1.8Z"/>
      <path id="PH-LAN" class="cls-32" d="m531.1,939.2l5.6-1,10.9.7,4.5,2.9,2.3,4.2h0l-.3,1.9,1,1.7-1.1,2-4.7,1.5h0l-2.1-1.6-8.7-2.6-1-1.2-2.4.3-1.6,5.6.2,3.6-4.7,4.9-6.3,1,.8,2.7-2,4.4-6.4.4,1.6,5.4-2.6,5.3.4,2.2-1,2.1-11.9-3.7.1,1.3-1.7,2h0l-3-.3-.8-2.1h-2l.2-2.4-1.3-1.9-2.1-.5v-1.1l-5.1-1.2h0l3.5-9.1h0l1.8-2,3.8-1.4,2.8-4.3,3.4-2.1,1-1.9,1.5.6,2.2-.8,2.4-2.8,6.2-3.3,10,.9,4.8-1.9,3.1-4.9-1.3-3.5Z"/>
      <path id="PH-MSC" class="cls-32" d="m485.1,914.1l.8.6-.5.8,1.7.6h3.5l4.1,4.5,2.9,3.3-.2,2.2,2.7,2.1-.1,1.6,1.6,2,.6,5.8,1.2,1.7-1.1.9-.1,2.2,1.3,9.1-5.6,4.2-2,3.7-3.5-.3-5.5,3h0l-.1-1.3-2.4.5-2.8-1.5-1-12.5h0l.4-29.7h0l.8.4.9-1.2.6.4,1.2-1.8-1.7-.5,2.3-.8h0Z"/>
      <path id="PH-MSR" class="cls-32" d="m600.8,883.1l2.2,9.9-1.2,2.5,2.6,3.6-1.8,1.4.8,14.3h0l.1,5.7h0l-15.6.2-11.7-1.1-3.9,8.8.2,3.8-14.4-.2-.2,4.2-1.2,1.8.4,2.7-1,1.1-.9-.4.3,2.4-1.2,2.2h0l-2.3-4.2-4.5-2.9-10.9-.7-5.6,1h0l1.2-3.7,1.5-1.3.1-4.9,2.3-5.9,9.7-6,2.1.2-.5,2.2,3,1.2,2.3,2.4,1.9.2.6,1.4,5.5.7-.9,1.5,1.5-1.3.4,1.7,2.5.8,2.8-1.5.9-1.5-.8-3.3,2.1-2.7-.7-3.5-1.5-.7-.1-3.1,1.3-1.8h1.4l-1-3.6,1.8-4.2-.8-11.1,2.8-2.1,3.7-.3,11.3,6.6,3.9,6.6,6.2-1.3,1.8-6-1.2-6.1,1-1.3.2-3.7,1.5-.7h0Z"/>
    </g>
    <g id="R-IX">
      <path id="PH-ZAN" class="cls-10" d="m469.2,909.9l3.2.8,1.1,2.4,3.6-1.3.5,1.4-1.6,1.8.2,1.1,1.8,1.5,1.6-.8.1.9,1.4-.1h0l-.4,29.7h-12.1l-2.5-1.2-10.7-.6-.5,9.8-1.9,4v4.1l-6.5-.2-8.4,6.2-3.4-.3h0l-11.8-1.8-6.6,1-8.1,3.8-7.3,6.1-6.8,3.3-5.9,8.8-3.4,7.2-.8,5h0l-3.6,7-.2,6.6-1.5,4-5.4,5.1-12.4.3h0l5.2-7.5,2.4-1,.4-1.3,3.7-1.1.1-1.4-2-1-.5-2.3,2-3.1-.1-3.4,2.6-3.6-1.2-2,2.1-.1,3-3.6-.6-1.1-.9.6-1.3-1.1,2.1-3.2v-2l-1.3-4-2.3-1,1.3-1.9.6,1,.9-.6-.3-1.5.1-1.8,1.5-.4,1.4-3.8,4.8-3.6v-3.8l8.6-5.7,8.5-2.5,3.5.5,5.3-1.3,3.3-2.2,2.4-3.6,1.8,3,2.5.7,6.8-.7,3.4-1.9h3.9l6-4.9-.1-2.6-2-.8-2.2-3.4,3.4-1.5-.2-6.3,2.1-1.1,1.6-4.5,2.4-1.8,8.6-1.3,6.3,1.5,2.2-.5,2.2-3.2,1.4-5.3,1.5-.6,1.6,1.4,1.6-.6.4-2.2-1.6-.9-.3-.6-1.1-1.5v-1.6h.8Z"/>
      <path id="PH-ZSI" class="cls-10" d="m387.8,1036.3l.6.7-.5,2.3-3.1-.5.5,1.1-2.7,2.3,1.1-2.8-.6-.7,1.2-1.5,1.4.6,2.1-1.5h0Zm48.4-29.3l.7-.5-1.2-1.4-2.2-1.1-.9,1,.3,3.5-.9.7-3-4.8-2.5.9-1.1,5.6,1.6.6-.3,3,1.9,1.4,1.2-2.3,3.8-.9,1.4-2.1,2.2.7-1.8-2.4,3.7.6-2.9-2.5h0Zm10.7-30l-12.3-1.6v-6.3l-11.8-1.8-6.6,1-8.1,3.8-7.3,6.1-6.8,3.3-5.9,8.8-3.4,7.2-.8,5-3.6,7-.2,6.6-1.5,4-5.4,5.1-12.4.3-.3,5,2.9,8.2,12.4,5.6,3.1-1.4.4-1.2,2.1-2.2,2-6.1.1-.9-.6-1.5,3.8-3.1-.1-1.3-1.1-.1,1.4-2.1-1-2.2,1.3-.4-.2-.7.3-1.7,1-.3.8-6.6,2-1.1.8.5-.2,1.6,1.1-.5,3.8-5.6-3.5-.5.9-4.8-.1-.1,3.4-1.8,1.4-1,1.9-2.2,1.4-.3h1.3l.2-1.8,1.4-1.3-4,.9-1.3-.3-.2-1.1,4.3-3.2-.5-1.5,2-2.8,1.2-.2,1.3-3.1,5.5-1.8.3-1.3,1.1.4,1.3-1.3,1,1.7,1.5-1.6,1.9.3,1.9,2.5,1.6-.9,3.2,1.3.5,2.3-1.5-.9-.2,1.5-1.1,2.2,1,2.7-.7,1.7.2,1.7,1.7.9.8,2.9-.8,1.3-1-1.7-.7.5-.7,3.8.1,1.2,1.4-1.4,1.3.8-.3,3.3,1.3-.9.7.8,2.4-2.1v-1.6l-1.4-.6,2.1-1,.3-2.3,1-.3,1.2.5,2.2,4.2,1.6-.6,1.4,2.2.9-1.6-.5-1.5,2.8-5.7-.6-3.5h2.3l-.3-1.9.5-.6.1-1.4,1.6.2,1-2.1-.7-7.6h0Z"/>
      <path id="PH-ZAS" class="cls-10" d="m434.6,969.1l3.4.3,8.4-6.2,6.5.2v-4.1l1.9-4,.5-9.8,10.7.6,2.5,1.2h12.1l1,12.5,2.8,1.5,2.4-.5.1,1.3h0l.3.7.2.8.1,1.2,1.8,1.6h0l-3.5,9.1h0l-4.1-1.7-7.6,2.9-2.7-.3.5,2.5-.7.9,1.8.4-.2,1.2,2.8,1.4-.3,4.4-1.1,2.9-5.7,1.7.3,3.7-2.4-1.7-1.4,1.9,3.2,1.4-.1,3.2,1.1,2.4,1.2-.6,2.8,2.4-1,1.8,1.1,2.7-2.2.1-.5,1-2.5-1.2-.5-1.7-3.2-1.2-.7-1.9-2.7-1.9,1.2-4.6-5.6-.6-3.1,2.5,1.2,1.4-1.6,1.4-1.1-1.2.6-1-3.9-1.4-.9-3.3,1.9-.4.1-1-2.4-1.6,1.8-.2,1.1,2,2.8.1,1.5-1.2-1.4-3.6-2.7-.2.3-.9-1.2-.6,1.3-1.9-.5-1.8-1.7-1.6-1.3,2.1h0l-.9-7.7-12.3-1.6.4-6.2h0Z"/>
    </g>
    <g id="R-VIII">
      <path id="PH-BIL" class="cls-35" d="m544.2,690.4l2.9.1,5.1,2.2,3.3,7.9,2.5,1.9-.8,4.1-2,1.2-4.8.3-.6-.8-1.7,1.2-2.7-1.8-1.5-3.9-1.2.3-1.1-1.7.3-2.6-2.8-3.6.3-1-1.1-.9,2.1-1.7,3.8-1.2Zm-7.5-7.9l2,.8-.2,2.2-1.7,1-2.4-2.1,2.3-1.9h0Z"/>
      <path id="PH-EAS" class="cls-35" d="m655.4,759.2l.7,2.2-2.3-2,1.6-.2h0Zm-19.1-3.6l2.4,1.9-1.2,2.5.5,1.3,6.8,1.2.6,1-.8,1.6-4.2.5-2-2.2-1.9-.4.2-.9-2.3-.7-.8-3,2.7-2.8h0Zm-3.6-13.4l.5,1.9-.9.5-1.6-1,.1-1.2,1.9-.2Zm8.9-2l5.2,6.9-1,.1-4.4-5.5.2-1.5Zm-44.6-92.8l1.1-4.1,2-2.2,7.1,8.1,2.1-1.3h0l-.3.6,1.4.2,1.3-2.7,1.8.3-1.8,1.7.7.6,1.2.4,1-1.2.5.9.5-1.2,1.9.9,1.9,2.2-.6,1.2,1.6-.3.1,1.4,1.1.7v-1.1l1.5,1.9-.1,1.6-.9-.9-.1,1-3,.4,1.4,1-.5,1.1-1.6.1v2.4l2.6-.2.6.8-1.5.3,2.1,2.2h1.3l-4.4,5-2.1,2.7-.4,4.6,1.7,1.8-.5,3.4,1.9.5.8,1.9-.9,1.5-1.6-.7-2,1.7h1.4l-.4.7,1,.7,1.6-1.4,1.5,4.7-.8.7,1.5.9-.8.8-2.1-.5-.4,1,1.2.9-1.8,2.2.7,1.7,1.8-.1-.3,3.4,3.3,3.8.2,1.5-1.8,1.9,2.1-.5,1.6,1.2.6,2.4.8.9,1.5-.4,1.4,2.5,2.2.7-1.4,4.1-4.9,3.1-1,4.5,4.6,1.5-.7-.7h1.9l.3-.8-2.3-1.9.9-.6,4.8,2.6,7.1,12.2-.8,1.4-2.5-1.1-1.2-2.8-2.2-1.3,2.2-2.3-2.6-.2-.4-1.8-5.6,2.1-.5-.3-1.2-.7.9-1.6-2.9-.1-1.3,5-1.5-1.4-1-.5-1-1.4-.9.6.4,1.4-1.4-.9-.2,1.4-1.8.7-.2-1.4-2.3.1-1-1.5-3.1.2-1.4-2-2.3.5-.9,1.4h0l-.3-14.7,4.2-6-1.5-2-4-1.4-1.8-11.4,1-2.6,4.4-3.2-.9-13.1-4.6-10.4h-6.7l-.2-12.7,2.4-1.6.5-7.3h0Z"/>
      <path id="PH-LEY" class="cls-35" d="m536.2,701l8.9,9,2.3,3.9.8-1.3-1.3-2.9,1.2-.7,4.2,2.2,1.1,6.3,2.4,2.6,1.7-.5,3,1.4,4.4-1,6.6-5,1-4.2,3.4.5,1.2,1.2,1.8-1,.8,1,2-1.4,1,2.5,1.7-.4-.8,1.5.8.7-1.2,1.3v5.3l1.1,2,2.2.1-.2,2.3,1,.8-.9,3.9,2.3,6.6-.4,9.8-2.3,6.7,1.7,7.8,1.1,1.5,5.4,1.6-.8,1.6,3.2,3.8h0l-7,7.3h-8.2l-3.4,8.8.5,10.3-3.8.8-5.2,5-1.2-.5h0l2.2-9.3-1.8-2.9-2.4-1.4-.9-8,3.3-3.9.3-6.2,2.4-2.8-1.5-8.6-5.5-7.7-1.7-4.3-2.2-1-4.2-4.6-1.8.3-2.4,2.4.9,3.5-2.5,4.6-2.8.1-2-2.3-1.2.6.4-2.2-1.3-2.2-.3,2.6-2.9-.8,2.5-4.4-.3-3.7-2.6-2.3,2.3-3.4-1.3-6.8.1-1.7.2-1.2-.8-2.3-.7-1.1.3-1.2-2.1-.7v-3.5l1.4-.3-2.2-.9-.4-1.3,1.7-.8-2.3-.6-2-5.8v-3.3l2-1.8Z"/>
      <path id="PH-NSA" class="cls-35" d="m520.5,647.1l1,1.1-1.1,1.4-1-1.8,1.1-.7Zm12.9-5.3l-2-3.1-.3-4.1,2.5,3.4-.2,3.8h0Zm-9.7-8.7l3.6,5-.8,2.3-3.1-3.8.3-3.5Zm20.6-7.5l.3,1.3,1.7.6-1,.9-2.1-1,1.1-1.8h0Zm4.7-.1l2.1,2.9-1.5.2-2.1-2.9,1.5-.2h0Zm-9.4-.6l1.6.4-.2,1.3-1.5.3-.5-1.9.6-.1h0Zm-.3-2.9l2.5,1.9.2,1.8-2.4-1.1.5-1.3-.8-1.3Zm45.9-1.1l1.5,1.3.4,2.2,3.8,1.6-1,1.4-.6,1,1.9.5-.1-3.2,1.7-.3,1.1,1.4,2.4-1.6,8.8,6.9-.5,1.4,2.3.3.3,3,3.1,1.7-2.8.6,1.2.8-1.3.2.5,1.5-1.4.6.3,1.9,2.2.2-2.5,1.6.5,1.2,3.3-1.9-.7,1.2.8,1.1-1.3.3h0l-2.1,1.3-7.1-8.1-2,2.2-1.1,4.1h0l-3.5.4-9.5,3.9-4.9-1.8-3.6,8.5-1.9-2.7.9-3.2-9.3-5.3-5.3,3.6-11.5-6.9-4,3.8-5.2.1h0l-1.7-4.8.8-2.9-.6-.4-.5,1.2-1.4-4.7-.1-.3-1.5-1.8-.2-3.8-1.5-2.3,1.4-2.5,3.2,2.1.3,1.5.8-.8,1.1.6-.1-1.3,2.7,1.3v-2.1l2.1,1.6v1.1l1.6-.3,1.7-.9-.9,1.3.5,1.2,1-.1-.1-1.8,2.7,1.3h3.4l.6-.8,6.9.9,5.3.3,4.6-2.1,3,1.3,2-.5,1.1-2.4-1.8-1.4,2.1.5.3.4,2.9.3,1.8-1.3.5,1.5-.9.5,2.8.4,1.7-1-1.4-5.8h0Zm5.4-2.9l1.7,6-4-1.4,1.4-.1.5-1.2-2.2-.9.1-1.5.6-.9h1.9Zm-51.1-.9l2,.8.3,3.3-2-1.2-.3-2.9h0Z"/>
      <path id="PH-WSA" class="cls-35" d="m573.7,691.3l2,.1.7,1.3,1.5-.4.3,1.1-1.7,1.2.7,1.9-3.3-.6.3-2.8-1.4-1.1.1-1.8.8,1.1h0Zm-7.2-2.4l.5,1.8,1.3.5-.1,1.3,2-1-1,1.6,2.9,1.8-1.4,1.9.6,1.4.8-.7,3.2.7-1.4,1.6.6,2.4-1.2,1.3-2.3-1.4,1-1.3-2.9-.6-.3-2.5,1.5.9.5-.8-2.9-3.2-.9.7-.4-2.6-.8.5.3-2-.6-.8,1-.7-1-.9,1,.1h0Zm1.4-1l2,1-1,2-1.3-1,.3-2h0Zm-8-13.3l.1.9,1.5-.1-.5,1.5-1.7-1.4.6-.9h0Zm-14-.6l1.2,2.9-1.2.7-2.4-.9.4-2.2,2-.5Zm-8.5-2.4l.5,1.6-2,2.7-2.3.3.1-2.3,3.7-2.3Zm6.6-2.2l1,.9-.7,1.6-1.7-.8v-1.4l1.4-.3h0Zm-14.4-6.8h1v1.8l-1.6-.7-2.8,2.7-2.2-1.1,1.7-2.3,3.9-.4h0Zm9.6-14.9l5.2-.1,4-3.8,11.5,6.9,5.3-3.6,9.3,5.3-.9,3.2,1.9,2.7,3.6-8.5,4.9,1.8,9.5-3.9,3.5-.4h0l-.5,7.4-2.4,1.6.2,12.7h6.7l4.5,10.5.9,13.1-4.4,3.2-1,2.6,1.8,11.4,4,1.4,1.5,2-4.2,6,.3,14.7h0l-1.3,2.4-1.9-.9-1-6.2-3.2-6.9-5.8-.8-4.7,1.4-2-1.2-.4-2.9,1.7-2.3-.9-5.1-1.5-.8-.3-1.6-1.3.3-2.8-1.6.2-1.4v-.6l-1.3-.8.1,3.4-.8-.8-2.8.6-1.4-1.9.8-.5v-.9l1.9-3.3,1,1.6,1.6-.4.4-1-1.6-.4.3-1.4,4.8.4,1.3-.9-.6-1,2.1-1.5-.8-4,4-3.1.8-1.6-.2-1.7-3-1.5-6.4,2.9-1.7-1-.4-1.8-1.7-1v-1.6l-6.1-3.7.2-1.1,1.6-.7-.7-1.2-2-.3.4.8-2.2.1.9-1.3-.5-1,1.9-.7-4-.8-.9-2,.7-.3-1.4-1.6-.2-.6-3.6-3.2-3-1-4.9.2-5.5-5.4-.2-1.4-4.3-3-2.6-6.6h0Z"/>
      <path id="PH-SLE" class="cls-35" d="m596.7,770.5l3.1,3.3-2,3.2,2,4.4-.9,3.3,2.6,3.2,1.8-.7,1.3,1.7.7,5.3-1,2.9-2.5.9-6.4-2.2.5,7.6-.8.8,2.5,2.1,3.5.4,2.3,6.4,2.6,3.5-.7,1.8,1.9,2.6-.4,1.4-2.6.1-.6-2.5-1.8-1.1-2.7-5.5-3.7-1.8-1.3-3.7.4-4.8-2.8-2.9-4.2-11.1-1.2-.9-2.9.5,1.3,8.7-.7,3,3.4,9.2.3,6.1-6.7-5.6-2.3-.6-1.1-2.3-8.1-.9-1.5-1.8.2-2.5h0l1.2.5,5.2-5,3.8-.8-.5-10.3,3.4-8.8h8.2l7.2-7.1h0Z"/>
    </g>
    <g id="R-VII">
      <path id="PH-BOH" class="cls-16" d="m501.5,842.5l2.5,1.3-.2,1.6-5.1,3.9-3.4.4-.4-2.2-2.1-.9,8.7-4.1h0Zm-4.5-18l1.2.3-2,1.8-.5-2.1h1.3Zm3.5-1.6l2.8.3-1.9,1.6-2-1.6,1.1-.3Zm57.6-17.8l-2,3.1,1-.2.1,1.9-3.2-.3-.6,2.7h-1.3l-.6-1.9.9-1.5-1,.3v-1.5l2,.3.2-1.4,1.5,1.6.4-2.1.8-.5,1.8-.5h0Zm-23.7-1.5l3.6,2.5.1,1.8,2-2.9,1.7,1.7.2,1.8,1.6.3,4.7,3.4,1.8-1.5,3.1,2.6,1.1,3.3-1.2.4.7,4.4-1.3.5,2.8.8-1.2,2.9-3.3,1.7,6,3.3-.5,3.8-1.4,1.6-3.7.8-1.7-2.9-.9.1-2.7,2.9-2.8.9-.7,4.2-10.3,4-5.2-.9-9.3,1.5-14.9-3.5-.7-2.3,1.9-3.7-.5-.5-1.8-1.3-3.7.2-.2-4,1.5-2.9-1.4-1,.1-1.2,2,.6-.4,1,1.9-1.5.3-1.7,2.3-.9-.4-1.1,1-1.3.8,1.2,5-3.3,4.8-.8,1.2-1.6,1.4-5.9,2.7.1,3.9-6.4,9.1-.1.9-1.1h0Zm-7.7-.3l.6.5-1,1.3-1.4-.7,1.8-1.1h0Zm5.5-2.2l-1.8,2.1h-2.1l-.6-.7,4.5-1.4Zm-6.5-.3l1.1,1.1-2.5.5,1.4-1.6Z"/>
      <path id="PH-CEB" class="cls-16" d="m518.6,795.2l-1.3,3.7-.9-.3-.6-.9,2.8-2.5Zm-6.1-3.5l1.4,1.6,2.8-1.5-4.5,5.5-1.1-.1-1.8,1.2-.7-1,1.8-1.3-.3-.6-.7-.1-1,.6.5-2.2,3.6-2.1h0Zm32.7-28.2l5.1,2.8.4,1.8-5.2,2.1-3-.1-1.2-1.2-.2,1.5-5,2.8-2.7-.3,2.1-4,.8-4.8,4.2,1.4.7,3,2-4.2,2-.8h0Zm9.1-7.2l-1.3,4.1-3.3,2.2-.2-2.2,2.5-3,2.3-1.1h0Zm-36.5-34.3l-.4,1.4,1,.4-2.4,3.6-.2,4.3-3.8,5.5,1,.2.1,1.4,3.2-.2.2,5.8-1,3.5,1.8,3.5-1.7,3.2-.2,4.2-1.8,1.9,2.1,12.9-1.1-.4.5,2.5.6-.7.2.8-.3,4-2.5,6.2,1.7,2.2-3.4,2.8-.6,1.3-5.9,2.9-1.5,3-7.1,1.7-.7,2.2-5.1,5.1-.3,3.1-2.9.1-1.9,6.5.7,3.4-1.3,2.8.1,2.6-2.5,1.2-1,3-1.7,1,.1,3.3-2,2v2.6l-3.1,9.2-8.3,10.9-3.7.5-.3-6.2,3.4-21,2-2.3v-3.8l1.5.1.8-2.7-.6-2.3-2-.8.2-3.1,1-.7.5,2.2,1-.6.9-5.5,2.4-.9.2-1.3,4.9-5.2.7-3.1,4-5.1-.1-4.8,6.3-6.2.6-3.1,2.8-3.1-.7-3.4,2.9-4.6-.2-2,4.3-6.5,2.3-1,2.5-7.1,1-3.4,3.8-8.6v-1.3l-.8.6-1.5-2.3,2.3-2.3.1-3.1,2.3,1.7-1.6-7.6,3.4-3.2.6-3.1,4.2-.7Zm-24.1-1.6l1.5,1.2,1.3,5.5,2.9,3.2-.1,1.1-6.3,1,.8-2h-1.1l-2.1-4.7,3.1-5.3h0Z"/>
      <path id="PH-NER" class="cls-16" d="m412.7,859l2.5-5.9,6.5-6.5,18.5-23.6,2.1-7.4,6.8-11.3,6.3-7.6-5.2-10.5,8.9-.2,6.1,2.3h0l-.3,7.7-3.3,6.9-.3,4.1-3.9,9.2-3.3,3.7-.4,2.3-1.9,1.4v3.7l-1.4,1.1,2.1,9.7-.4,5.4-2.3-1.6-1.3,1.9,1.2,2.2,2.5.3.5,1.4-1,1.1.1-1.2-1.1-.5-1.3,2.7,2.5.1,2.2,5,3.2,1.1,2.3,6.2,2.8,2.1,1,2.4-2,8.1-6,8.5-3.7,1.4-1.8,2.2-1.1-.6-2.7-.9-4.3,2.1-5.4-2.7-4.6-11-1-7.6-5.1-2.5-8.7-1.2-4.3-3.5h0Z"/>
      <path id="PH-SIG" class="cls-16" d="m484.6,867.8l2.1.4,2,4.3,1.8,1-2.2,2.4,3.3,3.3-1.5,1.8-2.9-.4-1.3,1.7-2.5.6-2.1-.5-7.8-6.8,1.3-2.3,2.2.8,4.3-.9,2.4-1.8.9-3.6Z"/>
    </g>
    <g id="R-VI">
      <path id="PH-AKL" class="cls-14" d="m365.1,673.3l8.8,7.4,6,.9,2.5,1.4,1.8-.5,1.2,2,1.4-.6,3.7,4.5,2.3-.1,1.7-.1-.6,2,2-1.1,2.5,4.3,5.6,4.6-1,.8-4.9-4.9-2,.8,2.3,2,.1,2.3,1.6.3.4-1.5.9,2.1-1.3.1.6,1.7,2.1.1,1.1-3,3.1,1.2,2,.9-2,.7,2.7.5h0v1.2l-4.7,4-8.4.1-1.8,3.3-1.5-.4-1.4,4.1-2.1,2.3-2,1.6-5.4,1.5h0l-1.3-2.2.6-3.2-1.6-.9-.2-3.1-2.2-2.4,1.4-4.4-1-1.8.7-2.8-.6-3.6,2.7-5.5-1.2-2.9-12.7-5.2-3.9.5-3.2,3.1-3.3,1.3h0l2.7-3.9.3-6.2,4.4-1.3,1.1-2h0Zm-2.6-4.6l.5,2.5,1.4.8-.5,1.1-2.6-3.6,1.2-.8h0Z"/>
      <path id="PH-ANT" class="cls-14" d="m356.8,686.3l3.3-1.3,3.2-3.1,3.9-.5,12.7,5.2,1.2,2.9-2.7,5.5.6,3.6-.7,2.8,1,1.8-1.4,4.4,2.2,2.4.2,3.1,1.6.9-.6,3.2,1.3,2.2h0l.1,7.2.6-.4.4,3.5,1.7,2.4h0l5.9,8.2-.5,5.2.8,1.7-2.1.5-1.1,2.6-1.3-.2-4.4,4.5-1.9,5.8-7.4,4.9-2.9,4.9-.9,3.6-.8,5.9.2,1.4,1.2.5h0l-5,4.5-3.6-3,.2-4.3,3.2-3.4,1.5-8.6-.9-3.6-3.1-3.5,2-3.4,2.5-8.9,5.1-7.5-1.5-11.7,1.4-2.6-.1-2.8-1.8-2.8,2.3-3.1-.4-9.2,1.6-.8.8-1.7-.5-3,1.7-7.7-.2-4.4-2.6-2.7-1.4.8-9.2-2.6-2.4.8-3-.1h0Zm-29.7-7.8l5.7.4,1.3,1.2-1.1,1.4-5.7-1.2-1.6.6,1.4-2.4h0Zm8.7-6.9l1.7,1.8.4,2.2-2.2,1.1-1-.9-.2-3.4,1.3-.8h0Zm-14.6-11.6l2.4.4,1.7,5.3,1.3.8-2.8,3.5-2.4-5.2,1.9-1.2-2.7-1.3.6-2.3Z"/>
      <path id="PH-CAP" class="cls-14" d="m420.1,697.4l5.6.3.1,1,2.4-1.1.2,1.1,2,2.1.6.9-.7,1.6.8-.4.8-.4,3.8,2.1-1.1,1-.5.3-1.9.8.6,1.5-2.1,1,2.5,2.3.6-.9.8-1.3.3-2.3,1.2.5.5-.3,3.4-.3,7.8-4.5h0l-3.5,7v3.9l-2.5,1.2-2.8-.2-3,1.7.8,4-4.2,2v3l-1.1-.3-1.6,3.6-5.1.7.1-2.8-1.5-.7-8.1,1.2-1.8-1.8,1.6-2.1-1.1-.2-3,3.3-1.2-.7.1-1.3-1.3.9-.9,2.6-3.9,1.8-3-1.1-4.5.2-5-2.6-6,6.4h0l-1.7-2.4-.4-3.5-.6.4-.1-7.2h0l5.4-1.5,2-1.6,2.1-2.3,1.4-4.1,1.5.4,1.8-3.3,8.4-.1,4.7-4v-1.2l1,1.3v1.1h2.7l2.1-1.4-1.6-.7,1.1-2,.7,2.4.8-.1,1-.3-.4-1.4,3.2-1.1-.6-1.3-.6-.8h.9Z"/>
      <path id="PH-GUI" class="cls-14" d="m419.4,781.4l1.6,1.6-3.2.7.2-1.8,1.4-.5Zm-3.3-20.6l3.9,2.8.6,1.7.4,5.6-3.1,6.3-.2,2.3-1.3,2.1h-1.4l.1,1.5-1.4,1.2-3.4.4-2.8,1.6-2,.1-.4-3.3-2.5-2.2.6-1.9,2.9-.7v-1.8l-.9-3,3.8-4.5-.1-1.7,1.4.4,2.1-1.2.4-3.1,3.3-2.6h0Z"/>
      <path id="PH-ILI" class="cls-14" d="m451.3,731.2l.5.9-2.7,3.1-.6-2.7,2.8-1.3Zm1.6-4.9l1.6.1-1.3,2-1.1-1.3.8-.8Zm-.2-6.7l2.1,1.4-3.2,3.3.2-4.1.9-.6Zm6.8-11l1.3,1.1-1.9,1.7-.6-2.4.4-.8.8.4h0Zm-1.7-.3l-2.1.3-1.1-1.2.6-1.9,1.4-.5.6,1,.6,2.3h0Zm-2.8-5.6l-.4,2.1-2.6,1.5.7-2.4,2.3-1.2h0Zm-3.5-4.3l1,2.7-1.8,4-1.2-1.5-.5.9-1.3-.3,1.2,1.8,2,.3-.9,1.1,1.8-.8.9,1.3-2.7,4,1.7,1.7-.7,2-1.1.3.5,1.3-2.5,1,.7,2.4-1.1,5.1,2.3,2.2-.3,2.5-1.2.7-3-2.3.4,1.3h-2.7l-1.5,5.5-2.4,2.5-.2-.8-1.6.3.9,1.2-.8,1.2-1.2.1.5-1.8-1.4-.7-1.3,3.4-2.5-.8-1.5,1v2l-1.5-.8-3.5,1.1-1.6,3,2.2,3.8-.8.3.4,2.6-1.8.7.3,1.7-2.6,3-4.1-1-.5,1.3-3.9.3-1.5,2.1.9,1.4-1.4,2.9-9-.1-13.3,2.2-2.1,1.7-2.7-.3-4.7,4-3.8.9-1.3,3.6-3.5,4.3h0l-1.2-.5-.2-1.4.8-5.9.9-3.6,2.9-4.9,7.4-4.9,1.9-5.8,4.4-4.5,1.3.2,1.1-2.6,2.1-.5-.8-1.7.5-5.2-5.9-8.2h0l6-6.4,5,2.6,4.5-.2,3,1.1,3.9-1.8.9-2.6,1.3-.9-.1,1.3,1.2.7,3-3.3,1.1.2-1.6,2.1,1.8,1.8,8.1-1.2,1.5.7-.1,2.8,5.1-.7,1.6-3.6,1.1.3v-3l4.2-2-.8-4,3-1.7,2.8.2,2.5-1.2v-3.9l3.5-7h0l3.6-4.3h0Zm15.1.3l-1.6,1.6-1-.8.6-1,2,.2Zm.2-3.2l-.8,2.3-.5-2,1.3-.3Z"/>
      <path id="PH-NEC" class="cls-14" d="m454.9,742.4l3.6.4,1.5.9,3.7,2.7,6.6-.3,4.4,2.5,1.7-1.3,1.6,1.3-1.4.8,1.9.5.9,4.8,2.4-.5-.7,1.9.9,1.8-1.9,3.3-1.1-.8.3,1.5-1.6,2.6-1.5,8-1.2,3.8-1,.4.4,1.2-3,3.4-4.7,2.5-1.6,4.4h0l-6.1-2.3-8.9.2,5.2,10.5-6.3,7.6-6.8,11.3-2.1,7.4-18.5,23.6-6.5,6.5-2.5,5.9h0l-5.5-5.3-1.4-3.8-2.8-1.6-1.1-4.4-1.6.3,1-2.9-2-.8-1.7.9-.7-1,1.7-2-1.8.6-1.2-1.2,1.3-2.7-.8-3.3.9-1.9-1.8-1.5,4.1-4.6,1.4-5.7,4-.8,11.4.7,8.3-6.6,3.3.3,3.1-2.4-2-9.6.1-5.3,1.7-5.4-5-11.2,2.3-2.2,2,.3,1.9-1.2.1-1.2,2.6-2.1,1.8-5.3.2-3.2,1.2-.5.4-4.6-1.3-1.1-.5-3.5,1-1.1-.3-1.9,6.3-2.1,1.6,1.3,4.9-4.8,2-.2,3.2-1.9h0Z"/>
    </g>
    <g id="R-V">
      <path id="PH-ALB" class="cls-26" d="m522.7,576.8l5.4,1.8,1,2.7-8.1-.9-3.4-1.5,5.1-2.1Zm-11.1-3.3l.6,1.5,1.3-2,1.9,2.1,1.1-1.5,4,1.6-2.4.5.4,1.1-3.5,1.6-2.2-.7-.1-.9-3,.3-2.6-2.3.5-1.1-1-.6,4.5.5.5-.1h0Zm-8.9-5.5l5.5,2-3.3,3.5,1.8,3.1-1.9,1.1-.9.1-.2-2.3-.7-.1-1.5-1.4,1.7-3.1-1.6-1.5,1.1-1.4h0Zm-6.4-4l3,1,1.5,1.9h1.8l-1.2,1.9-2.5-1.5-2.6-3.3h0Zm-11.7-8l1.4,1.8,3.8,1,5,11.6,4.9,2.5,1.3,1.6,2.5,2-.4,1.2-4.4-1-2,.7-1.5,4.4.2,1.8,2.1,2.3-.7,1.8h-1.8l1,1.1-.9.7,3.7,1.3,2.4-2.6.2-2,1.3.1.5-2,1.2-.6,4.4,1.9h0l-2.6,5.8h-3.4l-6.5,4.1-2.5-2.8-4.6-.2-3,1.2-4-1.5-6.8,3.1h0l-2.1-2.7-3.3-1.6-6.2,3-1.7-3.6-1.1-.1,1-2.1-.5-4.8,1.6-1.4-.4-1.5,1.7-.7-3.7-4.8h0l8.1-5.9,1.2.7v-1.1l2.2-1.2,1.9-.6,2.1.7,6.8-2.8.3-3.3-3.1-4.8.8-1.1,3.4-.3h0l.2.7h0Z"/>
      <path id="PH-CAN" class="cls-26" d="m406.1,494l6.4,2.3-1,.8,1.7,1.1.8.3,1.2.6-.8-1,.8-1.8,1.1,1.1,2,1.3-1.8-4.1,1.4-.5,2,.4.6,2.1,2-1.2,2.9,1.3-.4,1.9,1.5.2,1.4-.2,2.7,1.1,3.6,3.8-.1.4.1,1.6,1.7.2,3.7,5,1.9.9.7-.1,1.4,1.1.4,2.3-1,.1-.1,2.3,1.9,3.1,2,.8.9,6.7-1,1.5-1.1-.2-.6,2.8h0l-8.5-6.9-10.8-6.3h0l-25.3-10-5.6,6.2-4.7-.2-.1-1.1h0l.7-1.6,2.2-.9.6-.5-.1-1.3-.8-1.1-.3-3.2,1-.9.2-1.2,2.4.8-1.7-2.5,1.5-.7.4-2.2,1.8.2.5-2.2,1,1.1,2.8-3,1.1.9,1-.7.9-.5.9-.2h0Zm30.6-6.8l2.5,2.3-1.8-.2-2.2-1.9,1.5-.2Zm.5-4.3l.7.1-1,1,.7.7-1.3.3.3,1.1-3.1.3,3.7-3.5h0Z"/>
      <path id="PH-CAS" class="cls-26" d="m500.3,521.7l1.4.4-.6,6-1.8-4.1,1-2.3Zm-12.7-.2l1.2,1.3.6-.4.5,1.7-3.8,2.7-1.8-.5.2-3.5,1.1,1.6,1.1-1.9,1.7,1.5-.8-2.5h0Zm-22-9.5l1.3,2.1-.3,1.7,1.4,1-1.6.2-.7,1.9,1.5.3,1.7-1.9-.4,2,1.1-.2.5,1-.8.8,1.6.2-.6,3,1.6,1.4,1,.6.9-1.1-.8-.5.2-2.3,3.9,2.2-.9,2.1,2-1.3.3,1.2,1.6.4.1-1.8,2.1,1.2.6.2,1.4,1.6,3,.8,1.5-.8,1.2,1.2,2.5-.4-.9-.6,1.1-2.3-.7-1.6,1.7,1.7.9,2,1.3,2.2,1.6.3-.5.5,2,.3,3.2,2.7,1.5-1.1,2.3,2.2,3.1.1.5,3.1,1.5-.1v3.5l-.4-1.3-2-.7-.3,1.2-4.3-1.4-2.7,3-2.5.7-3.8-1.7-5.5-.8-1.2,1.1-7-2.2.7,1.4,1-.5-2.4,3.6-1.1,4.1.8,1.3.5.2-1.5,2.6,1.2,1.1,1.4-.8,1.2.6,1.2,2.3h0l-3.4.3-.8,1.1,3.1,4.8-.3,3.3-6.8,2.8-2.1-.7-1.9.6-2.2,1.2v1.1l-1.2-.7-8.1,5.9h0l-2.7-2.1-2.1-4.2-.2-3.7-1.3-2.8-10.2-5.5-.9.5-2.4-1.6-1.9.1-2-2.1-4.5-2-4-4.7-2.5-.8h1.9l2.7-3-1.9-3.3-4.6-3.1-1.6-1.1-1.7-2.2-1.9.4-1.5-1v1.5l-1.9-1-1.2-1.4,1-.9-.8-2.3-4.5-1.7.6-1.5-2.2.3,1-.9-1.5-1.2h0l17.7-4.9h0l10.8,6.3,8.5,6.9h0l-1,4.5,5.6,3.7,8-.3,3.1-1.5,3.3-3.8.3-1.9-3-5.2,3.5-3.2.6-2.4-1.1,1.4-.9,1.7-1.3.3-2.5-1.6.4-1.1-2.4-.4-.4-2.3,2.7-1-2.3-1.1,4-.4-2.3-3.1h1.5l3,2.8-.7-2.5,2.8-.1-1.3-1.7,1.1-1h0Zm-3.1-1.8l2,1.3-.7,1.6-2-2.5.7-.4h0Z"/>
      <path id="PH-CAT" class="cls-26" d="m537.6,522l1.5,1.8-2.2.3-1.3-2.9,1.2.5-.2.9.3-1.9.7,1.3Zm-9.2-9.6l4.7,6.2,1,5.5,2.1.7-.4,3,1-.4.4-2.5,1.8-.5.2,2.5,2,1,.3,1.6.5-2.1.2,1.7.4-.8.8,1.5-1.1.5,1.6,1-1.6.8h1.1l-.4,1.6,1.2,1.3-.5,1-1.8.2,1.2,2.1-1.1.2-.7,2.5,2.3,3.9-2.8,1.5v-1.4l-.9.2-1.7,1.4.6,3.3-1.8,2.9,1.4.6-2-.2-.2-2.5-2-.6.6-.9-5.8,3-.5,3.6-2.7-1.1-4.6-4.5-4.4-.7,1.2-1.1-3-3.5,5.2-3.1,3-6.8-.6-6.6,1.5-3.2-1.5-3.8-.2-1.9,1-.9-1-3.4,3.2.7,2.8-3.5h0Z"/>
      <path id="PH-MAS" class="cls-26" d="m450.4,678.9l.6.7-1.5,1.3-.3-1.4,1.2-.6h0Zm7.5-54.9l10.3,4.4-2.9.2,1.5,4.1-2.7,1.2.7,1.4,1,.7,1-2.4,1.7.4-1.3-2,.5-1.1,2.2-1.1,2.9.5,6.6,5.1,1.4-.9,1.1,3.7,2.9,2.1-2.6,2.1,3.4-.5.8.1,1.4,1.3,1.4-.5,1.8,1.2,6.4,10.2.8-.4-.9-1.9,1.4-1.3,1.6.6,2.3,3.1,1.3-2.1,1.6,1,1.7,4.2,9.7,13.7-.3,1.5-2.6-4.5-1.1-.2-.4,1.7,1.5,2.7.9-.1,3.3,7.3-1.1,4.3,1.1,5.4-1.5-.4-2.6-4.4-6.8-5.9-1,.2-3.2-2.7h-.1s-9.9-2.3-9.9-2.3l.4-1.1-1.2-.7,1.4-1.8,1.4-.2-7.3-4.8-.6-1.4-2.9-.6,1-1.5-5.6-8.5-2.7-1-5.2,1.7-4.4,6.9-2.3,1.1-.9,1.7-.7-.4-1.3,3.9-10,8.6-1.3-1.9,3.9-6.5-.4-1.4,1.1-1.5.9-5.4,1.6-.4,3-1.8-.9-2.6,1.1-1.2-1.6-2.4-2.4,2.1-.9-1.5,1.3-.2-.9-2.1,3.2-4.9-.5-3.2,1.1-.7,1-2.5-.9-.5,1-.9-2.8-1.3-.9-10.8h0Zm28.2-6.8l2.2,3.3,4,1.9-.9.6.5.3h1.6l.7,2.1.1,1,.9,2.4.2.5,1.3,2.7.3,5.9,1.3.5-.5,2.7,1.1.1-.9,2.4-4.5-4.8-3.1-4.5.1-1.4-3.8-4.5-1.7-4.7-.9.5-1.5-2.3.2-1.6.7,1.5.8-.9.9.7-1.3-3,2.2-1.4h0Zm-45.7-34.6l1.2,1.6,2.4.2,10,16.5,4,.3,2.7,1.5.9,5.4,7,9.3-1.8-.2-1.8-1.9-5.3-8.2-4.6-.7-2.1-3.2-2.3-.6.6-1-2.9-1.4-1.3-2.9-1,.5-1-3.1-5.7-.6-1.5-2.4-1.4,1v-3l1-1.4-2.3-2.2,2.9-1.2,2.3-2.3h0Z"/>
      <path id="PH-SOR" class="cls-26" d="m509.6,586.5l1.7-.2,3.6,4.2,3.1,1.4,1.4,2.3,1.7-4.3,1.8-1.1,4,.6.7.9-.1,1.4-.5.4.7.9-1.8,1.1-.5-1.7-.7.6-1.1,6.3-1.9,1.8.7,1.3,1.5-.3.6,6.4-1.8,5.8.3,4.6-3,2.6,1.1,3.1-1.8.9,1,1.2-1.3,2.2-6.6-.6-3.8-4.1-.1-2-1.3.7-.6-1.6-2.5-1.2-3.3-12.8.4-.7,2-1.7-.4-1.1,5.5,2.3,1-2.3,2.7-.3.7,1.2,1.6-1,1.8-3.9-1.4-3.2-4,1.3-2-.2-1.4-1.6-2.3-.1-.2,2.1v.8l-1.6,1.2-.3,1.7-1.3-.5-.6,2.1-.9-1.1-1.5,2.1-2.4-1.8-.1,1.7-2,1.4-.4-1.9,1.2-.8-.8-1.1-1.9,1-.1.4-1,1-1.5-3.3.7.4.3-.9-.3-.5-2.5,1.9,1,.6-.7,1.4-4.6-2.5-2.3-3-1.4-.3-.6.9-3.5-3.8h0l6.8-3.1,4,1.5,3-1.2,4.6.2,2.5,2.8,6.5-4.1h3.4l2.6-5.8h0l.5,1h0Z"/>
    </g>
    <path id="PH-NCR" class="cls-29" d="m289.5,468l.8-.8,1.3,1.6.9-.5-1.6-3.2.9-.4,1.4.6.3,1.4,1.4-.2,1-2.4h0l.3-.3h0l2.4-.6.3-1.6,1.1-.3,1,1.3,2.9.3h0v1.4l1.2.1-2,4.7,2,1.3-.3,1.7-1.9.6.6,2.7-1.2,1.7.9,2.8h0l-3.2,2.7-.4,8.7-3.1,2.1h0v-2.3l-3.2-4.9.1-2.1h0l1.4-2-1.1-.5.8-.6v-3.3l-3-2.6.4-1.4.8.9.2-2.8-.8.2-2.6-4h0Z"/>
    <g id="R-MIMAROPA">
      <path id="PH-MAD" class="cls-25" d="m358.7,551.9l.3,1.3,1.1-.4.4,1.6,1.5.8,1-1.3,2.7.9,2.3.7.8-2,1.7,1.5-.7,1.2,1.8.1.7,2-1,.2,2.3.6.8-1,3,2.6-.7,2.2-1.1-.7-.1.9,3.6,3.8-7.5,7,.5,2.7-1.8,3.1-3.4-.6-2.3-3-6.2-2.7-3.3-4.5.3-4.3-1-3.3,3.7-6.3-.6-.7.8-.7-.6-1.1,1-.6h0Z"/>
      <path id="PH-MDC" class="cls-25" d="m296.6,651.2l1.6,2.8-2.1-.3-.4-1.4.9-1.1Zm4-4.7l2.5,4.7-.5,3.2,1.3-.6,1.5,2.5-1.2,1-2.4-1.6-.9-2.9-2.7-.9.4-4.8,2-.6h0Zm-46.8-91.3l3.8,1.6,6-.3,4.1,1.5,4-.3,5.9,2.1,10.1-2.6h0l-.6,6.5-6.3,9.9,13.5,6.5,10.2,6.5,8.6,3.2.3,30.6-1.1,18.7.8,14.1h0l-2.5-2.2-3.7-.4h-3.4l.1-1.6-1.4-1.7,1.1-.8,1.5,1-.4-1.9-1.1-3.3-1.4-.5-1.2,1.2-2.3-1-8.4-10.8-.4-2.7,1.4-2.8-.7-2.4-4.6-5.7-.6-2-4.8-1.2-.5-6.6-1.7-1.3,2.3-5-1.3-1.9-.6-2.7-.1-.8-2.2-5.9-6.1-9.8-3.2-.8-2.7-2.2-3.5.4.1-3.1h-1.4l-1.6-2,.4-1.9-1.5-4.2.5-1.7-.9-1.3-1.9-.9-3.2,1.2.3,1.8-1,.8-2.7-.5-2.6-2.9-.8-1.9,2-3.3,2.7-1.8,4.7-.9h0Zm-8.6-11.6l5.5,2.1,2.1-.1.8,2.1-2.6-.4-5.8-3.7h0Zm-1.1-11.5l3.3,2.2-.2,1.3-1.6,1.1-3.7-2.4,1.6-.5.6-1.7h0Zm-14.4-2.2l3.3.7,4.7,3.4,1.5-.8,4.8,6.5-1.9-.1-.8,1.2,1.5,1.2,1.2-.5.5,1.8-1.3-.1-.8,1.2-1-2.4-2.3-.5-1.4-1.8-2.1-.2-5.4-3.6-.4-3.8-1.3-1,1.2-1.2h0Zm-4.2-2.6l1.7,1.6-.8.9-2.2-1.4,1.3-1.1h0Z"/>
      <path id="PH-MDR" class="cls-25" d="m293.8,559.5l6,4.7,2.4-.8,1-.2,2.4.6,3.3-.5,1.3-1.5,4.7,6.1.2-.8,2.7,1.5,5.5,7.9,2.5-.2,2,1.1.1,6.2,1.9.7,2.9-1.2,3.5,2.4v2.3l-3.8,2.6-1.3,2.7.9,5.9-1.2,2.6.8,4.1-1.3,5.5,5.3,7.8-.2,1,.1,1.8-1.5,2.7-.1.4-1.5,3.2-3.1,2.2-1.8.1.5,3-2.6,2.4.2,3.5,2.9,2.8-5-.2,1,5.6-1-.6-1.1-.3-.1-2.1-1.5.1-.9,2.3-4.1.7-2.5,5.6h0l-.8-14.1,1.1-18.7-.3-30.6-8.6-3.2-10.2-6.5-13.5-6.5,6.3-9.9.6-6.5h0l1.6-1,2.1.7.8.1,1.4,2.5h0Z"/>
      <path id="PH-PLW" class="cls-25" d="m10.5,957.7l.4,4.1v1.1l-.2,1,.8,6.2-1.3.6.8,1.2-1.3,2.8-2.5,2.2-.1.4-1,.3-1.4-.8.5-2.6-1.2-.2-2-4.5-1.5-.1-.5-1.6,1.2.5,1.6-1.5-1.2-3.5,1.2-4.1.1,2.8,2.6-1.9-.5-1.6,5.5-.8Zm-3.2-4.1l1.6.9.9,2.4-3.4,1-.5-1.5-1.4-.5,2.8-2.3h0Zm8.1-3.6l3.5.1,1.2,1.8-4.1.2-1.2-1.6.6-.5Zm-3.7-5l1.8.5.9,1.9-3.1-.1.4-2.3h0Zm16.9-5.6l2.1,2.5-.4,5.9-3.8,2.3-2.2-2.2.4-6.9.8-1.4c-.1-.1,3.1-.2,3.1-.2Zm-6.7,1l2-.2-.1,1.9-2.7,1.9-3.2.5-1-2.2,2.2-.3,2.8-3.5v1.9Zm140.3-167.3l-.1,1.1,1-.7-1.6,1-.9,1.3-1.6.1,1.2-1.6-1.1-1.2h3.1Zm48.3-4.7l2.4,2.2.5-1,2.6,2.7,5.7-.1,1.5,2.6-1.3,1.1-.6-1.4-.6,1.7.9,1.1-2.6.9-.2-1.3-1,2.3-1.5-.9-.4-2.2-1.4-.3,2.8,4.9-.8.7-4.1-.8,1.3,1.7-5,1.5-3.1-1.7.2-4.7-1.1.7.1-2.5,1-.9,2.1,1.4.8-2.8,2.2-2.1-.4-2.8h0Zm90.2-19l.7,1-1.4,1.3,1.5,1.5-1.6,1.2.5,2.3-3.1.7-1.7-2.3.4-1.9,3-1.2.4-2.3,1.3-.3h0Zm-129.1-8.5l1,.5-1.2,2.4.8,1.8-.6.8-2.2-2.5.5-2.7,1.1.5.6-.8h0Zm30.2-2.6l1.2,2.1-1.8.1.6-2.2Zm-1.5-1.1l.7.6-1.6,2.6-.3-1.9,1.2-1.3Zm-7.5-2l.4.9,2.6.2-.5,1.8,1.8,2.6-.7,2.2-.3-2.1-1.4,1.3-.9-2.1-2.7-.7,1.7-4.1h0Zm7.5-1.8l.8,2.3-1.5,1.3.5-1.4-1.2-1.9,1.4-.3h0Zm93.9-3.6l.5,1.4-1.6,1.5-1.5-.1-.5-1.4,3.1-1.4Zm-99.9-1.4l1.7.4-.2,1.8-1.4.8-.7-.8-.1,1.5-2.3.2-.5-2.6,2.4-.1.2-1.3.9.1h0Zm6.5-9.5l-1.3,4.3-1.6-2.7,2.9-1.6h0Zm-15.7-7.6l1.9.7.4,6.1,1.9.8,1.2-1.4,1.1,3.6-2.2,8.7-2.7,3.1,2.6,4.7,1.7-1.1-.7,1.7,1.4,4-.6.8-1.8-1.3-2.5.4-1.4,9.8,1.8,1,.1,2.4,1.7,1.2,2.9-1.9,1.8,1.2-.1,1-1.4-.3,1.1,1-1.3,1.1,1.3,1-.6,1.9,1,1.5-2.2,4.5h3l1.8-2,1.6,1.3-.6.7,1.4.7-3.3-.2,1.2,1.8-1,1,2.1,1,1.1,4.7,2.4.1-.8,1.1,1.1-.3.6,1.8-2.9,1.1-3.2,3.7-3.4,1.5-1.1,3.7-4.3.9-3.9-1-2.1,1.7-4,.5-1.5,2.3-2.1.2-5.8,8.1-1.8,9.1-1.5,2.2-16.2,4.7-5.3.7.1-1.1-3.5,1.3-2.2,2.4h-3.6l-1.6.8-.7,6.5,2.4,3.2-.3,5.5-2.8-.7.5-1.7-1-2.5-.7,1.3-1.3-.5-.5,1,.3,3.8,2.5.3.1.6.4,1.4,1.9-.5-.1,1.5-1.8,1.2-.3,1-3.8,5.1-2,1.1-1,3.4h-1.2l-4.1,6.1-.2.5-1.9,1.9.2,2.2-3.8,3.8v1.1l-1.6-.6-1.7,1.9-.8-.3-.7,2.5-1.8.2-3.8,4.7-3.6-.3-5.3,1.8-.9-.9-4.4,2.5-1.8-.8-1.4,3.1-.2,3.7-2.4.4,1.2,1.2-.3,1.2-1.6.4.6,1h-.8l-2.9,6.6h-1.1l.2,1.8-8.4,3.8-3.4,4.3-2.3.3-2,3.8-2.8,2-3.6.1-5,2.1-4.2-1.2-2.2,2.3.8,3.4-3.4,7-1,.5-2.2-2-1.2,1.5-.5.5h-4.2l-.3,1.4-7.7,5-1.9,2.9-2.1.5.8.8-.8,1.2-2,.1-.2-2.7,2.7-4.5.2-6.7,1.6-1.3-.2-2,2-.9-.8-2.2,1.3.5,1.7-4,2.8-1.3.7-1.8-1.5.2,2.7-3.5,4.7-1-.4-2,2.7-1.9.8-3.2,1.2-.4,3.3-5.4h1l.4-1.9,2.6-.3,2.8-2.8.6-3.5,2.5-2,1.6.1.3-1.2.7,1.9,3.3-.3.9-4.1,1.5-1.4-.3-1.5,2.6-2.5,1.1.7,1.7-1.9.9.4,3.2-3.8,3.4.7,2.1-2.1.2,2.6,2.6.1.3-1.6,1.8-1,.2-1.6,1.3.1,1.3-1.3v-1.3l2.8-.7-.8-2.3.8-1.7,4.2-1,.9-4.5,2.9-1.6,4.4-5.2,2.2-1.3.8-5,1.2-.6,1.3.9,2.3-1.3,1-3.1,6.6-4.1,4.2-6.2,2.7-1.9.7-1.6-.7-1.7,2.9-1.4-.1-1.9,1.4-1.1-1.4-2.1,1.1.4,3.2-2.9,1.4.2.3-2.5,1.4-1,1.2-3.6.9,4.7.1.8v2.6l1.4.1,1.1-.5.1-2.9,2.1-2.7-2.3-.8-.1-5.6,2.4.4,1.9-1.7,2.2,1,3.2-.9.9-3.2-1.1-.9,1.8-.4-2.1-1.4.8-.8,1.6,1.1.4-1.9,1.3.7,1.1-.8-.7-.7.9-1.6,1.5.3-.8-2.6-2.9,2.2-.7-1.8,1.9-1.5-.4-1.2,1.9.2.9-.9,2.8,2.1.9-1.6-.9-1,2,.3,1-1.2-1.3-.7-.9-.6.2-.9.4-1.3.7.7.4-1.1h1.2l.5.9-1.2,1,1.4,1-.8,2.6,1.9,2.2.2-1.3,2.5-.9,2.9-5.1,2.9-.2.9-2.2-3.1-2.6,2.7.7,3.8-3.9,1.8-10.7-2.7-2.9-2.3.7-.9-4.9-3.9-1.3.2-.9,2.5.1-.3-.9.2-1.1,1.1.1-1.4-1.7-1.9.2,1.3-2.1-1.3-.4.4-1.1,1.6.3.1,3,1-.4-.6-1.2,1.1-1.1,1.4.9-.7.9,1.3,1-1.2,1.3,1.5.1-2.4,1.5h3.1l-1.8,1.7,2.1,1.3.4-1.3,1.1,2.7.9-1.2.9.4-.8,1.6,3,.5,1.3,1.5-.5,1.3,1.4-.8,1.1,3.5,2.3-.4-2.1-5.5-.1-2.3,1.3.2.2-1.1-2.7-.9-.2-1.1-3,1-.6-1.1-1.1.1v-1.7l-1.1.1,2-3.2-.9-.8-1.6,1-1.3-.7.2-.7-.7-4,1.2-2,1.5,3,2.4-.8-3.3-2.4,1.2-1.3h-1.5l.2-3.7,1.1,1.6,1-.3-.5,1.1,1.8,2.2,3.2.5-.2-5.4.9-2.2-1.2-.5-.7,1-.3-2.6,1.5-3.1-.5-7.5,1.1-.4.4-2.1,1.4,1,1.6-2.3.6-4.8h0Zm24.4-7.1l3.5.7.6,1.3-.1,3-2.7,5.4-.9.2-1.3-1.8,1.7-1-.1-1.1-1.3.9-1.4-.7-.9,2.3-1.2-2-2.2-.8.5-1.5-1.6-.8,1.2-1.1-.1,1,3.1,2.1-.2-1.5h1.4l-1.6-1.4,1-.2v-1.1l1.8,3,.9-.2-.4-1.3,1.9,1.1-.8-1.9,1.7-.2-2.5-2.4h0Zm23.9-18.1l2.4.1.2,1.3-2.9-.4.3-1Zm2.4-1.3l1.3.6.2,1.8-2.2-2.3.7-.1h0Zm-19.6-14.4l1.5,1.5,3.5.7-2.2.4.8,2-.8.3,1.3.4-.1-1.7,1.2.7,1.1-1.2,2.2.3.3,1.2-2.9,1.3,2.6.3,1.3,2.2.5-.9,1.9,1-3.9,1.4,2.2.2-1.6,1.1v1.4l.9-.6,2.2,1.9-2.8,2.3,1.7.1-.6,2.8-5,3.8-.8.1-.9.5-1-.2.7-.8-.9-.4-.1-4,1.1-.8,3.6-3.3-1.3.2-.9-.4-.7-.7-.1,2.7-2.4.3-1.7-2.4-1-2.8,1.5-1-3.3-3.8.1-2.4-1.8-1.4.5-.6,2.7,2.3.2-1.5-1.4-.7-.1-1.3,2.7-.5h0Zm24.8-.6l1.7,1.1.4,2.5-2.1,2.1,2.9.1.4,1.6-.1,1-2.6,1.1-.7.6-4.1-6.6,4.2-3.5h0Zm-25.5-25.5l2.1.7-.2,1.5,1.1,1.1-.7.9,6.1,1.2,2.4,2,1.1,2.8,2.7-.8-.1,1.8,4.7,4.1,1.7.2.1-1.5,1.8.4-.6-2.1,1-2.7-1.1-1.7,1-.5.4,2.1,1.4-.1.2,5,.9.5,1.1-1.4.8,2.2,1.1-.3.4,1.5,1.8.5.6,2.7-1.2,1.3,1.1,1.8-.3,1.5-1.3-.6-1.4,1.4-3.4-1.8-2,1.8-3.4-1.9-.6-1.5-1,.6-1.8-.8-.6,1,1,1.2-.8.9-.5.9-1.4,1.4-1.4-1.9.6-.9-2.4-1.5-.5,1.7-1.9.5-.5-1.3-2.6-.2-.4-1.1-.3-3-1.2.6-1.1-1.3-.3-1-.1-3.6-2.2-2-.3-2.9-1.1-.1-2,4.1-.3-2.1,1.9-3.5-1.2-.8v-1.3l.6-1.2.9-1.5-1.1-1.5,2.7-1.5h0Z"/>
      <path id="PH-ROM" class="cls-25" d="m363.5,661.4l1.8,2.3-.5,2.6-3.2-2.3.3-1.6,1.6-1Zm44.3-30.3l7.9,1.6,3.2,6.1-1.2,5.4-3.5,3.4v1.2l-1.8-2.1-3.5-1.2-1.5-3.6-6.6-2.7-1.8-2.7.3-1.7,2.4-2.3,6.1-1.4h0Zm-19-8.9l.9.5.7,4.4,1.5,1.4.1,2.6-1.9,2.1-2.2-.9-1.6-3,.9-.9-1.3-2.2,1.7-.3,1.2-3.7h0Zm-12.2-3.6l2.8,1.1.6,2.1-2.4-.2-.5,1.2,1.3,2.7v3.2l-2,3-1.7,13.8-3.4,6.3.2,2.7.9-.4,1,1.3-.7.7-1-.7-1.6,1.8-.7,4.3-2.3-3.2.5-1.4-1.8.3-.6-2.4.7-3.7.5,3,1,.6,2.1-3.3-2.7-2.2-1,.5v-1.4l-1.3-.1-.4-1.5-1.2.8-.4-2.3,1.2-1.2-.8-.8,1-3.5,3.3-1.2,1.3-2.6.7-3.7-1.7-5.7.7-2,2.8-1.8,2.6-.1,3.1-2.5-.1-1.5h0Zm-2.2-12.1l-1.8,4-2.2-.2v-1.2l4-2.6Zm-27.7-8.3l2.3,1.5-1.5,2.5-2.6-2.5,1.8-1.5Zm27.4-1l1.3.4-.7,2.9-2.3.9-.4-2.4-1.4-1,3.5-.8h0Z"/>
    </g>
    <g id="R-IV-A">
      <path id="PH-BTG" class="cls-22" d="m301.7,551.7l1,2.9-1.4.6-2.8-3.4,1.4.6,1.8-.7Zm-18.5-8.6l2.1,1.8,5,.5,1.4,1.4-3,1.1-2.3-.7-2.3-1.2-.9-2.9h0Zm-17-40.5l1.9.7h0l4.4,1.4-.7,1.8,2.5,2.7,4.3.2,5.3,3.7.5,2.1,2.9-1.8,1.1.6,4.1-1.1,6.8-3.9-.6-.7h0l4.7-.2,6.3,1.8,1.6,7.8,1.9,2.9,1.3-.2v2h0l.3,1.9-1.5-.1-.5,1.2,2.5,3.5,7,.5,1.1,1.5,5.2,2.2h0l-1.8,4.4,1.2,3.1-.5,1.8,1.2-.3.7,1.2-3.4,2.2-2.8-1-7.1,5.3h-1.8l-2-2.3h-2.2l-1.4-1.3-7.6,1.9-3.1-1.1,1.2-2.4.6-4.1-.7-1.2-1.1-2.1-2.6-1.3-2.7.7-5.2,6.7-1.4-2.8,3.9-3.2-1.9-4.5,1-.6-.2-3.5-2.2-1.8-6.6-2-3.5-.6-2.5,1.1-.7,2.1,1.8,2.6-.3,1.2-4.7-1.4-.1,2.3,1.8,3.1-1.4,1.5-2.6-3.2.7-.9-1-.9.1-8.8-1.2-1.6,2-.2-1.2-4.2.7-1.7-.3-4.6-3.8-1.6,1.5-.5,1.7-.1-2.7-1.9,2.9-.5-2.2-1.2,1.1-2.3h0Z"/>
      <path id="PH-CAV" class="cls-22" d="m289.2,482.4l-.6,1.1-.3.5-.7,2,1.2-.6.6.7.3-1,3.7-1h0l-.1,2.1,3.2,4.9v2.3h0l-.3,2.9,4.5-1.3-2.6,6.1,1.3.4-1.4,2.7,1,.3-.3,3.6h0l.6.7-6.8,3.9-4.1,1.1-1.1-.6-2.9,1.8-.5-2.1-5.3-3.7-4.3-.2-2.5-2.7.7-1.8-4.4-1.4h0l.1-3.4,2.4-1.5,2.8.4,1.5-1.1,1.2-1.4,2.8-1.4,7.3-7.4,1.7-4.6,1.3-.3h0Z"/>
      <path id="PH-LAG" class="cls-22" d="m329.6,476.7l6.5,12.5,1.1-.7,1.6,1.6,1.9.3.6,9.9-4.8,6.8-1.2-.1-1.9,1.9-2.2,5.4-4.5.7-7.4,5.9-5,1.6h0v-2l-1.3.2-1.9-2.9-1.6-7.8-6.3-1.8-4.7.2h0l.3-3.6-1-.3,1.4-2.7-1.3-.4,2.6-6.1-4.5,1.3.3-2.9h0l3.1-2.1.4-8.7,3.2-2.7h0l2.2-.2,2,1.5,3.8,7.6.2-4.7h1.1l1.3-3.3,1.9.3.2,2,1.6.1,1.7,1.7.9,3.8-2.5,6.3.2,2.8,5.8-4.1-1.5-1.7.5-2.3-1.1-4.4,1.1-4.6,3.1-3,4.1-1.3h0Zm-15.3,17.2l-1.2-.2-1.2-5.6-.5,5.3,1.9,4.5-.1-2.8,1.3-.3-.2-.9h0Zm.1-12.2h0l-.2.2.2-.2Zm.3.1h0l-.1.1.1-.1Zm-.4-.6h0Z"/>
      <path id="PH-QUE" class="cls-22" d="m350.5,524l2.4.3-.3,2,1.2,1-.8,1.4h-.8l-1.9-.3-1-.7-.1-1.9,1.3-1.8Zm15.1-19.4l11.8,8.6,4.5,5.9-2.4.5-7.4-4.6-1.4-2-3.8-1.6-5.3-6.2,1.2-3.2,2.8,2.6Zm-10-7.5l1.8.3-2.4,3.8-1.2-3.3,1.8-.8Zm42.3-31.9l2.1,2.1-1,1-8.5.8,2.1-2.6,5.3-1.3h0Zm-20.1-7.5l3.6-1.2,1.1,1.1-.5,1.7,3.1,1.6,1.7-.3v4.8l-1.1.5-1-2.3-8.9-4.1-1-2.8,1.8.8,1.2.2h0Zm-7.9-3.7l.2.8,2.6.1,1.6,2-1.6-1-1.4,1.1-1.4-.4-.9-2.1.9-.5h0Zm-5.4-13.4l1.8.6-.3.9,1.6-.6,2,1.1-.7,1.7,2.9.1.5,3.3-.2.8-1.7-3-1.5.3-1.4,2.3,2-.8.1,3.6-3,1.5-.9-.5,1,5,2,.6,1,1.7,1,7.2-2.5,3.6-4.7,3-1.7-1-.9-2.7.1-3.6,1,1.3,1.4-.4-2.1-6.8-2.2-2.5-3.2-9-.8-.1.5,2.1-.7-.6-.8,1-.6-1,1.3-4.9,1.2-.5.1-2.4h1.4l.7,1.3,4.8-2.6,1,1,.5-1h0Zm-44.1,4.5l.7-1.6-.7-1.9,4.1-6.2.1-2.2-1.3-1.3,1.7-.5-.2-1.6,1.3-1.1h0l2,1.4,1-.5,1.5,1.7,1.8,9.5,4.4,6.5,1,5.8,2.3,2.8-.8,2,9.6,9.9-2.4-.5h-1.1l-3.7,2.6-1.1-1.4-1.1,2.5,4.1,19.1,4.9,5.2.1,4,2.2,2.1-.4,3-1.9,2,.4,1.1,2.8,3.3-.7-.8,13.2,10.7,11.1,4.9,6.6.6,3,1.5.9-3.5-3.2-1.3-1.2-2.6,8.5,2.8.5-1.1-.9-1.4,1.7-.6.5-1.4-2.4.2-.2-1.6-6.9-4.1-2-3.5.1-1.4,1.6,1.5-.4-1.8,2.4-2.1,1.3-.3.9,1.3.3-4.9,1.7-.2.3.8-1.3,4.6,1,.9-.4,2.8,1.3.3,1.8-1.3-.7,4.1h0l.1,1.1,4.7.2,5.6-6.2,25.3,10h0l-17.7,4.9h0l-1.5-.8-.3,2.8-5.4-.2-2.3-2,4.9,7.8,2.8,2.4-1,.5-.1,2.9,1.1,2.8h-2.4l-.8,1.5,1.6,3.6-.4,1.3,3.5,3.4v1.3l6.4,4.1.1,1-1.3.1-2.6-3.5h-1.3l6.2,8.6,1.9,5v7.8l1,.5.9,3.3-3.3,1.1-4.3,3.5-2.5-1.2-4.3-4.8,1.4-2.8-1-1.1.9-1.2-.5-2.8-2-4.5-5.5-5.7-.8-2.9-5.1-2.7.5-1.2-1.2-1-2.3-.1-.7,1.2-1.4-.5,1.2-.9-.9-.9-4.2.3-.4-2.7-3.8-6.1-.9-.1v-1.9l-2.9-3-1.9-.4-1.3,1.2-2.2-1.6.2-.8-3.4.1-.6-2.6-5.9-1.6-1.4-2.5-1.2.8-1.5-1.3-.7.8-1.2-1.7.5-2-.8-.6-1.6.7-2.5-2.2-3.9.5-.4.9,1.2,2-6,1.1-.6,1.4-1-1-7.9,3.8-2.7,2.4h0l-5.2-2.2-1.1-1.5-7-.5-2.5-3.5.5-1.2,1.5.1-.3-1.9h0l5-1.6,7.4-5.9,4.5-.7,2.2-5.4,1.9-1.9,1.2.1,4.8-6.8-.6-9.9-1.9-.3-1.6-1.6-1.1.7-6.5-12.5h0l-8.6-15.4-.4-8.4h0l-.1-8.1h0Z"/>
      <path id="PH-RIZ" class="cls-22" d="m313.1,495.1l.1,2.8-1.9-4.5.5-5.3,1.2,5.6,1.8.8-1.7.6h0Zm1.5-13.3h0Zm-.3.1h0l.2-.2h0l-.2.2h0Zm-.1-.7h0Zm6.4-28.2l.4,8.4,8.6,15.4h0l-3.8,1.3-3.1,3-1.1,4.6,1.1,4.4-.5,2.3,1.5,1.7-5.8,4.1-.2-2.8,2.5-6.3-.9-3.8-1.7-1.7-1.6-.1-.2-2-1.9-.3-1.3,3.3h-1.1l-.2,4.7-3.8-7.6-2-1.5-2.2.2h0l-.9-2.8,1.2-1.7-.6-2.7,1.9-.6.3-1.7-2-1.3,2-4.7-1.2-.1v-1.4h0l4.6-3.3.4-1.7,5.5-1.1,6.1-4.2h0Z"/>
    </g>
    <g id="R-III">
      <path id="PH-TAR" class="cls-34" d="m267.4,382.3l3,12.7,3.1,3.3,4.1,1.1-2.3,4.2,3.1,9.9-1.6,2.7-.2,3.3,3.1,2.4-.7,2.9h0l-2,.3-.2-1.3-3.1,1.7-3-1.1-1.4.9h-4.7l-13.4,7.1-1.3-.2h0l-2.4-4.9-3.8-4.3-8.9-5.4,1.6-11,2.6-5.2,3-1.8-.7-1.4h0l5.1-2.4-.5-1.4,2.6-2.2.5-2.4,2.5-2.7,6.4,2.7,4.9-3.1,2.9-8.9,1.7,4.5Z"/>
      <path id="PH-ZMB" class="cls-34" d="m214.9,384.2l1.8.9,2.6-1.2.7,1.4h2.3l2.8-4,4.1,2.6,4.6-1,2.7,7.3,4.9,8.2h0l.7,1.4-3,1.8-2.6,5.2-1.6,11,8.9,5.4,3.8,4.3,2.4,4.9h0l-.9,2.4.6,2.3,2.8,2.1,1.3,2.6-.1,4,2.2,2.1.7,2.5h0l-1.8,3.6-4.4-.7-1.3,3.2-4,3.2-.5.4.2-1.2-1.9-.3-.3-1.9-1.7-.1-1.4-2.3-1.6.9.9,3.7-2.6,5.6-4.6-1.6,1.4-.3-1.1-1.3-2.7-.3,1.9-2.6-2.2.6.4-3h-1l.1-1.9-1.4-1.3,1-9-.9-6.4-3.1-10,.3-2.4-2-2.5-1.7-2,.1-1.6-2.7-2.9.6-.4-2.3-.7.1-1.3-1.3-1,2-1.3-1.1-1.7.3-1.6,1,1.2,1.8-.1.2-1.4,1.6-.8-2.3-3.6.9-1.3-1.5.1.1,1.2-.9-.3.6-2.7-1.5-2,1.6-1.7.6-3.7-1.2-1-1.2.4-2.3-2.6,3-1.5-1.9-4h0Z"/>
      <path id="PH-AUR" class="cls-34" d="m387,330.6l-1.2.7-1.1,3.7-2.1,1.8,1.7,3.4,1.2-3,.3.7-1.4,4.9-2.4,1.6-.9,2.4,1.1,1,3.1-1.7-2.3,3.3-.1,2.1-9.8,9.1.2,2.2-3,3.1-3.1,1.6,2.8-5.7,4.8-4.8.1-2.7,2.5-1.6.2-2.7-2.7-.2-1.6,1.7-.5,1.9,1.1,2-4.3.8-6,4.1-4.8.3-6.6,4.5-1.4-1.1-1.3.6-5.6,4.8-1,2.6-1.7.3v1.1l-5.2,4-.1,8.4,1.3,2.7,2-.8,2.8,1,.2,3.4-2.1-.2.1,1.7.1,1,.2,1.7-2.4,1.2-3.9,6.6-2.7,1.6-1.3,8-1.5.5-1.6,3.5-2-1.6-1.4,1.5-.8,4,3.3,7.3h0l-1.3,1.1.2,1.6-1.7.5,1.3,1.3-.1,2.2-4.1,6.2.7,1.9-.7,1.6h0l-2.2-15.2h0l4.7-21.4-7-21.7h0l13.5-11h0l26.7-23.5,16.7-19.7,4.8-3.2h0l10.2.5h0l-.9.5h0Z"/>
      <path id="PH-BAN" class="cls-34" d="m256.4,450.2l2.7,1.4.4,3.2,1.6,2.1,1.9,1.2,1.9-.5h0l.3,1.2h-1.8l.1,2-.8-.1v4.8l2.6,5.6-.3,2.7,1.6,5.6.9.4-.3,4.1-3.3,4.2-5.4-.9.8,2.2-2.2-.6-1.7-2.4-1.6.4-.1-.9-2.4-.4-1.1-4.9,1.1-.9-.7-.9.9-2.9-1.9-2.9-1.4.5-1.2-1.3-1.4.8v-1l-.8.4-3.8-4.4.4-3.2,1.8-.1-2.8-1.9,2.8-1.4-1.8-.6.7-1,2.1.1h0l4.6-3.6,1.3-3.2,4.4.7,1.9-3.6h0Z"/>
      <path id="PH-BUL" class="cls-34" d="m292.3,428.5l4.8-2.6,8.9-1.5,7.1,5.1,5.1.4h0l2.2,15.2h0l.2,7.9h0l-6.3,3.8-5.5,1.1-.4,1.7-4.6,3.3h0l-2.9-.3-1-1.3-1.1.3-.3,1.6-2.4.6h0l-.3.3h0l-1,2.4-1.4.2-.3-1.4-1.4-.6-.9.4,1.6,3.2-.9.5-1.3-1.6-.8.8h0l-1.4-1.6-.9.3-3.3-2.4.1-1.9-1.1-.4-.5-.5-1.2,1.8-3.2-.1-1.3-.5-4-.5-.4-.9,2.3-1.3-.3-1.4,3.2-5.2-.1-2.4,6.4-.6,4.7-3.8-.2-2,1.5-.3.2,1,1.3-3.1,2,.1.2-3.3,1.2-1.7-3.2-4,1-1.6-.1-3.2h0Z"/>
      <path id="PH-NUE" class="cls-34" d="m286.8,361.7l10.6-1.5,10.8,2.7,1.6,13.8,6.2,10.3h0l6.9,21.6-4.7,21.4h0l-5.1-.4-7.1-5.1-8.9,1.5-4.8,2.6h0l-4,.8-2.4,3.2-1.5-3h-4.4l-1.1-4.7h0l.7-2.9-3.1-2.4.2-3.3,1.6-2.7-3.1-9.9,2.3-4.2-4.1-1.1-3.1-3.3-3-12.7h0l9.5-1.5,5.7,4.5,2.6-2.1,4.7-11.9-3-9.7Z"/>
      <path id="PH-PAM" class="cls-34" d="m249.9,432.3l1.3.2,13.4-7.1h4.7l1.4-.9,3,1.1,3.1-1.7.2,1.3,2-.3h0l1.1,4.7h4.4l1.5,3,2.4-3.2,4-.8h0l.1,3.2-1,1.6,3.2,4-1.2,1.7-.2,3.3-2-.1-1.3,3.1-.2-1-1.5.3.2,2-4.7,3.8-6.4.6.1,2.4-3.2,5.2.3,1.4-3.4,1.9h0l-.6.5-2.4-2.2-2.4-1.2.5-.9-1.2-.4h0l-1.9.5-1.9-1.2-1.6-2.1-.4-3.2-2.7-1.4h0l-.7-2.5-2.2-2.1.1-4-1.3-2.6-2.8-2.1-.6-2.3.8-2.5h0Z"/>
    </g>
    <g id="R-II">
      <path id="PH-BTN" class="cls-19" d="m356.9,37.1l3.2,3.6-2,3.8-1.6-2.1.4-5.3Zm11.5-10.4l2.3,1.9-5.2,4,1.3,1.6-.5,1.9-1.7,1.5h-2.5l.8-4.9,2.9-2.8-.7-1.8c-.1.2,3.3-1.4,3.3-1.4Zm-10.2-26.7l1.4,1.9-1,2.1.6,1.9-1.4.6-.8,2.9-3.3,2-1.4-2.5,2.4-3.1,1.6-5,1.9-.8Z"/>
      <path id="PH-CAG" class="cls-19" d="m377.9,173.5l1.7.2-.2,4.4-2.8,1.7.8-3.5-1.1-.2.1-1.1,1.5-1.5h0Zm-73.3-3.5l5.3,1.5,7.7,6.2,6.5,3.1,1.3.6.6,1.5,2.7.4,11.1,6.3,20.7,7.7.6.7,8-2.1,5.8-5.2.7-2,2.1.1-.4-3.2,1.6-6.4,1.4-1.1,5,.4,1,5.2,4.7,4.4,1.8,6.4-2.6,6.9-2.9,3.7-3.4,1.3-3.6,5.3.2,1.3,1.2.3-.8,2.1,1.1,1.2-.9,5,.5.6.3,3.2-1.9,1.9.4,2.5-1.4.8.5,1.4-1.4,1.8.5,4.1,1.8,3.1-.9,1.2.8,1-.3,4.4,2,4.8h0l-24.6,1-2.2,1.3-12,.7h0l-12.8-12.5-2.9.5.2-1.8h0l-.8-3.5-4-4.4-5-1.8,1.3-.7,6.6-15.6,3.3-1.5,2.1-13.4-1.6-6.3-10.8-6.2-2.4-.1-2.7-3.1-11.6-4.2-.3-4.2-3,.9-.3,1.8-2.6,3-3.1,1.5h0l.9-10.3h0l4.5-2.9,1.8,1,2.3-.6.4-.9,1.9-.1h0Zm21.3-21.3l4.6,1.7v.7l-2.1,1.5-7.7,1-3.9-.2-1.2-1.1.5-2,2.1.5,7.7-2.1h0Zm36.2-7.5l2.1.1,3.4,3.3-.2,1.4-2.1.5-.5,2.4-4.3,2.5-1.2,3.4-1.6,1.1-1.3-.7-.7-4.2,3-.9-1.3-2.6,1.5-2-.3-2,3.5-2.3h0Zm-50.7-12.8l2.2,5.1.1,7-3.9-4.2-.1-3.1,1.7-4.8h0Zm13.9-17.1l5.7,2,2.6-1.6-.2,5.1,1.5,3.7-2.3,1.1.1,1.2-7.9-3-1-3.6-3.2-2.1,2.4-.6.8-1.9,1.5-.3h0Zm40.6-13.9l1.6,1.5.2,3.2-2.6,2.8-4.1-3-.8-2.1c.1.2,5.7-2.4,5.7-2.4Z"/>
      <path id="PH-ISA" class="cls-19" d="m382,252.4v3.2l4.4,7.1-1,.6,1.3,1.2-.6,1.7,1.4.8,1.4-.6.1,1.7,1.7.6.9-.8,2.3.6,1.2-1.4,1.6,1,1.1.5,2.6,5.3-.2,1.7-.7,2.1-1.3,2.3.4,3.4,1.4,1.2.8.6,2.6-.1,1.9-2,1.4,3.3-1.3,4.6-3.2,4.6.8,1.9-1.5,3.6.7,1.2-2.7,4.6.5,2.1-1.3.8-8.7,17.9-1.9,2.2h0l-10.2-.5h0l-3.6-.3-23.7,10.9-14.4-18.2-10.8-.9h0l-.6-3.5-4.8-4.5h0l.8-1.3-.7-1,1.3.1.9-1.7,2.8-.3,2.1-2.7,1.7.8,6.3-1.9,3.1-3.6-2.4-12.9h0l-.3-15.8h0l4-8.9,5.1-3.7-1.4-4.8h0l12-.7,2.2-1.3,24.5-.8h0Z"/>
      <path id="PH-NUV" class="cls-19" d="m319.9,313.2l4.8,4.5.6,3.5h0l-2.1,14.4,5.2,1.8-1,6.7-10.5,4.4,2.1,18.2,10.6,9.3h0l-13.6,11h0l-6.1-10.4-1.6-13.8-10.8-2.7-10.6,1.5h0l-2.8-5-5.3-2.3h0l-.7-3.1,3.4-6.1,2.9.2,3.3-8.5-.5-5.4,1.6-6.8h0l23-3.8h0l.4-.1h0l3.7-1.6,1.3.5-.4-2.1,1.9-.7,1.2-3.6Z"/>
      <path id="PH-QUI" class="cls-19" d="m325.2,321.2l10.8.9,14.4,18.2,23.7-10.9,3.6.3h0l-4.8,3.2-16.7,19.6-26.7,23.5h0l-10.6-9.3-2.1-18.2,10.5-4.4,1-6.7-5.2-1.8,2.1-14.4Z"/>
    </g>
    <g id="R-I">
      <path id="PH-ILN" class="cls-15" d="m284.5,168.2l4.7,6.7,3,.4,1.4-1.8h0l-.9,10.3h0l-1.4,6.1,1.2,12.9,1.2,2.4-2.9,5.1.3,7.8-.9,1.5h0l-1.3,2.1-5.5-.7-3.6,3.7-4,1.4-2.7,4.4-7.9,2.7-3.4,7.3h0l-1.5-1.6-.3-2.2,1.5-9.9-6.4-1.4h0l-1-1.1,2.6-2,.6-2.5,1.8-1.6-1.8-2.5.3-3.9-.6-.4,3-3.6.5-3.9.8-.5-.5-.7,3.9-5.9,1.8-5.1-.4-5.1-2.4-6.2,4.5-4.1,6.5,1.3,4.2-1.1,1.1-2.1-.4-3.9,4.9-2.3h0Z"/>
      <path id="PH-ILS" class="cls-15" d="m255.2,225.4l6.4,1.4-1.5,9.9.3,2.2,1.5,1.6h0l-2.4,4.9-1.1,7.2-1.5,3.3,1.1,1.6,3.1-1.4,4.4,1.8-.5,3.5-2.9,5.5,1.4,3.8,4.1-.2,5,4.2-.1,4.3-1,.4,2,2.5,4.5.2,3.1-2.3h4.3l-5.6,5.9.5,10.5-.8,2.8h0l-2.3,1.6-5.2.2-2,1.1-1.7,12.5-2.9,5.4h0l-3.5-4.3,1.3-4.1-1.1-.8.6-1-1.5-.2.9-1.4-2.1-2.2.7-5.7-2.2,1.4-.9-1.1-1.5.6-3.1-1h0l2.7-4.5-.7-7.5-.8-7.3-1.7-2.6,2.3-5.7-.9-.1.3-3.6,1.3-.2.8-3.8.6-1.5-1.2-2.9-1.2-.4.3-2.1-.9-1.4.1-.8-1.4-.5-1.2-.4.2-1-2.7-1.2-.5-2.1,2-7.2.4-1,4.3-3.8-.5-1.6-1.7-.2,1.4-1.3-1.7-1.6,2-.8.4-1.4,1.6-.1-1.3-3.1-.1-2.9h0Z"/>
      <path id="PH-LUN" class="cls-15" d="m252.7,300.1l3.1,1,1.5-.6.9,1.1,2.2-1.4-.7,5.7,2.1,2.2-.9,1.4,1.5.2-.6,1,1.1.8-1.3,4.1,3.5,4.3h0l-2.8,3.9,1.2.8-4.5,4.2-2,3.3,3.1,19.7h0l-1,1.9-6.1.2h0l-1.1-3.3-2.6-1.6-1.2-.7-.2-4.9-1.6-3.3.1-.4.4-5.6-1.9-2.5.4-1.4.8-4-3.1-3.5,2.2.5v-2.4l2.2-3,.3-3.7-1.3-5.1.8-2.6,4.6-3.3.9-3Z"/>
      <path id="PH-PAN" class="cls-15" d="m222.2,343.3l.7,2,1.6.7-1.7,2.8,1.4,2.7-1.8,1.4-2.1-3.5-1.2.1.2-1.1-1.1-1.1-1,.8-.4-1,1.9-.8-.4-1,.9-.8-.2,1.6,1.1.6.2-3,1.9-.4h0Zm-5.6,41.9l-1.8-.9h0l-.4-.7,2.2-1.8-3.7-8.7-1.1-1.2-.2.9-2.3.2-.6,2.5-1.4-.7-.9,1.3-1.6-3.8.7-3.5,1.1-.9-1.3-1.9.5-4.4,1.4-2-.8-2.3-1.3-.5,2.2-5.2-.8-.7.5-4.5,2.6-3.8h2.9l2-2.7,3,1.9-.7,9.6,1-.6,2,1.1.5.3,1.2.5-.3,1.4,2.1,1,1.2,1.9.7-1.7,1,.6.3.4h1.8v1.2l1.1-.6,1.7,1.9-.4.8v.7l-1.2,1.4,1.8,2.2-1.1-.1-.2.9,3.4,2.2,5.8.3,7.4-2.5.2.7,6.9-7.8-.6-3.5h0l6.1-.2,1-1.9h0l10.4,3.7,8.2-1h0l5.3,2.3,2.8,4.9h0l3.1,9.6-4.7,11.9-2.6,2.1-5.7-4.5-9.5,1.5h0l-1.8-4.3-2.9,8.9-4.9,3.1-6.4-2.7-2.5,2.5-.5,2.4-2.6,2.2.5,1.4-5.1,2.4h0l-4.9-8.2-2.7-7.3-4.6,1-4.1-2.6-2.8,4h-2.2l-.7-1.4-2.7,1.3h0Zm1.5-47.8l2,2.5v1.8l-3.7-1.2.1-2.8,1.6-.3Z"/>
    </g>
    <g id="R-CAR">
      <path id="PH-ABR" class="cls-8" d="m290.3,219.7l4.3,2.9,1.7,7.3,4.1-.3,2.4,1.8,1.7,10.7h0l-2.3,1.3,2,5.9-.7,2.2-8.1,5.3-.3,6.3-5.8,12.2h0v2.6l-1.3,1.7-2.9.2h-4.3l-3.1,2.3-4.5-.2-2-2.5,1-.4.1-4.3-5-4.2-4.1.2-1.4-3.8,2.9-5.5.5-3.5-4.4-1.8-3.1,1.4-1.1-1.6,1.5-3.3,1.1-7.2,2.4-4.9h0l3.4-7.3,7.9-2.7,2.7-4.4,4-1.4,3.6-3.7,5.6.7,1.5-2Z"/>
      <path id="PH-APA" class="cls-8" d="m292.7,183.8l3.1-1.5,2.6-3,.3-1.8,3-.9.3,4.2,11.6,4.2,2.7,3.1,2.4.1,10.8,6.2,1.6,6.3-2.1,13.4-3.3,1.5-6.6,15.6-1.2.7,5,1.8,4,4.4.8,3.5h0l-3.2,1.9-.7,1.8-9.8-2.3-1.9,3.5-7.6-4.5h0l-1.7-10.7-2.4-1.8-4.1.3-1.7-7.3-4.3-2.9h0l.9-1.4-.3-7.9,2.9-5.1-1.2-2.4-1.2-12.9,1.3-6.1Z"/>
      <path id="PH-BEN" class="cls-8" d="m279.2,299l5,4.7.8,2.6,1.7.8h0l1.4,3.6.5,13.9h0l-1.6,6.8.5,5.4-3.3,8.5-2.9-.2-3.4,6.1.7,3.1h0l-8.2,1-10.4-3.7h0l-3.1-19.7,2-3.3,4.5-4.2-1.2-.8,2.8-3.9h0l2.9-5.4,1.7-12.5,2-1.1,5.2-.2,2.4-1.5Z"/>
      <path id="PH-IFU" class="cls-8" d="m286.8,307.1h2.7l2.3-2.3,2.5-5.8-.9-2.9.6-2,3.4.3,2.4-1.3,3.6-.2,8.6.6,9-4.6,6.4-1,8.4.7h0l2.4,12.9-3.1,3.6-6.3,1.9-1.7-.8-2.1,2.7-2.8.3-.9,1.7-1.3-.1.7,1-.8,1.3h0l-1.4,3.7-1.9.7.4,2.1-1.3-.5-3.7,1.6h0l-.4.1h0l-23,3.8h0l-.5-13.9-1.3-3.6Z"/>
      <path id="PH-KAL" class="cls-8" d="m327.7,241.6l-.2,1.8,2.9-.5,12.8,12.5h0l1.4,4.8-5.1,3.7-4,8.9h0l-10.1-1.9-5,1.8-6.6,7.2-6.4,1.4-5.5-1.9-2.2-3.1-10.3-1h0l5.8-12.2.3-6.3,8.1-5.3.7-2.2-2-5.9,2.3-1.3h0l7.6,4.5,1.9-3.5,9.8,2.3.7-1.8,3.1-2Z"/>
      <path id="PH-MOU" class="cls-8" d="m335.5,272.8l.3,15.8h0l-8.4-.7-6.4,1-9,4.6-8.6-.6-3.6.2-2.4,1.3-3.4-.3-.6,2,.9,2.9-2.5,5.8-2.3,2.3h-2.7l-1.7-.8-.8-2.6-5-4.7h0l.8-2.8-.5-10.5,5.6-5.9h0l2.9-.2,1.3-1.7v-2.6h0l10.3,1,2.2,3.1,5.5,1.9,6.4-1.4,6.6-7.2,5-1.8,10.1,1.9Z"/>
    </g>
  </g>
  <line class="cls-4" x1="271.8" y1="209.6" x2="224.5" y2="209.6"/>
  <text class="cls-13" transform="translate(113.14 217.87)"><tspan x="0" y="0">RE</tspan><tspan class="cls-27" x="33.74" y="0">G</tspan><tspan x="50.93" y="0">I</tspan><tspan class="cls-27" x="58.36" y="0">O</tspan><tspan x="75.53" y="0">N I</tspan></text>
  <line class="cls-5" x1="363.3" y1="290.42" x2="427.35" y2="290.42"/>
  <text class="cls-13" transform="translate(427.35 299)"><tspan x="0" y="0">RE</tspan><tspan class="cls-27" x="33.74" y="0">G</tspan><tspan x="50.93" y="0">I</tspan><tspan class="cls-12" x="58.36" y="0">O</tspan><tspan class="cls-21" x="75.53" y="0">N II</tspan></text>
  <text class="cls-13" transform="translate(132.73 624.9)"><tspan x="0" y="0">MI</tspan><tspan class="cls-27" x="28.48" y="0">M</tspan><tspan x="49.25" y="0">A</tspan><tspan class="cls-24" x="66.74" y="0">R</tspan><tspan class="cls-27" x="83.81" y="0">O</tspan><tspan class="cls-17" x="100.97" y="0">P</tspan><tspan x="116.6" y="0">A</tspan></text>
  <text class="cls-13" transform="translate(409.7 1065.4)"><tspan class="cls-31" x="0" y="0">B</tspan><tspan x="17.03" y="0">ARMM</tspan></text>
  <text class="cls-13" transform="translate(46.94 428.7)"><tspan x="0" y="0">RE</tspan><tspan class="cls-27" x="33.74" y="0">G</tspan><tspan x="50.93" y="0">I</tspan><tspan class="cls-27" x="58.36" y="0">O</tspan><tspan x="75.53" y="0">N III</tspan></text>
  <line class="cls-4" x1="279.7" y1="416.61" x2="197.29" y2="416.61"/>
  <line class="cls-4" x1="314.3" y1="505.7" x2="220.65" y2="505.7"/>
  <text class="cls-13" transform="translate(59.9 514)"><tspan x="0" y="0">RE</tspan><tspan class="cls-27" x="33.74" y="0">G</tspan><tspan x="50.93" y="0">I</tspan><tspan class="cls-27" x="58.36" y="0">O</tspan><tspan x="75.53" y="0">N </tspan><tspan class="cls-2" x="101.69" y="0">I</tspan><tspan class="cls-31" x="109.65" y="0">V-</tspan><tspan x="137.65" y="0">A</tspan></text>
  <text class="cls-13" transform="translate(115.2 317.22)"><tspan class="cls-30" x="0" y="0">C</tspan><tspan x="15.91" y="0">AR</tspan></text>
  <polyline class="cls-4" points="302.17 269.46 200.23 309.23 174.6 309.23"/>
  <polyline class="cls-4" points="403.9 729.5 337.9 805.1 323.6 805.1"/>
  <text class="cls-13" transform="translate(193.1 813.23)"><tspan x="0" y="0">RE</tspan><tspan class="cls-27" x="33.74" y="0">G</tspan><tspan x="50.93" y="0">I</tspan><tspan class="cls-27" x="58.36" y="0">O</tspan><tspan x="75.53" y="0">N </tspan><tspan class="cls-28" x="101.69" y="0">V</tspan><tspan class="cls-11" x="117.66" y="0">I</tspan></text>
  <polyline class="cls-4" points="583.45 948.59 397.42 877.5 360.5 877.5"/>
  <text class="cls-13" transform="translate(234.55 885.55)"><tspan x="0" y="0">RE</tspan><tspan class="cls-27" x="33.74" y="0">G</tspan><tspan x="50.93" y="0">I</tspan><tspan class="cls-27" x="58.36" y="0">O</tspan><tspan x="75.53" y="0">N X</tspan></text>
  <text class="cls-13" transform="translate(612.39 479.47)"><tspan x="0" y="0">RE</tspan><tspan class="cls-27" x="33.74" y="0">G</tspan><tspan x="50.93" y="0">I</tspan><tspan class="cls-12" x="58.36" y="0">O</tspan><tspan class="cls-21" x="75.53" y="0">N V</tspan></text>
  <polyline class="cls-4" points="465.05 556.2 580.08 470.98 610.4 470.98"/>
  <polyline class="cls-4" points="571.35 1079.6 571.35 1163.3 537.35 1163.3"/>
  <text class="cls-13" transform="translate(396.9 1171.35)"><tspan x="0" y="0">RE</tspan><tspan class="cls-27" x="33.74" y="0">G</tspan><tspan x="50.93" y="0">I</tspan><tspan class="cls-12" x="58.36" y="0">O</tspan><tspan class="cls-21" x="75.53" y="0">N </tspan><tspan class="cls-9" x="101.68" y="0">X</tspan><tspan x="117.27" y="0">II</tspan></text>
  <line class="cls-4" x1="654.1" y1="989.1" x2="742.71" y2="989.1"/>
  <text class="cls-13" transform="translate(744.9 997.05)"><tspan x="0" y="0">RE</tspan><tspan class="cls-27" x="33.74" y="0">G</tspan><tspan x="50.93" y="0">I</tspan><tspan class="cls-12" x="58.36" y="0">O</tspan><tspan class="cls-21" x="75.53" y="0">N </tspan><tspan class="cls-9" x="101.68" y="0">X</tspan><tspan x="117.27" y="0">I</tspan></text>
  <line class="cls-4" x1="641.2" y1="920.2" x2="728" y2="920.2"/>
  <text class="cls-13" transform="translate(730.63 928.14)"><tspan class="cls-30" x="0" y="0">C</tspan><tspan class="cls-11" x="15.91" y="0">A</tspan><tspan class="cls-20" x="33.39" y="0">R</tspan><tspan class="cls-7" x="50.33" y="0">A</tspan><tspan class="cls-30" x="66.76" y="0">G</tspan><tspan x="83.43" y="0">A</tspan></text>
  <text class="cls-13" transform="translate(227.1 941.5)"><tspan x="0" y="0">RE</tspan><tspan class="cls-27" x="33.74" y="0">G</tspan><tspan x="50.93" y="0">I</tspan><tspan class="cls-27" x="58.36" y="0">O</tspan><tspan x="75.53" y="0">N IX</tspan></text>
  <polyline class="cls-4" points="452.9 963.4 395.1 933.77 360.5 933.77"/>
  <polyline class="cls-4" points="590.15 665 590.15 582.7 622.8 582.7"/>
  <text class="cls-13" transform="translate(626 591.58)"><tspan x="0" y="0">RE</tspan><tspan class="cls-27" x="33.74" y="0">G</tspan><tspan x="50.93" y="0">I</tspan><tspan class="cls-23" x="58.36" y="0">O</tspan><tspan class="cls-11" x="75.53" y="0">N </tspan><tspan class="cls-28" x="101.69" y="0">V</tspan><tspan x="117.66" y="0">III</tspan></text>
  <line class="cls-4" x1="495" y1="790.7" x2="702.5" y2="790.7"/>
  <text class="cls-13" transform="translate(704.97 799.05)"><tspan x="0" y="0">RE</tspan><tspan class="cls-27" x="33.74" y="0">G</tspan><tspan x="50.93" y="0">I</tspan><tspan class="cls-12" x="58.36" y="0">O</tspan><tspan class="cls-21" x="75.53" y="0">N </tspan><tspan class="cls-28" x="101.68" y="0">V</tspan><tspan x="117.66" y="0">II</tspan></text>
  <polyline class="cls-3" points="298.5 475.6 349.35 424.75 366.75 424.75"/>
  <text class="cls-13" transform="translate(368.48 432.6)"><tspan x="0" y="0">N</tspan><tspan class="cls-27" x="18.91" y="0">C</tspan><tspan x="35.35" y="0">R</tspan></text>
</svg>